<?xml version="1.0" encoding="iso-8859-1"?>
<!-- Generator: Adobe Illustrator 19.0.0, SVG Export Plug-In . SVG Version: 6.00 Build 0)  -->
<svg version="1.1" id="Capa_1" xmlns="http://www.w3.org/2000/svg" xmlns:xlink="http://www.w3.org/1999/xlink" x="0px" y="0px"
	 viewBox="0 0 512 512" style="enable-background:new 0 0 512 512;" xml:space="preserve">
<g>
	<g>
		<path d="M71.162,156.863c-5.684-6.328-16.641-6.328-22.324,0C40.679,165.945,0,212.761,0,241.883c0,33.091,26.909,60,60,60
			s60-26.909,60-60C120,212.761,79.321,165.945,71.162,156.863z"/>
	</g>
</g>
<g>
	<g>
		<path d="M191.162,4.863c-5.684-6.328-16.641-6.328-22.324,0C160.679,13.945,120,62.762,120,91.883c0,33.091,26.909,60,60,60
			s60-26.909,60-60C240,62.761,199.321,13.945,191.162,4.863z"/>
	</g>
</g>
<g>
	<g>
		<path d="M343.162,4.863c-5.683-6.328-16.641-6.328-22.324,0C312.679,13.945,272,62.762,272,91.883c0,33.091,26.909,60,60,60
			s60-26.909,60-60C392,62.761,351.321,13.945,343.162,4.863z"/>
	</g>
</g>
<g>
	<g>
		<path d="M463.162,156.863c-5.684-6.328-16.641-6.328-22.324,0c-8.159,9.082-48.838,55.898-48.838,85.02c0,33.091,26.909,60,60,60
			s60-26.909,60-60C512,212.761,471.321,165.945,463.162,156.863z"/>
	</g>
</g>
<g>
	<g>
		<path d="M450.257,387.518c-7.09-39.434-37.998-72.539-76.934-82.397c-6.665-1.685-11.323-7.646-11.323-14.517v-3.721
			c0-57.891-48.109-105-106-105s-106,47.109-106,105v3.721c0,6.87-4.658,12.832-11.323,14.517
			c-38.936,9.857-69.844,42.962-76.934,82.396c-5.61,31.143,2.651,62.739,22.676,86.675c35.083,41.938,101.558,49.16,144.741,15.806
			c13.77-10.635,39.91-10.635,53.68,0c18.53,14.312,40.708,21.885,64.16,21.885c31.187,0,60.557-13.74,80.581-37.69
			C447.605,450.258,455.867,418.661,450.257,387.518z"/>
	</g>
</g>
<g>
</g>
<g>
</g>
<g>
</g>
<g>
</g>
<g>
</g>
<g>
</g>
<g>
</g>
<g>
</g>
<g>
</g>
<g>
</g>
<g>
</g>
<g>
</g>
<g>
</g>
<g>
</g>
<g>
</g>
</svg>
