<?xml version="1.0"?>
<svg xmlns="http://www.w3.org/2000/svg" height="512px" viewBox="0 0 512 512" width="512px"><path d="m451 263.441406c0-3.242187 0-219.269531 0-233.441406h-30v-30h-30v30h-60v-30h-30v30h-60v-30h-30v30h-60v-30h-30v30h-61v-30h-30v30h-30v361h241.824219c7.4375 67.957031 64.769531 121 134.175781 121 74.640625 0 136-61.378906 136-136 0-46.945312-24.269531-88.359375-61-112.558594zm-421-203.441406h391v30h-391zm0 60h391v128.605469c-14.09375-4.917969-29.234375-7.605469-45-7.605469-69.367188 0-126.675781 52.59375-134.160156 120h-211.839844zm346 362c-57.898438 0-105-47.550781-105-106 0-57.898438 47.101562-105 105-105 58.449219 0 106 47.101562 106 105 0 58.449219-47.550781 106-106 106zm0 0" fill="#757575"/><path d="m361 421h30v30h-30zm0 0" fill="#757575"/><path d="m361 301h30v90h-30zm0 0" fill="#757575"/><path d="m60 151h61v30h-61zm0 0" fill="#757575"/><path d="m151 151h60v30h-60zm0 0" fill="#757575"/><path d="m241 151h60v30h-60zm0 0" fill="#757575"/><path d="m331 151h60v30h-60zm0 0" fill="#757575"/><path d="m60 211h61v30h-61zm0 0" fill="#757575"/><path d="m151 211h60v30h-60zm0 0" fill="#757575"/><path d="m60 271h61v30h-61zm0 0" fill="#757575"/><path d="m151 271h60v30h-60zm0 0" fill="#757575"/><path d="m241 211h60v30h-60zm0 0" fill="#757575"/></svg>
