<?xml version="1.0" encoding="UTF-8" standalone="no"?>
<!-- Created with Inkscape (http://www.inkscape.org/) -->

<svg
   xmlns:dc="http://purl.org/dc/elements/1.1/"
   xmlns:cc="http://creativecommons.org/ns#"
   xmlns:rdf="http://www.w3.org/1999/02/22-rdf-syntax-ns#"
   xmlns:svg="http://www.w3.org/2000/svg"
   xmlns="http://www.w3.org/2000/svg"
   xmlns:sodipodi="http://sodipodi.sourceforge.net/DTD/sodipodi-0.dtd"
   xmlns:inkscape="http://www.inkscape.org/namespaces/inkscape"
   version="1.1"
   id="svg2"
   xml:space="preserve"
   width="509.05225"
   height="282.86334"
   viewBox="0 0 509.05224 282.86334"
   sodipodi:docname="task-background.svg"
   inkscape:version="0.92.3 (2405546, 2018-03-11)"><metadata
     id="metadata8"><rdf:RDF><cc:Work
         rdf:about=""><dc:format>image/svg+xml</dc:format><dc:type
           rdf:resource="http://purl.org/dc/dcmitype/StillImage" /><dc:title></dc:title></cc:Work></rdf:RDF></metadata><defs
     id="defs6"><clipPath
       clipPathUnits="userSpaceOnUse"
       id="clipPath348"><path
         d="m 4905.88,835.102 c 4.57,8.117 9.08,16.378 13.44,24.628 -2.43,-4.789 -4.9,-9.589 -7.42,-14.39 -1.99,-3.43 -4.01,-6.86 -6.02,-10.238 m 67.89,876.178 c -1.16,3.11 -2.34,6.22 -3.53,9.32 0.13,-0.06 0.25,-0.11 0.37,-0.17 1.07,-3.04 2.12,-6.08 3.16,-9.15"
         id="path346"
         inkscape:connector-curvature="0" /></clipPath></defs><sodipodi:namedview
     pagecolor="#ffffff"
     bordercolor="#666666"
     borderopacity="1"
     objecttolerance="10"
     gridtolerance="10"
     guidetolerance="10"
     inkscape:pageopacity="0"
     inkscape:pageshadow="2"
     inkscape:window-width="1920"
     inkscape:window-height="1020"
     id="namedview4"
     showgrid="false"
     inkscape:zoom="1.7700001"
     inkscape:cx="89.184224"
     inkscape:cy="119.75981"
     inkscape:window-x="0"
     inkscape:window-y="0"
     inkscape:window-maximized="1"
     inkscape:current-layer="g12" /><g
     id="g10"
     inkscape:groupmode="layer"
     inkscape:label="ink_ext_XXXXXX"
     transform="matrix(1.3333333,0,0,-1.3333333,-7.0863436,391.25745)"><g
       id="g12"
       transform="scale(0.1)"><path
         d="m 3645.0362,1880.9099 c -9.96,10.87 -26.35,27.64 -51.08,44.6 -19.85,13.61 -49.86,28.36 -54.42,27.6 -3.83,-0.63 -4.73,-2.37 -3.62,-4.04 17.71,-26.67 65.36,-61.47 106.56,-71.89 2.09,-0.54 4.25,1.89 2.56,3.73"
         style="fill:#24597e;fill-opacity:1;fill-rule:nonzero;stroke:none"
         id="path230"
         inkscape:connector-curvature="0" /><path
         d="m 971.05139,1498.5195 c -0.11,4.92 2.98,13.37 -4.04,12.13 -4.38,-0.77 -42.81,-24.06 -42.45,-32.57 0.19,-4.67 2.19,-8.43 5.34,-11.13 2.06,-2.58 4.64,-4.83 7.23,-6.88 6.26,-4.93 13.66,-9.42 21.83,-8.19 7.85,1.18 12.95,8.33 12.09,46.64"
         style="fill:#3f9ec4;fill-opacity:1;fill-rule:nonzero;stroke:none"
         id="path16"
         inkscape:connector-curvature="0" /><path
         d="m 890.33092,2446.5729 c -2.78,-43.41 -22.46,-82.25 -40.74,-120.93 -19.1,-40.43 -38.44,-80.75 -58.03,-120.94 -37.53,-77.01 -77.11,-153 -114.893,-229.86 -0.492,0.29 -0.977,0.6 -1.481,0.9 -12.074,7.15 -21.668,-9.92 -11.117,-18.13 3.692,-2.87 7.453,-5.58 11.262,-8.29 4.734,-3.38 12.586,-1.35 15.332,3.67 44.607,81.58 85.127,165.64 125.777,249.24 19.95,41.03 39.66,82.18 59.1,123.45 18.01,38.23 36.6,77.39 37.99,120.39 0.48,14.98 -22.24,15.35 -23.2,0.5"
         style="fill:#3867fa;fill-opacity:1;fill-rule:nonzero;stroke:none"
         id="path18"
         inkscape:connector-curvature="0" /><path
         d="m 3536.8262,1970.5199 c -53.6698,84.9899 -133.7502,155.0502 -220.9842,213.8798 -93.5038,63.0347 -196.8246,115.4069 -302.7264,160.6501 -217.9083,93.1107 -453.2352,152.6945 -692.7929,183.5041 -25.5267,3.2752 -51.1124,6.2198 -76.7099,8.8647 -65.8438,2.7896 -131.8763,2.707 -197.8027,2.6243 -81.0233,-0.083 -162.6711,4.2257 -243.3997,-3.4095 -73.1861,-6.912 -145.5708,-23.5566 -213.5595,-48.2291 -72.0312,-26.1499 -135.9305,-62.9933 -199.8771,-101.5105 -33.6467,-20.2814 -68.2244,-39.2404 -106.0196,-53.0231 -10.3828,-3.7918 -20.9187,-7.2323 -31.5136,-10.5282 -17.831,-11.8919 -35.2142,-24.3315 -52.0316,-37.391 -172.335,-133.7665 -288.61956,-335.2584 -234.94976,-539.5606 52.79776,-201.0166 234.97326,-351.6034 436.51196,-444.7864 111.4762,-51.5457 230.5656,-89.0813 350.48,-122.3396 132.3831,-36.7194 266.4044,-69.647 402.6413,-93.4723 251.3665,-43.962 515.3313,-56.5566 764.3879,4.9283 207.1956,51.153 403.702,151.3721 535.6019,302.8578 72.2315,82.9338 124.2867,180.7455 141.7288,284.4153 17.0178,101.1489 -2.4042,202.9281 -58.9849,292.5259"
         style="fill:#3867fa;fill-opacity:1;fill-rule:nonzero;stroke:none;stroke-width:1.1034627"
         id="path20"
         inkscape:connector-curvature="0" /><path
         d="m 2907.79,1374.12 c -0.34,2.79 -1.86,4.67 -3.83,5.66 -3.22,5.84 -8.86,9.82 -16.93,9.37 -12.04,-0.68 -23.36,-6 -35.21,-8.37 -11.57,-2.31 -23.44,-2.77 -35.16,-2.67 -23.69,0.2 -46.91,5.18 -69.41,13.48 -42.69,15.74 -78.54,45.56 -117.78,68.98 -3.29,4.13 -7.96,6.86 -13.19,6.63 -3.8,0.53 -7.2,-1 -9.61,-3.67 -36.31,-22.98 -46.34,-75.23 -64.05,-114.41 -21.42,-47.35 -48.36,-91.11 -75.77,-134.17 -27.55,-43.26 -56.43,-85.96 -80.3,-132.04 -22.79,-44.04 -29.42,-107 -9.33,-155.14 17.05,-40.872 214.77,-274.2 432.39,71.82 30,47.7 69.33,134.85 85.56,190.63 16.08,55.27 19.66,125.8 12.62,183.9"
         style="fill:#3f9ec4;fill-opacity:1;fill-rule:nonzero;stroke:none"
         id="path22"
         inkscape:connector-curvature="0" /><path
         d="m 2931.54,1460.41 c -48.43,109.27 -254.23,42.99 -262.56,46.18 -41.27,15.76 -69.37,-34.02 -73.8,-44.06 -2.8,-6.35 -5.13,-12.87 -7.09,-19.5 -7.17,-16.59 -10.23,-36.46 -12.53,-52.39 -3.77,-26.03 -3.83,-52.52 2.47,-78.19 11.72,-47.78 46.32,-87.23 91.13,-107.06 97.99,-43.35 208.62,10.85 254.1,103.54 13.31,27.13 34.57,92.18 8.28,151.48"
         style="fill:#388cb6;fill-opacity:1;fill-rule:nonzero;stroke:none"
         id="path24"
         inkscape:connector-curvature="0" /><path
         d="m 2871.07,1513.54 c -36.15,24.88 -98.02,21.68 -136.76,17.72 -26.95,-2.77 -55.49,-10.39 -73.93,-30.87 -6.77,-7.52 -14.9,-19.75 -19.32,-29.77 -8.69,-19.74 -11.3,-42.85 -8.71,-61.33 4.53,-32.2 25.38,-59.64 53.53,-76.81 3.52,-2.16 7.04,-2.71 10.21,-2.18 11.29,-9.24 24.55,-16.82 39.77,-22.25 37.63,-13.41 79.49,-6.89 111.8,15.65 33.38,23.29 65.72,60.59 73.08,100.65 6.5,35.32 -12.52,79.97 -49.67,89.19"
         style="fill:#24597e;fill-opacity:1;fill-rule:nonzero;stroke:none"
         id="path26"
         inkscape:connector-curvature="0" /><path
         d="m 2709.82,2158.81 c -23.19,-11.46 -42.92,11.9 -32.68,34.42 9.06,19.93 31.36,23.19 50.55,17.87 5.82,-19.94 3.38,-41.78 -17.87,-52.29 z m 106.71,-45.86 c -1.32,38.22 -13.71,78.48 -42.73,104.85 -6.53,5.94 -13.87,11.02 -21.7,15.04 -0.92,2.12 -1.89,4.22 -2.94,6.28 -17.45,34.38 -52.83,63 -90.97,70.37 -37.18,7.18 -72.18,-6.42 -98.99,-32.28 -14.89,-14.36 -27.14,-31.78 -37.27,-49.75 -9.69,-17.19 -16.88,-36.36 -29.35,-51.84 -30.65,-38.05 -84.21,-7.7 -124.49,-22.28 -17.28,-6.25 -10.47,-33.19 7.7,-27.93 29.49,8.54 60.02,-3.18 90.02,1.33 29.06,4.37 48.86,24.44 63.04,48.95 25.31,43.79 52.51,110.61 114.52,105.34 26.01,-2.21 50.49,-17.92 67.06,-38.24 -12.14,-0.33 -24.22,-3.6 -35.36,-10.49 -28.19,-17.43 -39.08,-55.05 -20.51,-83.63 18.87,-29.04 57.42,-27.95 82.15,-7.37 15.69,13.06 22.82,30.64 23.67,49.06 47.51,-50.03 19.52,-138.18 9.71,-197.41 -1.43,-8.6 11,-15.87 15.41,-6.49 18.79,40.05 32.59,81.57 31.03,126.49"
         style="fill:#ffffff;fill-opacity:1;fill-rule:nonzero;stroke:none"
         id="path28"
         inkscape:connector-curvature="0" /><path
         d="m 2442.31,2113.16 c -22.52,-1.08 -45.83,-1.53 -68.53,0.04 0.49,-11 1.27,-19.29 2.21,-19.37 21.95,-1.81 42.48,0.66 64.44,0.3 5.35,-0.09 10.61,4.93 10.61,10.66 0,3.03 -0.06,7.06 -0.01,9.86 -2.98,-0.09 -5.82,-1.35 -8.72,-1.49"
         style="fill:#a1beb6;fill-opacity:1;fill-rule:nonzero;stroke:none"
         id="path30"
         inkscape:connector-curvature="0" /><path
         d="m 2450.98,2169.78 c -0.14,1.98 -0.39,3.99 -1.24,5.45 -1.03,1.77 -3.09,2.9 -5.31,3.54 -2.97,1.38 -57.71,3.59 -69.15,-0.26 -3.43,-1.16 -2.11,-74.04 0.71,-74.27 21.95,-1.81 42.48,0.66 64.44,0.3 5.35,-0.09 10.61,4.92 10.61,10.66 0.04,20.64 1.25,35.22 -0.06,54.58"
         style="fill:#ffffff;fill-opacity:1;fill-rule:nonzero;stroke:none"
         id="path32"
         inkscape:connector-curvature="0" /><path
         d="m 2715.76,2022.89 c -23.99,0 -52.18,-13.51 -65.02,-32.75 -17.51,-26.23 -26.3,-57.35 -32.05,-88.04 -11.54,-61.7 -11.58,-131.76 9.39,-191.62 7.55,-21.55 20.47,-43.2 43.25,-50.99 24.66,-8.43 52,2.6 69.58,20.44 20.28,20.59 29.45,49.27 36.61,76.55 7.93,30.25 13.9,61.47 15.68,92.73 3.78,65.97 -16.1,173.68 -77.44,173.68"
         style="fill:#c0d4ce;fill-opacity:1;fill-rule:nonzero;stroke:none"
         id="path34"
         inkscape:connector-curvature="0" /><path
         d="m 2773.75,1970.22 c -7.8,18.73 -21.28,40.07 -42.31,45.12 -24.04,5.76 -47.57,-20.6 -56.88,-38.57 -41.2,-79.6 -41.86,-144.32 -27.63,-214.91 3.98,-19.71 18.41,-40.61 35.12,-52.68 18.03,-13.02 26.72,-10.13 48.18,-6.12 22.95,4.28 35.42,20.81 40.64,42.65 6.24,26.16 10.17,52.98 12.72,79.73 4.43,46.57 8.62,100.54 -9.84,144.78"
         style="fill:#ffffff;fill-opacity:1;fill-rule:nonzero;stroke:none"
         id="path36"
         inkscape:connector-curvature="0" /><path
         d="m 2759.83,1923.13 c -3.36,10.41 -6.99,20.68 -9.47,31.34 -2.23,9.66 -2.32,20.1 -6.6,29.06 -0.53,1.1 -1.36,1.84 -2.31,2.31 -0.63,1.31 -1.67,2.38 -3.2,2.77 -19.24,4.95 -11.15,-28.8 -9.59,-38 2.32,-13.54 6.04,-41.89 26.23,-36.2 3.57,1.01 6.14,5.05 4.94,8.72"
         style="fill:#c0d4ce;fill-opacity:1;fill-rule:nonzero;stroke:none"
         id="path38"
         inkscape:connector-curvature="0" /><path
         d="m 1294.41,2854.49 c 43.21,-3.45 1096.52,-2.16 1165.22,-0.13 5.46,26.39 6.17,38.98 4.76,44.64 -7.38,29.51 -30.59,34.51 -62.85,34.79 -193.61,1.68 -972.87,-0.46 -980.49,-0.58 -20.87,-0.32 -50.66,-1.38 -77.43,-2.45 -33.62,-1.36 -57.62,-15.06 -54.58,-41.12 1.12,-9.54 3.32,-22.05 5.37,-35.15"
         style="fill:#c8e0da;fill-opacity:1;fill-rule:nonzero;stroke:none"
         id="path40"
         inkscape:connector-curvature="0" /><path
         d="m 1371.6,1767.34 c 5.93,-25.78 41.75,-77.34 91.72,-77.34 116.43,0 825.91,-0.16 847.98,-0.16 48.56,0 72.28,53.64 72.59,88.16 -40.31,-0.04 -1004.1,-9.45 -1012.29,-10.66"
         style="fill:#c0d4ce;fill-opacity:1;fill-rule:nonzero;stroke:none"
         id="path42"
         inkscape:connector-curvature="0" /><path
         d="m 1982.01,1754.96 c -34.43,0.09 -68.85,-1.18 -103.34,-0.73 -16.07,0.21 -32.14,-0.31 -48.21,-0.67 -15.82,-0.35 -33.31,0.62 -47.9,-6.07 -6.59,-3.03 -6.72,-14.59 0,-17.57 13.94,-6.19 30.17,-5.39 45.23,-5.55 16.96,-0.17 33.92,-0.55 50.88,-0.12 34.48,0.86 74.07,-0.66 95.44,2 19.28,2.39 27.39,28.66 7.9,28.71"
         style="fill:#718483;fill-opacity:1;fill-rule:nonzero;stroke:none"
         id="path44"
         inkscape:connector-curvature="0" /><path
         d="m 2461.49,2878.11 c -0.72,20.34 -26.81,36.67 -59.08,36.95 -193.61,1.68 -972.87,-0.47 -980.48,-0.58 -20.88,-0.33 -50.67,-1.38 -77.44,-2.46 -33.62,-1.35 -55.18,-20.21 -52.31,-41.72 12.31,-92.1 64.69,-375.89 80.99,-393.22 9.67,-10.27 27.64,-16.3 46.57,-16.46 127.88,-1.08 246.62,-0.96 369.75,-1.08 4.23,0 150.17,-1.33 181.94,0 24.82,1.04 336.41,-1.07 359.6,0.89 27.62,2.33 46.46,17.09 48.73,33.52 1.77,12.92 83.59,331.63 81.73,384.16"
         style="fill:#2b2d2d;fill-opacity:1;fill-rule:nonzero;stroke:none"
         id="path46"
         inkscape:connector-curvature="0" /><path
         d="m 2220.35,2472.28 c -187.03,3.27 -374.02,2.15 -561.04,-1.01 -26.05,-0.44 -52.1,-0.93 -78.14,-1.48 -25.89,-0.54 -54.06,0.72 -78.53,-8.84 -10.93,-4.27 -11.7,-19.03 0,-23.04 21.56,-7.42 44.88,-6.13 67.36,-6.04 23.26,0.08 46.52,0.61 69.78,0.86 46.51,0.52 93.03,0.87 139.56,1.05 93.96,0.38 187.95,-0.52 281.92,-1.3 53.03,-0.44 106.06,-0.98 159.09,-1.68 26.71,-0.36 26.7,41.01 0,41.48"
         style="fill:#2b2d2d;fill-opacity:1;fill-rule:nonzero;stroke:none"
         id="path48"
         inkscape:connector-curvature="0" /><path
         d="m 2385.39,2147.82 c -0.18,28.47 -2.69,293.38 -22.78,316.16 -8.43,9.56 -30.34,13.94 -60.32,16.27 -8.14,0.64 -37.44,1.86 -55.71,0.14 -9.6,-0.91 -17.54,-7.84 -19.75,-17.23 -1.05,-4.42 -1.24,-9.31 -2.14,-13.23 -1.17,-5.13 -5.74,-8.73 -11,-8.69 -182.17,1.47 -364.5,2.11 -546.64,0.03 -46.83,-0.54 -94.37,1.06 -141.2,-2.3 -6.35,-0.45 -11.91,4.19 -12.5,10.54 -0.17,1.87 -0.29,3.74 -0.33,5.41 -0.22,8.75 -0.5,19.56 -9.53,19.33 -47.31,-1.19 -124.99,0.38 -138.1,-43.16 -8.25,-27.41 -9.54,-51.58 -12.16,-79.73 -3.08,-33.09 -1.32,-366 8.52,-498.81 2.31,-31.22 -0.35,-70.2 15.85,-98.24 11.69,-20.23 35.13,-26.69 58.09,-26.99 123.54,-1.58 238.87,-1.39 358.31,-1.58 4.24,-0.01 10.34,7.08 13.79,11.73 1.86,2.52 4.7,4.11 7.83,4.29 33.68,1.98 113.81,1.01 137.2,0.45 2.66,-0.07 5.18,-1.13 7.05,-3.02 4.9,-4.96 10.11,-12.47 16.08,-13.45 24.54,-4.02 336.4,-1.74 359.59,1.44 27.62,3.78 46.47,27.67 48.73,54.28 1.78,20.93 2.46,150.97 1.12,366.36"
         style="fill:#e1eeea;fill-opacity:1;fill-rule:nonzero;stroke:none"
         id="path50"
         inkscape:connector-curvature="0" /><path
         d="m 2339.56,2060.12 c -1.42,4.48 -17.18,304.61 -18.07,319.23 -0.18,3.17 -0.3,11.77 -0.37,20.64 -0.1,13.75 -11.2,24.86 -24.94,24.96 -99.89,0.69 -476.04,3.17 -668.23,2.18 -63.58,-0.32 -127.16,-0.45 -190.71,-2.42 -4.82,-0.15 -9.22,-3.69 -9.94,-8.48 -1.15,-1.4 -1.93,-3.21 -2.13,-5.31 -5.88,-60.54 -9.75,-300.58 -13,-361.25 -0.35,-6.47 5.73,-11.82 11.88,-11.88 13.02,-0.14 261.74,2.91 370.27,3.32 113.23,0.42 226.46,0.77 339.71,1.84 64.57,0.61 129.14,1.39 193.71,1.66 7.72,0.03 14.24,7.84 11.82,15.51"
         style="fill:#ffffff;fill-opacity:1;fill-rule:nonzero;stroke:none"
         id="path52"
         inkscape:connector-curvature="0" /><path
         d="m 2051.48,1804.95 c -0.94,31.92 -3.38,61.31 -5.11,93.2 -1.82,33.46 0.31,67.55 -3.66,100.82 -0.81,6.74 -5.49,14 -13.39,13.39 -27.79,-2.16 -58.46,-0.78 -86.32,-0.76 -28.77,0.01 -57.53,-0.13 -86.29,-0.41 -27.91,-0.28 -55.82,-0.7 -83.73,-1.27 -5.48,-0.12 -12.18,-0.87 -18.42,-0.24 -12.29,1.23 -24.84,-4.47 -29.37,-16.92 -4.03,-11.06 -5.8,-138.8 -3.93,-167.51 0.9,-13.88 0.88,-28.28 3,-42.03 1.46,-9.43 6.49,-14.61 16.11,-15.8 13.69,-1.71 35.99,-0.36 49.81,-0.93 15.33,-0.63 30.66,-0.81 46,-1.03 28.96,-0.42 57.92,-0.79 86.89,-1.11 29.81,-0.35 59.63,1.85 89.44,1.79 10.55,-0.02 21.71,0.61 29.81,8.32 8.39,7.98 9.49,19.59 9.16,30.49"
         style="fill:#c0d4ce;fill-opacity:1;fill-rule:nonzero;stroke:none"
         id="path54"
         inkscape:connector-curvature="0" /><path
         d="m 2350.02,2454.5 c -2.98,2.73 -6.64,4.45 -10.76,4.45 -3.9,0 -7.99,-1.69 -10.75,-4.45 -2.91,-2.91 -4.28,-6.72 -4.46,-10.76 -0.18,-4.05 1.8,-7.86 4.46,-10.75 2.73,-2.98 6.72,-4.23 10.63,-4.45 3.47,-0.2 6.67,1.2 9.34,3.26 3.3,2.55 5.16,5.79 5.72,9.92 0.61,4.59 -0.65,9.53 -4.18,12.78"
         style="fill:#b9c7c3;fill-opacity:1;fill-rule:nonzero;stroke:none"
         id="path56"
         inkscape:connector-curvature="0" /><path
         d="m 2228.37,2506.66 c 8.91,1.82 17.58,4.31 25.71,7.46 29.05,11.24 41.08,41.67 50.72,69.07 12.01,34.07 25.52,68.76 33.03,104.13 7.49,35.37 -1.71,70.21 -3.94,105.54 -9.96,7.31 -20.44,13.85 -31.47,19.3 -70.71,0.68 -141.13,-9.87 -211.91,-8.72 -40.95,0.66 -81.23,7.82 -121.97,11.34 -33.84,2.92 -67.79,4.18 -101.75,3.5 -6.2,-0.43 -12.41,-0.65 -18.64,-0.56 -10.54,0.16 -15.1,9.06 -13.77,16.96 -55.73,-0.08 -109.41,-0.18 -157,-0.28 2.43,-6.77 -0.87,-15.29 -10.43,-15.21 -31.62,0.27 -62.71,6.66 -94.38,4.38 -28.82,-2.08 -58.64,-6.47 -87,-12 -37.3,-7.26 -67.29,-30.24 -93.47,-56.84 16.58,-86.93 49.51,-222.76 61.06,-234.26 8.2,-8.15 23.43,-12.95 39.48,-13.07 108.4,-0.86 209.06,-0.76 313.44,-0.85 3.59,-0.01 127.31,-1.06 154.24,0 16.86,0.66 189.91,-0.29 268.05,0.11"
         style="fill:#90dae1;fill-opacity:1;fill-rule:nonzero;stroke:none"
         id="path58"
         inkscape:connector-curvature="0" /><path
         d="m 2097.62,2073.29 -7,65.44 c -0.83,7.6 -7.17,13.38 -14.81,13.45 -37.02,0.36 -143.86,1.27 -230.96,0.88 -74.57,-0.34 -193.53,-1.47 -233.78,-1.86 -7.82,-0.08 -14.26,-6.14 -14.84,-13.94 l -4.94,-66.52 c -0.64,-8.63 6.11,-16.01 14.75,-16.13 40.23,-0.59 146.16,-2.04 193.9,-1.96 62.17,0.11 124.34,0.2 186.52,0.47 25.43,0.12 72.45,2.33 97,3.57 8.61,0.43 15.08,8.02 14.16,16.6"
         style="fill:#191817;fill-opacity:1;fill-rule:nonzero;stroke:none"
         id="path60"
         inkscape:connector-curvature="0" /><path
         d="m 2096.46,2085.74 -7.01,65.45 c -0.82,7.59 -7.16,13.38 -14.8,13.45 -37.02,0.36 -143.86,1.27 -230.96,0.87 -74.57,-0.33 -193.53,-1.47 -233.77,-1.86 -7.83,-0.08 -14.27,-6.14 -14.85,-13.94 l -4.93,-66.52 c -0.64,-8.62 6.1,-16 14.74,-16.13 40.24,-0.58 146.16,-2.04 193.9,-1.95 62.17,0.1 124.34,0.19 186.52,0.47 25.43,0.11 72.45,2.32 96.99,3.57 8.62,0.43 15.08,8.01 14.17,16.59"
         style="fill:#2b2d2d;fill-opacity:1;fill-rule:nonzero;stroke:none"
         id="path62"
         inkscape:connector-curvature="0" /><path
         d="m 2235.05,2123.31 -0.64,23.31 c -0.07,2.7 -0.66,4.76 -1.35,4.79 -3.4,0.12 -13.2,0.45 -21.18,0.3 -6.84,-0.11 -17.75,-0.52 -21.44,-0.66 -0.72,-0.02 -1.31,-2.18 -1.36,-4.96 l -0.46,-23.69 c -0.06,-3.07 0.56,-5.7 1.36,-5.74 3.68,-0.21 13.4,-0.73 17.77,-0.7 5.71,0.04 11.41,0.07 17.11,0.17 2.33,0.04 6.64,0.83 8.89,1.27 0.79,0.15 1.39,2.85 1.3,5.91"
         style="fill:#191817;fill-opacity:1;fill-rule:nonzero;stroke:none"
         id="path64"
         inkscape:connector-curvature="0" /><path
         d="m 2236.05,2067.67 -0.64,23.3 c -0.07,2.71 -0.65,4.77 -1.36,4.79 -3.39,0.13 -13.18,0.46 -21.17,0.31 -6.84,-0.12 -17.74,-0.52 -21.43,-0.66 -0.73,-0.02 -1.31,-2.18 -1.37,-4.96 l -0.45,-23.69 c -0.06,-3.07 0.56,-5.7 1.35,-5.74 3.69,-0.21 13.4,-0.73 17.78,-0.7 5.7,0.04 11.41,0.07 17.1,0.17 2.33,0.04 6.65,0.83 8.9,1.27 0.79,0.15 1.38,2.85 1.29,5.91"
         style="fill:#191817;fill-opacity:1;fill-rule:nonzero;stroke:none"
         id="path66"
         inkscape:connector-curvature="0" /><path
         d="m 2177,2067.67 -0.64,23.3 c -0.07,2.71 -0.66,4.77 -1.36,4.79 -3.39,0.13 -13.18,0.46 -21.17,0.31 -6.84,-0.12 -17.75,-0.52 -21.44,-0.66 -0.72,-0.02 -1.31,-2.18 -1.36,-4.96 l -0.45,-23.69 c -0.06,-3.07 0.55,-5.7 1.34,-5.74 3.7,-0.21 13.41,-0.73 17.79,-0.7 5.7,0.04 11.4,0.07 17.1,0.17 2.33,0.04 6.65,0.83 8.89,1.27 0.79,0.15 1.39,2.85 1.3,5.91"
         style="fill:#191817;fill-opacity:1;fill-rule:nonzero;stroke:none"
         id="path68"
         inkscape:connector-curvature="0" /><path
         d="m 2296.73,2067.67 -0.65,23.3 c -0.06,2.71 -0.65,4.77 -1.35,4.79 -3.39,0.13 -13.2,0.46 -21.18,0.31 -6.84,-0.12 -17.75,-0.52 -21.43,-0.66 -0.72,-0.02 -1.31,-2.18 -1.37,-4.96 l -0.45,-23.69 c -0.06,-3.07 0.56,-5.7 1.35,-5.74 3.69,-0.21 13.41,-0.73 17.78,-0.7 5.71,0.04 11.4,0.07 17.1,0.17 2.34,0.04 6.65,0.83 8.9,1.27 0.79,0.15 1.39,2.85 1.3,5.91"
         style="fill:#191817;fill-opacity:1;fill-rule:nonzero;stroke:none"
         id="path70"
         inkscape:connector-curvature="0" /><path
         d="m 2235.05,2130.33 -0.64,23.31 c -0.07,2.7 -0.66,4.76 -1.35,4.79 -3.4,0.12 -13.2,0.45 -21.18,0.31 -6.84,-0.12 -17.75,-0.52 -21.44,-0.66 -0.72,-0.03 -1.31,-2.19 -1.36,-4.97 l -0.46,-23.69 c -0.06,-3.07 0.56,-5.69 1.36,-5.74 3.68,-0.2 13.4,-0.73 17.77,-0.7 5.71,0.04 11.41,0.08 17.11,0.17 2.33,0.04 6.64,0.83 8.89,1.27 0.79,0.16 1.39,2.86 1.3,5.91"
         style="fill:#2b2d2d;fill-opacity:1;fill-rule:nonzero;stroke:none"
         id="path72"
         inkscape:connector-curvature="0" /><path
         d="m 2236.05,2074.69 -0.64,23.31 c -0.07,2.7 -0.65,4.76 -1.36,4.79 -3.39,0.13 -13.18,0.45 -21.17,0.31 -6.84,-0.12 -17.74,-0.52 -21.43,-0.66 -0.73,-0.03 -1.31,-2.19 -1.37,-4.97 l -0.45,-23.69 c -0.06,-3.07 0.56,-5.69 1.35,-5.74 3.69,-0.21 13.4,-0.73 17.78,-0.7 5.7,0.04 11.41,0.08 17.1,0.17 2.33,0.04 6.65,0.83 8.9,1.27 0.79,0.16 1.38,2.86 1.29,5.91"
         style="fill:#2b2d2d;fill-opacity:1;fill-rule:nonzero;stroke:none"
         id="path74"
         inkscape:connector-curvature="0" /><path
         d="m 2177,2074.69 -0.64,23.31 c -0.07,2.7 -0.66,4.76 -1.36,4.79 -3.39,0.13 -13.18,0.45 -21.17,0.31 -6.84,-0.12 -17.75,-0.52 -21.44,-0.66 -0.72,-0.03 -1.31,-2.19 -1.36,-4.97 l -0.45,-23.69 c -0.06,-3.07 0.55,-5.69 1.34,-5.74 3.7,-0.21 13.41,-0.73 17.79,-0.7 5.7,0.04 11.4,0.08 17.1,0.17 2.33,0.04 6.65,0.83 8.89,1.27 0.79,0.16 1.39,2.86 1.3,5.91"
         style="fill:#2b2d2d;fill-opacity:1;fill-rule:nonzero;stroke:none"
         id="path76"
         inkscape:connector-curvature="0" /><path
         d="m 2296.73,2074.69 -0.65,23.31 c -0.06,2.7 -0.65,4.76 -1.35,4.79 -3.39,0.13 -13.2,0.45 -21.18,0.31 -6.84,-0.12 -17.75,-0.52 -21.43,-0.66 -0.72,-0.03 -1.31,-2.19 -1.37,-4.97 l -0.45,-23.69 c -0.06,-3.07 0.56,-5.69 1.35,-5.74 3.69,-0.21 13.41,-0.73 17.78,-0.7 5.71,0.04 11.4,0.08 17.1,0.17 2.34,0.04 6.65,0.83 8.9,1.27 0.79,0.16 1.39,2.86 1.3,5.91"
         style="fill:#2b2d2d;fill-opacity:1;fill-rule:nonzero;stroke:none"
         id="path78"
         inkscape:connector-curvature="0" /><path
         d="m 2281.57,2301.67 c 9.7,0 17.44,8.05 17.08,17.73 -0.54,14.92 -0.92,29.48 -1.02,31.31 -0.18,2.87 -0.28,10.7 -0.34,18.77 -0.09,12.51 -10.19,22.62 -22.7,22.71 -90.88,0.63 -447.14,-2.74 -622,-3.63 -38.99,-0.2 -117.37,0.96 -164.32,-0.09 -20.97,-0.47 -37.53,-17.91 -36.91,-38.88 0.27,-9.17 0.46,-19.57 0.58,-30.84 0.1,-9.41 7.74,-16.97 17.15,-16.93 106.89,0.52 658.25,-0.1 812.48,-0.15"
         style="fill:#191817;fill-opacity:1;fill-rule:nonzero;stroke:none"
         id="path80"
         inkscape:connector-curvature="0" /><path
         d="m 2304.32,2227.86 c -0.86,12.51 -1.7,22.56 -2.47,33.53 -0.6,8.42 -8.28,14.94 -17.47,14.79 -98.23,-1.63 -516.81,0.83 -606.87,0.77 -9.37,-0.01 -16.99,-6.9 -17.18,-15.49 -0.53,-24.57 -0.61,-39.07 -0.62,-66.74 -0.01,-8.82 7.86,-15.94 17.47,-15.81 155.53,2.13 468.58,6.83 585.22,7.63 24.31,0.17 43.44,19.06 41.92,41.32"
         style="fill:#191817;fill-opacity:1;fill-rule:nonzero;stroke:none"
         id="path82"
         inkscape:connector-curvature="0" /><path
         d="m 1465.4,2153.73 c -8.32,-0.09 -15.06,-6.77 -15.26,-15.09 -0.75,-31.75 -1.59,-57.68 -2.3,-71.03 -0.32,-5.88 5.21,-10.75 10.81,-10.81 3.7,-0.04 40.46,-0.34 79.49,-0.23 19.72,0.06 36.23,14.97 38.29,34.58 1.52,14.54 3.32,30.88 4.96,45.54 1.02,9.14 -6.12,17.14 -15.32,17.14 -26.25,0.02 -74.75,0.15 -100.67,-0.1"
         style="fill:#191817;fill-opacity:1;fill-rule:nonzero;stroke:none"
         id="path84"
         inkscape:connector-curvature="0" /><path
         d="m 1452.07,2263.77 c -0.12,-23.45 -0.42,-48.14 -0.83,-71.83 -0.14,-7.73 6.68,-14.03 15.1,-13.97 35.62,0.25 118.12,0.27 152.03,0.32 8.16,0.01 14.8,6 14.98,13.48 0.59,24.18 0.99,47.19 2.47,71.23 0.49,7.99 -6.46,14.7 -15.18,14.59 -32.61,-0.42 -106.36,-1.06 -153.26,-0.13 -8.38,0.16 -15.28,-6 -15.31,-13.69"
         style="fill:#191817;fill-opacity:1;fill-rule:nonzero;stroke:none"
         id="path86"
         inkscape:connector-curvature="0" /><path
         d="m 2280.8,2311.46 c 9.69,0 17.44,8.05 17.08,17.73 -0.55,14.92 -0.92,29.48 -1.02,31.31 -0.18,2.87 -0.28,10.7 -0.35,18.77 -0.08,12.51 -10.18,22.62 -22.69,22.71 -90.88,0.63 -447.15,-2.74 -622.01,-3.63 -38.99,-0.2 -117.36,0.96 -164.31,-0.09 -20.97,-0.47 -37.53,-17.91 -36.91,-38.88 0.26,-9.17 0.45,-19.57 0.58,-30.84 0.1,-9.41 7.74,-16.97 17.15,-16.93 106.88,0.52 658.25,-0.1 812.48,-0.15"
         style="fill:#2b2d2d;fill-opacity:1;fill-rule:nonzero;stroke:none"
         id="path88"
         inkscape:connector-curvature="0" /><path
         d="m 2303.54,2236.84 c -0.85,12.51 -1.69,22.57 -2.47,33.53 -0.59,8.42 -8.27,14.94 -17.46,14.79 -98.23,-1.63 -516.81,0.83 -606.87,0.77 -9.37,-0.01 -16.99,-6.9 -17.18,-15.5 -0.53,-24.56 -0.61,-39.06 -0.62,-66.73 -0.01,-8.82 7.86,-15.94 17.47,-15.8 155.52,2.11 468.58,6.82 585.22,7.62 24.31,0.17 43.44,19.06 41.91,41.32"
         style="fill:#2b2d2d;fill-opacity:1;fill-rule:nonzero;stroke:none"
         id="path90"
         inkscape:connector-curvature="0" /><path
         d="m 1464.62,2163.52 c -8.31,-0.09 -15.06,-6.77 -15.25,-15.09 -0.75,-31.75 -1.59,-57.68 -2.3,-71.03 -0.32,-5.88 5.21,-10.75 10.81,-10.81 3.7,-0.04 40.45,-0.34 79.48,-0.23 19.73,0.06 36.23,14.97 38.29,34.58 1.53,14.54 3.33,30.88 4.97,45.54 1.02,9.14 -6.12,17.14 -15.32,17.14 -26.25,0.02 -74.75,0.15 -100.68,-0.1"
         style="fill:#2b2d2d;fill-opacity:1;fill-rule:nonzero;stroke:none"
         id="path92"
         inkscape:connector-curvature="0" /><path
         d="m 1451.29,2272.75 c -0.11,-23.45 -0.41,-48.14 -0.83,-71.83 -0.13,-7.73 6.68,-14.03 15.11,-13.97 35.61,0.25 118.12,0.27 152.03,0.32 8.15,0.01 14.8,6 14.98,13.48 0.58,24.18 0.98,47.19 2.46,71.24 0.49,7.98 -6.45,14.69 -15.17,14.58 -32.61,-0.42 -106.37,-1.06 -153.27,-0.13 -8.38,0.16 -15.27,-6 -15.31,-13.69"
         style="fill:#2b2d2d;fill-opacity:1;fill-rule:nonzero;stroke:none"
         id="path94"
         inkscape:connector-curvature="0" /><path
         d="m 2370.57,2850.71 c -75.8,2.89 -151.66,4.32 -227.52,4.18 -37.01,-0.07 -74,-1.96 -111,-1.34 -34.32,0.57 -56.25,3.29 -88.01,-0.35 -0.73,4.52 -3.54,8.9 -7.93,11.3 -7.11,3.87 -17.45,2.82 -25.14,3.01 0,0 -72.17,-0.41 -84.5,-0.96 -6.74,-0.3 -13.8,-1.59 -18.72,-6.68 -3.86,-4 -5.27,-9.12 -4.54,-13.78 -11.36,-0.05 -22.79,0.96 -34.11,1.35 -19.44,0.65 -38.88,1.12 -58.32,1.49 -37.95,0.7 -75.92,0.76 -113.88,0.45 -75.91,-0.62 -151.81,-3.06 -227.62,-7.16 -5.41,-0.3 -9.58,-5.14 -8.09,-10.63 8.57,-31.68 17.17,-63.36 25.71,-95.05 2.79,-10.35 18.68,-5.99 16.06,4.43 -8.96,35.78 13.06,70.26 48.13,77.15 2.82,0.38 5.64,0.75 8.47,1.12 5.79,0.77 8.54,6.16 7.9,10.62 44.99,1.6 89.99,2.6 135,2.96 37.96,0.3 75.92,0.1 113.88,-0.34 19.44,-0.23 38.87,-0.57 58.31,-0.97 18.25,-0.37 35.71,-2.89 52.8,4.19 1.74,0.72 2.92,1.87 3.6,3.17 5.91,0.33 13.23,0.17 15.12,0.31 7.37,0.55 14.73,1.12 22.1,1.7 3.54,0.28 39.18,2.1 38.94,1.44 -2.2,-6.28 6.73,-11.24 11.12,-6.47 0.03,0.03 0.05,0.07 0.07,0.1 0.81,-0.47 1.7,-0.79 2.7,-0.88 36.43,-3.38 74.36,0.99 110.95,1.75 37.92,0.8 75.85,1.23 113.78,1.28 15.01,0.02 30.02,-0.06 45.03,-0.16 1.35,-1.56 3.32,-2.68 5.92,-2.89 30.27,-2.41 60.11,-8.09 89.08,-17.29 24.21,-7.68 68.76,-21.22 62.37,-54.83 -2,-10.55 12.81,-14.84 16.19,-4.47 8.87,27.22 13.67,55.25 14.54,83.86 0.14,4.66 -3.96,8.23 -8.39,8.39"
         style="fill:#3867fa;fill-opacity:1;fill-rule:nonzero;stroke:none"
         id="path96"
         inkscape:connector-curvature="0" /><path
         d="m 1916.2,2526.13 c -25.95,1.41 -51.83,1.24 -77.76,-0.52 -4.41,-0.3 -6.6,-39.99 -2.57,-39.79 22.53,1.12 45.07,2.23 67.6,3.35 3.33,0.16 19.09,36.62 12.73,36.96"
         style="fill:#3867fa;fill-opacity:1;fill-rule:nonzero;stroke:none"
         id="path98"
         inkscape:connector-curvature="0" /><path
         d="m 1872.15,2531.75 c 0.18,-18.58 3.89,-36.15 20.17,-46.85 16.51,-10.85 37.74,-12.45 56.9,-13.39 51.69,-2.55 103.03,7.03 153.91,14.77 27.43,4.17 54.99,7.9 82.75,8.99 24.41,0.96 49.7,-4.44 73.85,-1.68 20.2,2.3 32.61,14.7 40.9,32.53 10.59,22.8 18.8,47.03 26.67,70.88 15.55,47.08 37.85,123.06 41.48,143.59 11.54,65.26 -212.85,42.41 -312.49,49.63 -28.97,2.1 -57.59,7.11 -86.08,12.55 -22.78,4.34 -48.25,13.18 -71.55,12.37 -19.51,-0.69 -25.84,-2.7 -26.07,-19.78 -0.39,-28.49 -0.97,-207.98 -0.44,-263.61"
         style="fill:#edf0ef;fill-opacity:1;fill-rule:nonzero;stroke:none"
         id="path100"
         inkscape:connector-curvature="0" /><path
         d="m 1872.5,2796.76 c -0.24,17.08 -6.27,18.42 -25.78,19.1 -23.3,0.81 -48.77,-8.02 -71.54,-12.37 -28.5,-5.43 -57.12,-10.45 -86.08,-12.55 -99.65,-7.21 -318.82,15.78 -307.28,-49.48 3.63,-20.53 20.7,-96.66 36.25,-143.74 7.88,-23.84 16.09,-48.08 26.68,-70.88 8.28,-17.83 20.7,-30.22 40.9,-32.52 24.15,-2.76 49.44,2.63 73.86,1.68 27.75,-1.09 55.31,-4.82 82.75,-9 50.87,-7.74 102.21,-17.31 153.9,-14.77 19.17,0.95 40.39,2.54 56.9,13.39 16.28,10.71 19.35,28.14 19.53,46.71 0.53,55.64 0.3,235.94 -0.09,264.43"
         style="fill:#ffffff;fill-opacity:1;fill-rule:nonzero;stroke:none"
         id="path102"
         inkscape:connector-curvature="0" /><path
         d="m 2268.66,2708.88 c -29.56,4.39 -61.06,2.53 -90.89,1.93 -30.29,-0.6 -60.58,-2.43 -90.61,-6.61 -30.45,-4.23 -59.5,-12.29 -89.12,-20.24 -33.79,-9.07 -62.96,-9.5 -94.32,7 -1.82,0.95 -3.58,-1.31 -2.18,-2.83 17.07,-18.59 46.26,-21.05 69.9,-18.36 31.38,3.56 61.39,15 92.41,20.72 33.24,6.14 66.96,8.97 100.72,10.04 34.07,1.09 69.22,-2.74 103.07,0.72 3.94,0.41 5.72,6.94 1.02,7.63"
         style="fill:#ffffff;fill-opacity:1;fill-rule:nonzero;stroke:none"
         id="path104"
         inkscape:connector-curvature="0" /><path
         d="m 2256.7,2664.52 c -53.89,13.67 -116.04,7.31 -169.58,-4.82 -28.19,-6.38 -56.02,-14.81 -84.66,-19.07 -15.32,-2.27 -30.88,-3.4 -46.37,-2.55 -16.42,0.89 -31.74,5.68 -47.83,8.26 -2.07,0.33 -3.17,-2.11 -1.42,-3.37 20.95,-15.06 52.13,-15.57 76.88,-13.81 29.03,2.06 57.3,9.38 85.49,16.23 30.36,7.38 60.75,13.18 92.02,14.91 31.95,1.78 62.57,-2.33 94.29,-4.53 5.05,-0.35 6,7.53 1.18,8.75"
         style="fill:#ffffff;fill-opacity:1;fill-rule:nonzero;stroke:none"
         id="path106"
         inkscape:connector-curvature="0" /><path
         d="m 2071.72,2613.72 c -28.13,-6.88 -55.2,-15.42 -84.37,-17.05 -28.42,-1.59 -52.56,5.8 -79.68,12.34 -2,0.48 -2.88,-2.04 -1.33,-3.17 21.25,-15.64 52.94,-17.9 78.52,-17.04 29.86,0.99 60.84,7.33 88.91,17.47 4.63,1.67 2.84,8.65 -2.05,7.45"
         style="fill:#ffffff;fill-opacity:1;fill-rule:nonzero;stroke:none"
         id="path108"
         inkscape:connector-curvature="0" /><path
         d="m 2135,2568.93 c -16.42,3.12 -34.33,-0.14 -50.72,-2.63 -20.6,-3.14 -40.94,-7.73 -61.49,-11.22 -18.59,-3.16 -37.43,-5.19 -56.32,-4.45 -19.8,0.78 -37.36,6.53 -56.28,11.5 -1.27,0.34 -2.57,-1.46 -1.39,-2.38 26.9,-20.93 68.74,-19.05 100.67,-15.2 19.64,2.37 39.02,6.36 58.49,9.82 22.33,3.96 44.8,3.98 67.04,7.19 3.73,0.54 3.57,6.69 0,7.37"
         style="fill:#ffffff;fill-opacity:1;fill-rule:nonzero;stroke:none"
         id="path110"
         inkscape:connector-curvature="0" /><path
         d="m 1458.64,2822.67 c -15.17,0.39 -30.44,-0.59 -45.6,-1.05 -8.42,-0.25 -22.97,2.02 -29.88,-4.35 -4.33,-4 -3.71,-9.27 -2.92,-14.61 1.64,-11.15 4.05,-23.09 7.95,-33.98 0.12,-0.5 0.87,-2.88 1.29,-3.42 0.46,-1.15 0.91,-2.31 1.41,-3.43 0.85,-1.92 3.7,1.45 3.71,1.68 1.87,0.36 57.93,49.2 64.04,49.68 6.02,0.46 6.17,9.32 0,9.48"
         style="fill:#2b54f9;fill-opacity:1;fill-rule:nonzero;stroke:none"
         id="path112"
         inkscape:connector-curvature="0" /><path
         d="m 2362.23,2811.69 c -0.31,5.51 0.07,11.23 -5.18,14.32 -6.41,3.76 -17.49,2.15 -24.65,2.61 -8.1,0.52 -16.21,1.16 -24.32,1.35 -3.01,0.65 -6.03,1.29 -9.03,1.95 -2.46,0.54 -4.52,-0.7 -5.57,-2.49 -1.08,-0.65 -1.45,-2.16 -0.74,-3.09 0.14,-1.36 0.88,-2.68 2.45,-3.59 23.35,-13.5 41.59,-31.15 58.35,-52.06 2.73,-3.41 7.66,-0.31 7.91,3.27 0.85,12.53 1.46,25.17 0.78,37.73"
         style="fill:#2b54f9;fill-opacity:1;fill-rule:nonzero;stroke:none"
         id="path114"
         inkscape:connector-curvature="0" /><path
         d="m 1923.25,2748 c 44.25,-16.29 94.27,-15.17 139.83,-8.4 96.48,14.36 206.91,57.8 296.5,-2.75 3.34,-2.27 8.24,0.02 9.2,3.74 9.11,35.49 -42.38,94.31 -94.98,95.67 -26.18,0.69 -52.37,0.67 -78.56,1.02 -104.73,1.41 -205.76,1.24 -310.5,2.85 -4.41,0.07 -7.44,-3.61 -7.72,-7.72 -0.45,-6.64 -1.99,-66.67 46.23,-84.41"
         style="fill:#a3b8b2;fill-opacity:1;fill-rule:nonzero;stroke:none"
         id="path116"
         inkscape:connector-curvature="0" /><path
         d="m 1873.79,2832.41 c -0.28,4.11 -3.31,7.79 -7.72,7.72 -104.74,-1.61 -205.77,-1.44 -310.51,-2.85 -26.18,-0.35 -52.37,-0.33 -78.55,-1.02 -52.59,-1.36 -104.09,-60.18 -94.97,-95.67 0.95,-3.72 5.85,-6.01 9.2,-3.74 89.58,60.55 200.01,17.11 296.5,2.75 45.56,-6.77 95.57,-7.89 139.82,8.4 48.22,17.74 46.68,77.77 46.23,84.41"
         style="fill:#c8e0da;fill-opacity:1;fill-rule:nonzero;stroke:none"
         id="path118"
         inkscape:connector-curvature="0" /><path
         d="m 1925.42,2844.18 c -36.52,-0.49 -73.04,-0.99 -109.56,-1.39 -4.4,-0.05 -5.03,-4.68 -2.41,-8.9 4.59,-7.37 20.66,-39.52 58.02,-39.52 25.43,0 54.56,16.87 58.43,43.94 0.41,2.89 -1.15,5.92 -4.48,5.87"
         style="fill:#1739f6;fill-opacity:1;fill-rule:nonzero;stroke:none"
         id="path120"
         inkscape:connector-curvature="0" /><path
         d="m 1697.37,2698.63 c -47.84,-15.26 -94.02,-3.66 -141.72,5.92 -38.17,7.66 -80.78,13.84 -116.94,-4.55 -1.75,-0.89 -0.53,-3.66 1.31,-3.13 45.71,13.01 89.76,4.61 135.24,-5.04 40.17,-8.53 84.79,-16.99 124.24,-0.94 4.65,1.89 2.92,9.35 -2.13,7.74"
         style="fill:#3867fa;fill-opacity:1;fill-rule:nonzero;stroke:none"
         id="path122"
         inkscape:connector-curvature="0" /><path
         d="m 1524.06,2668.45 c -12.63,4.86 -28.35,3.89 -41.67,3.15 -11.77,-0.67 -25.21,-0.98 -35.82,-6.46 -0.82,-0.43 -0.69,-1.88 0.26,-2.05 11.58,-2.1 23.79,0.18 35.56,0.09 13.37,-0.1 27.6,-2.95 40.78,-1.28 3.73,0.47 4.54,5.15 0.89,6.55"
         style="fill:#3867fa;fill-opacity:1;fill-rule:nonzero;stroke:none"
         id="path124"
         inkscape:connector-curvature="0" /><path
         d="m 1918.61,2845.96 c -18.78,0 -33.44,0.83 -49.85,1.03 -14.82,0.19 -28.45,0 -45.65,-1.25 -4.64,-0.33 -2.02,-7.8 -0.25,-11.06 11.16,-20.64 28.48,-27.81 50.45,-26.53 22.48,1.31 42.21,8.37 49.79,29.11 0.95,2.59 2.78,8.7 -4.49,8.7"
         style="fill:#2b54f9;fill-opacity:1;fill-rule:nonzero;stroke:none"
         id="path126"
         inkscape:connector-curvature="0" /><path
         d="m 2988.02,1832.37 c -7.31,14.93 -21.68,34.57 -39.35,36.4 -2.58,0.27 -4.8,-1.93 -5.47,-4.41 -1.8,-2.04 -2.75,-4.88 -1.93,-8.32 9.64,-40.57 -1,-79.92 -9.57,-119.46 -9.32,3.64 -19.22,6.08 -28.62,9.29 -11.28,3.85 -22.43,9.01 -32.57,15.54 -23.12,14.87 -36.14,41.3 -34.88,68.77 0.76,16.34 16.75,131.87 -57.43,206.23 -10.29,10.32 -38.27,27.97 -52.22,28 -19.8,0.06 -37.44,-16.24 -33.11,-36.76 4.19,-19.88 25.04,-33.41 35.44,-49.98 12.5,-19.91 20.04,-42.4 23.78,-65.52 4.15,-25.71 3.22,-52.12 0.37,-77.92 -2.85,-25.73 -6.42,-52.48 -13.04,-77.55 -3.04,-11.52 -17.54,-33.51 -30.68,-33.09 -4.52,0.15 -22.06,-3.44 -34.97,18.65 -1.84,-7.69 -41.71,-125.42 -41.71,-147.78 23.98,-54.55 40.86,-82.35 43.17,-92.06 12.45,-52.2 -24.05,-92.02 -14.98,-144.11 6.55,-37.53 109.11,-96.82 177.24,-36.51 37.1,32.83 61.28,136.41 71.64,157.37 66.85,135.17 74.23,197.47 78.66,214.35 6,22.87 9.95,56.85 10.93,80.53 0.82,20.05 -1.82,40.17 -10.7,58.34"
         style="fill:#f7d0b8;fill-opacity:1;fill-rule:nonzero;stroke:none"
         id="path128"
         inkscape:connector-curvature="0" /><path
         d="m 2959.59,1780.23 c 2.55,20.91 6.1,42.9 2.7,63.94 -6.31,39.1 -10.82,70.71 -43.71,95.46 -24.6,18.51 -36.6,7.49 -37.41,5.94 -2.88,-2.66 -4.39,-6.86 -2.34,-11.48 18.79,-42.33 23.6,-89.32 11.83,-133.04 -4.71,-17.54 -12.51,-36.23 -3.29,-54.34 8.48,-16.67 27.56,-23.2 44.3,-15.83 19.71,8.69 25.53,29.74 27.92,49.35"
         style="fill:#e1ae99;fill-opacity:1;fill-rule:nonzero;stroke:none"
         id="path130"
         inkscape:connector-curvature="0" /><path
         d="m 2910.63,1799.85 c 6.3,36.37 4.97,79.09 -7.55,114.83 -11.87,33.88 -31.96,67.75 -64.76,81.57 -11.24,4.73 -28.43,-2.02 -23.44,-12.95 18,-39.36 19.35,-80.92 18.9,-121.99 -0.24,-22.16 -1.05,-44.34 0.26,-66.54 0.96,-16.22 3.62,-34.71 19.2,-44.42 33.14,-20.64 53.32,25.99 57.39,49.5"
         style="fill:#edbda5;fill-opacity:1;fill-rule:nonzero;stroke:none"
         id="path132"
         inkscape:connector-curvature="0" /><path
         d="m 2664.3,1581.14 c 33.41,5.03 52.19,37.79 52.93,69.15 0.8,34.11 -21.38,54.18 -37.85,81.99 -29.35,49.6 -27.69,80.5 -24.02,92.08 3.67,11.58 6.46,45.51 0.7,62.14 -4.99,14.43 -20.37,20.63 -34.33,15.35 -12.79,-4.83 -28.61,-18.4 -37.66,-62.57 -18.76,-91.58 11.28,-176.38 44.54,-239.5 6.47,-12.27 19.5,-20.08 33.31,-18.91 0.79,0.06 1.58,0.16 2.38,0.27"
         style="fill:#edba8b;fill-opacity:1;fill-rule:nonzero;stroke:none"
         id="path134"
         inkscape:connector-curvature="0" /><path
         d="m 2647.62,1884.76 c -1.76,4.04 -7.9,13.87 -21.25,16.64 -2.03,0.43 -7.38,0.27 -9.6,-0.02 -4.53,-0.6 -8.03,-4.27 -11.84,-9.07 -2.17,-2.72 -4.09,-5.62 -5.8,-8.63 -5.46,-7.82 -9.15,-16.88 -10.62,-26.62 -1.17,-7.61 -1.61,-16.73 3.3,-23.22 4.64,-6.15 12.44,-6.95 19.39,-4.77 16.56,5.21 29.24,22.31 34.67,38.08 1.76,5.13 4.24,11.88 1.75,17.61"
         style="fill:#efc9bf;fill-opacity:1;fill-rule:nonzero;stroke:none"
         id="path136"
         inkscape:connector-curvature="0" /><path
         d="m 2602.46,1866.19 c -4.21,0.92 -11.52,1.95 -12.71,-3.02 -2.01,-8.28 -2.79,-12.49 -2.23,-17.95 0.81,-7.93 1.96,-12.96 10,-16.08 6.59,-2.55 14.59,-0.55 20.5,2.34 4.65,2.28 10.9,6.6 12.16,12.32 2.83,12.8 -17.71,20.22 -27.72,22.39"
         style="fill:#ffffff;fill-opacity:1;fill-rule:nonzero;stroke:none"
         id="path138"
         inkscape:connector-curvature="0" /><path
         d="m 2634.02,1899.35 c -6.91,3.22 -17.89,4.68 -23.81,-1.19 -0.66,-0.64 -1.54,-1.51 -1.54,-1.51 0,0 10.21,3.58 21.77,-1.64 13.99,-6.32 16.08,-25.96 16.08,-25.96 0,0 2.19,5.95 2.15,11.13 -0.07,9.25 -6.2,15.22 -14.65,19.17"
         style="fill:#ffffff;fill-opacity:1;fill-rule:nonzero;stroke:none"
         id="path140"
         inkscape:connector-curvature="0" /><path
         d="m 2620.69,1827.8 c -6.19,-2.28 -11.84,-5.55 -18.65,-5.57 -8.04,-0.02 -14.23,4.17 -16.59,11.91 -0.25,0.83 -1.48,0.66 -1.5,-0.2 -0.79,-20.43 27.25,-16.28 38.03,-9.19 1.49,0.98 0.59,3.74 -1.29,3.05"
         style="fill:#d19c77;fill-opacity:1;fill-rule:nonzero;stroke:none"
         id="path142"
         inkscape:connector-curvature="0" /><path
         d="m 2618.62,1770.81 c -10.33,2.2 -27.77,7.59 -36.39,-1.27 -0.69,-0.69 0.01,-1.81 0.92,-1.59 5.33,1.22 10.04,2.35 15.6,1.87 6.31,-0.53 12.52,-2.1 18.79,-2.96 2.53,-0.36 3.73,3.38 1.08,3.95"
         style="fill:#d19c77;fill-opacity:1;fill-rule:nonzero;stroke:none"
         id="path144"
         inkscape:connector-curvature="0" /><path
         d="m 2605.29,1761.68 c -2.89,1.48 -6.66,1.42 -9.85,1.21 -2.82,-0.18 -6.35,-0.41 -8.29,-2.69 -0.47,-0.55 -0.26,-1.24 0.39,-1.51 2.46,-0.98 5.31,-0.19 7.9,-0.13 2.96,0.07 5.99,-0.72 8.9,-0.42 1.7,0.18 2.8,2.59 0.95,3.54"
         style="fill:#d19c77;fill-opacity:1;fill-rule:nonzero;stroke:none"
         id="path146"
         inkscape:connector-curvature="0" /><path
         d="m 2778.23,2036.34 c -5.48,6.58 -14.54,12 -21.67,16.58 -8.25,5.3 -16.76,10.31 -25.99,13.61 -3,1.07 -15.8,-7.14 -18.11,-12.73 -2.58,-6.25 2.69,-12.2 6.73,-16.39 10.78,-11.17 25.85,-17.86 41.34,-18.6 5.88,-0.29 13.21,-0.08 17.47,4.67 3.48,3.89 3.53,8.9 0.23,12.86"
         style="fill:#efc9bf;fill-opacity:1;fill-rule:nonzero;stroke:none"
         id="path148"
         inkscape:connector-curvature="0" /><path
         d="m 2730.42,2066.63 c -4.73,0.58 -8.82,-2.99 -12.13,-5.93 -4.29,-3.79 -6.51,-6.84 -6.9,-9.19 -0.55,-3.21 1.7,-6.17 1.7,-6.17 0,0 5.09,8.47 9.13,12.14 3.29,2.99 10.69,8.17 10.69,8.17 0,0 -1.79,0.89 -2.49,0.98"
         style="fill:#ffffff;fill-opacity:1;fill-rule:nonzero;stroke:none"
         id="path150"
         inkscape:connector-curvature="0" /><path
         d="m 2780.05,2033.46 c -1.4,4.65 -6.44,8.04 -10,10.93 -4.42,3.58 -9.16,5.71 -14.29,9.13 -0.63,0.42 -1.75,1.02 -1.75,1.02 0,0 -11.17,-13.53 -8.57,-33.09 0,0 13.08,-4.23 23.78,-2.81 7.4,0.98 13.35,6.4 10.83,14.82"
         style="fill:#ffffff;fill-opacity:1;fill-rule:nonzero;stroke:none"
         id="path152"
         inkscape:connector-curvature="0" /><path
         d="m 2783.51,2023.08 c -5.42,-17.4 -23.2,-10.74 -36.13,-9.48 -0.85,0.08 -1.13,-1.2 -0.43,-1.58 12.2,-6.5 36.48,-7.59 39.46,10.26 0.31,1.88 -2.32,2.68 -2.9,0.8"
         style="fill:#e0aa82;fill-opacity:1;fill-rule:nonzero;stroke:none"
         id="path154"
         inkscape:connector-curvature="0" /><path
         d="m 2829.16,1926.13 c -9.49,1.75 -21.64,-1.66 -29.66,-6.78 -1,-0.65 -0.37,-2.53 0.87,-2.06 4.34,1.7 8.52,3.55 13.07,4.6 5.1,1.18 10.24,1.06 15.38,1.74 1.28,0.18 1.9,2.22 0.34,2.5"
         style="fill:#e0aa82;fill-opacity:1;fill-rule:nonzero;stroke:none"
         id="path156"
         inkscape:connector-curvature="0" /><path
         d="m 2826.01,1915.1 c -5.42,0.4 -11.31,-0.48 -15.97,-3.43 -0.85,-0.54 -0.3,-1.86 0.68,-1.62 5.16,1.2 9.95,2.19 15.29,1.92 2.02,-0.1 1.98,2.97 0,3.13"
         style="fill:#e0aa82;fill-opacity:1;fill-rule:nonzero;stroke:none"
         id="path158"
         inkscape:connector-curvature="0" /><path
         d="m 2897.66,1912.71 c -7.61,3.4 -16.82,2.78 -24.27,-0.66 -0.94,-0.43 -0.27,-1.88 0.68,-1.63 7.9,2.15 14.7,1.67 22.55,-0.19 1.41,-0.33 2.49,1.82 1.04,2.48"
         style="fill:#e0aa82;fill-opacity:1;fill-rule:nonzero;stroke:none"
         id="path160"
         inkscape:connector-curvature="0" /><path
         d="m 2900.51,1902.94 c -4.72,2.18 -10.92,2.01 -15.82,0.5 -1.31,-0.41 -1.15,-2.71 0.34,-2.52 2.48,0.29 4.91,0.58 7.41,0.43 2.48,-0.15 4.87,-0.78 7.34,-1.09 1.4,-0.17 1.98,2.1 0.73,2.68"
         style="fill:#e0aa82;fill-opacity:1;fill-rule:nonzero;stroke:none"
         id="path162"
         inkscape:connector-curvature="0" /><path
         d="m 2949.61,1892.28 c -6.76,3.16 -16.7,5.21 -24.1,3.69 -0.86,-0.18 -0.82,-1.49 0,-1.69 3.77,-0.96 7.73,-1.04 11.57,-1.73 3.89,-0.69 7.62,-1.98 11.47,-2.78 1.43,-0.31 2.55,1.8 1.06,2.51"
         style="fill:#d19c77;fill-opacity:1;fill-rule:nonzero;stroke:none"
         id="path164"
         inkscape:connector-curvature="0" /><path
         d="m 2947.92,1884.15 c -4.7,1.08 -10.36,1.3 -15.14,0.92 -0.93,-0.07 -1.2,-1.4 -0.23,-1.68 4.58,-1.34 10.18,-2.31 14.97,-2.19 1.64,0.04 2.1,2.56 0.4,2.95"
         style="fill:#d19c77;fill-opacity:1;fill-rule:nonzero;stroke:none"
         id="path166"
         inkscape:connector-curvature="0" /><path
         d="m 1574.4,987.031 c 15.98,20.109 74.68,87.539 98.39,98.859 12.92,6.17 -134.02,309.55 -142.4,310.29 -41.63,3.7 -84.16,-16 -119.66,-35.77 -41.26,-22.96 -191.68,-112.84 -241.7,-292.7 -20,-71.921 18.17,-149.21 79.94,-193.23 27.67,-19.71 84.34,-39.539 118.53,-39.75 40.67,-0.261 77.98,16.711 109.34,41.77 38.7,30.93 67.03,72.102 97.56,110.531"
         style="fill:#3f9ec4;fill-opacity:1;fill-rule:nonzero;stroke:none"
         id="path168"
         inkscape:connector-curvature="0" /><path
         d="m 1709.99,1123.84 c 13.38,25.73 8.8,58.28 -5.68,86.05 -12.75,24.47 -75.84,143.7 -81.63,150.54 -36.05,42.52 -100.9,47.77 -150.41,23.36 -35.39,-17.46 -67.97,-60.48 -77.7,-95.43 -24.52,-88.01 34.17,-175.92 116.88,-211.22 40.75,-17.39 86.87,-25.51 128.84,-11.07 28.96,9.97 55.43,30.35 69.7,57.77"
         style="fill:#388cb6;fill-opacity:1;fill-rule:nonzero;stroke:none"
         id="path170"
         inkscape:connector-curvature="0" /><path
         d="m 1699.05,1189.72 c 1.32,31.97 -13.18,62.41 -29.71,88.88 -19.25,30.81 -42.92,60.5 -76.67,76.04 -31.29,14.4 -70.89,15.26 -98.93,-6.89 -13.18,-10.41 -36.75,-31.97 -41.95,-83.38 -3.44,-34.05 14.29,-66.91 33.46,-93.77 19.49,-27.31 46.59,-51 78.85,-61.59 57.91,-19.02 132.19,14.3 134.95,80.71"
         style="fill:#24597e;fill-opacity:1;fill-rule:nonzero;stroke:none"
         id="path172"
         inkscape:connector-curvature="0" /><path
         d="m 1837.01,1249.43 c 7.54,26.88 15.95,53.5 25.31,79.79 9.36,26.34 20.25,51.96 30.65,77.88 0.82,2.04 -0.82,3.41 -2.51,3.39 -0.13,0.18 -0.28,0.37 -0.42,0.55 2.98,1.13 5.93,2.21 8.83,3.27 1.33,0.48 0.59,2.8 -0.78,2.38 -19.43,-6.01 -38.44,-11.3 -55.73,-22.55 -14.04,-9.14 -25.99,-21.46 -32.94,-36.85 -6.97,-15.45 -6.5,-31.59 -1.33,-47.5 6.69,-20.58 15.74,-40.57 23.74,-60.67 0.89,-2.25 4.54,-1.97 5.18,0.31"
         style="fill:#e1ae99;fill-opacity:1;fill-rule:nonzero;stroke:none"
         id="path174"
         inkscape:connector-curvature="0" /><path
         d="m 2181.73,1406.25 c 8.33,43.82 -41.39,85.55 -84.72,101.77 -48.81,18.28 -93.47,24.82 -144.98,20.99 -107.84,-7.99 -212.16,-51.3 -301.17,-111.44 -2.72,-1.84 -54.93,-38.24 -76.78,-57.05 -19.78,-17.02 -38.72,-35.06 -56.58,-54.09 -13.41,-14.29 -32.63,-31.1 -39.99,-49.49 -16.61,-41.48 -12.03,-74.75 31.69,-114.05 53.06,-47.67 96.04,-43.61 110.86,-32.08 13.18,10.26 28.7,36.99 42.92,44.63 21.43,11.52 37.54,23.87 60.38,15.49 6.89,-2.54 13.79,-5.06 20.67,-7.6 22.59,-8.32 71.42,-10.62 91.8,6.01 45.27,36.96 -33.45,107.72 -19.37,155.42 9.14,30.98 67.33,119.33 178.84,100.7 58.66,-9.82 135.91,-38.41 172.72,-30.92 1.67,0.34 11.62,0.67 13.71,11.71"
         style="fill:#f7d0b8;fill-opacity:1;fill-rule:nonzero;stroke:none"
         id="path176"
         inkscape:connector-curvature="0" /><path
         d="m 2187.83,1419.96 c -0.23,7.45 -4.13,14.33 -8.14,20.38 -14.78,22.31 -24.79,31.75 -29,34.45 -0.52,0.33 -12.37,8.8 -13.04,8.29 -14.09,-10.65 -5.27,-31.81 1.74,-43.76 7.5,-12.79 20.97,-29.7 37.63,-27.73 5.99,0.71 11.02,1.56 10.81,8.37"
         style="fill:#efc9bf;fill-opacity:1;fill-rule:nonzero;stroke:none"
         id="path178"
         inkscape:connector-curvature="0" /><path
         d="m 2158.41,1467.92 c -3.54,3.59 -15.82,15.62 -18.93,15.74 -5.78,0.21 -8.6,-9.73 -9.19,-14.1 -0.65,-4.96 -0.39,-14.94 6.36,-15.58 7.69,-0.72 17.36,6.03 22.8,10.81 1.36,1.18 -0.06,2.13 -1.04,3.13"
         style="fill:#ffffff;fill-opacity:1;fill-rule:nonzero;stroke:none"
         id="path180"
         inkscape:connector-curvature="0" /><path
         d="m 2186.76,1414.75 c 1.52,1.33 0.98,6.6 0.98,6.6 0,0 -5.88,-3.45 -8.96,-3.98 -2.84,-0.49 -5.73,-0.6 -8.57,-0.11 -2.44,0.42 -4.83,1.12 -7.03,2.26 -2.33,1.21 -4.24,3.12 -6.66,4.12 -0.82,0.34 -1.98,-0.32 -1.62,-1.32 3.74,-10.35 23.93,-14.58 31.86,-7.57"
         style="fill:#ffffff;fill-opacity:1;fill-rule:nonzero;stroke:none"
         id="path182"
         inkscape:connector-curvature="0" /><path
         d="m 1714.95,1264.98 c 24.22,23.56 61.66,18.7 87.08,0.3 27.64,-19.99 30.21,-49.79 42.39,-79.71 21.74,-53.4 47.35,-70.77 58.78,-74.85 11.44,-4.08 40.15,-22.39 49.91,-37.03 8.47,-12.69 4.11,-28.7 -8.55,-36.63 -11.59,-7.26 -31.97,-11.64 -72.61,7.87 -84.26,40.47 -133.61,115.69 -163.75,180.36 -5.85,12.57 -4.2,27.68 5.09,37.96 0.53,0.59 1.09,1.16 1.66,1.73"
         style="fill:#edba8b;fill-opacity:1;fill-rule:nonzero;stroke:none"
         id="path184"
         inkscape:connector-curvature="0" /><path
         d="m 1931.53,1077.28 c -15.84,5.22 -37.13,5.47 -51.29,-4.57 -5.94,-4.21 -10.03,-10.91 -7.94,-18.33 2.21,-7.83 9.74,-12.99 16.49,-16.67 8.65,-4.71 18.09,-7.26 27.64,-7.65 3.42,-0.45 6.89,-0.68 10.37,-0.6 6.12,0.13 11.17,0.7 14.39,3.94 1.57,1.6 4.92,5.76 5.82,7.64 5.87,12.29 1.75,23.14 -0.4,26.98 -3.05,5.44 -9.94,7.57 -15.08,9.26"
         style="fill:#efc9bf;fill-opacity:1;fill-rule:nonzero;stroke:none"
         id="path186"
         inkscape:connector-curvature="0" /><path
         d="m 1903.45,1078.92 c -5.32,2.45 -12.54,0.08 -17.17,-2.24 -5.87,-2.96 -12.31,-8.11 -14.26,-14.91 -2.39,-8.27 1.97,-13.23 7.8,-18.67 4.01,-3.75 10.24,-7.86 14.97,-7.89 5.11,-0.02 6.64,4.98 8.74,8.75 4.51,8.12 11.82,29.46 -0.08,34.96"
         style="fill:#ffffff;fill-opacity:1;fill-rule:nonzero;stroke:none"
         id="path188"
         inkscape:connector-curvature="0" /><path
         d="m 1950,1048.37 c -1.62,-7.46 -6.87,-16.24 -15.17,-18.18 -0.88,-0.22 -3.07,-0.46 -3.07,-0.46 0,0 9.48,6.57 11.63,20.26 1.79,11.4 -7.35,25.73 -7.35,25.73 0,0 5.6,-1.76 7.41,-3.6 6.47,-6.62 8.52,-14.64 6.55,-23.75"
         style="fill:#ffffff;fill-opacity:1;fill-rule:nonzero;stroke:none"
         id="path190"
         inkscape:connector-curvature="0" /><path
         d="m 1884.97,1081.04 c -5.57,-3.55 -11.59,-6.08 -15.72,-11.48 -4.88,-6.39 -5.29,-13.86 -0.55,-20.42 0.51,-0.7 -0.37,-1.57 -1.08,-1.07 -16.74,11.72 3.53,31.55 15.7,35.84 1.68,0.59 3.33,-1.8 1.65,-2.87"
         style="fill:#d19c77;fill-opacity:1;fill-rule:nonzero;stroke:none"
         id="path192"
         inkscape:connector-curvature="0" /><path
         d="m 1838.34,1113.87 c -4.5,-9.56 -10.76,-26.7 -23.03,-28.22 -0.96,-0.11 -1.43,1.11 -0.71,1.71 4.19,3.5 7.95,6.57 10.94,11.28 3.38,5.35 5.9,11.24 8.99,16.76 1.26,2.23 4.96,0.92 3.81,-1.53"
         style="fill:#d19c77;fill-opacity:1;fill-rule:nonzero;stroke:none"
         id="path194"
         inkscape:connector-curvature="0" /><path
         d="m 1823.01,1108.78 c -0.58,-3.2 -2.91,-6.16 -5,-8.58 -1.86,-2.13 -4.17,-4.81 -7.17,-4.98 -0.71,-0.03 -1.14,0.56 -0.95,1.24 0.71,2.54 3.05,4.34 4.67,6.35 1.85,2.33 3.05,5.22 5.05,7.35 1.17,1.25 3.76,0.66 3.4,-1.38"
         style="fill:#d19c77;fill-opacity:1;fill-rule:nonzero;stroke:none"
         id="path196"
         inkscape:connector-curvature="0" /><path
         d="m 1892.48,1147.09 c -54.77,63.21 -59.04,155.62 -9.46,223.24 21.56,29.41 51.36,50.4 85.16,61.9 1.61,-0.74 3.52,-0.98 5.69,-0.49 31.63,7.12 63.42,10.92 94.77,6.53 7.39,-1.3 14.73,-2.84 22.11,-4.51 5.29,-1.46 10.58,-3.16 15.83,-5.19 43.11,-16.58 79.47,-50.48 96.54,-93.69 31.48,-79.72 -5.02,-174.66 -75.54,-220.31 -74.36,-48.13 -177.05,-34.49 -235.1,32.52 z m 341.65,167.94 c -13.92,63.35 -60.38,111.42 -117.36,134.6 -0.44,0.43 -1,0.79 -1.72,1.04 -16.51,5.71 -40.33,13.98 -43.38,31.85 -1.06,6.25 -0.21,12.69 -0.05,18.97 0.32,12.31 2.72,25.27 1.73,37.49 -1.45,17.72 -12.88,25.52 -29.85,27.61 -14.93,1.84 -27.5,-0.99 -31.27,-16.88 -4.79,-20.18 -0.23,-43.56 -6.42,-64.5 -4.93,-16.64 -21.07,-23.41 -36.6,-30.56 -32.7,-9.43 -63.04,-26.55 -86.97,-51.06 -65.8,-67.39 -74.84,-173.01 -22.94,-251.03 54.85,-82.43 163.02,-112.29 253.36,-72.96 88.42,38.5 142.27,140.72 121.47,235.43"
         style="fill:#7495fc;fill-opacity:1;fill-rule:nonzero;stroke:none"
         id="path198"
         inkscape:connector-curvature="0" /><path
         d="m 2217.15,1264.31 c 0.59,57.23 -23.56,112.47 -68.25,148.59 -24.06,19.44 -69.29,34.97 -102.57,34.89 -79.08,-0.18 -164.99,-39.45 -192.11,-115.05 -21.32,-59.45 -2.04,-136.77 36.13,-185.83 25.25,-32.44 88.19,-59.58 116.94,-62.76 112.46,-12.46 208.65,64.52 209.86,180.16"
         style="fill:#f7e4ef;fill-opacity:1;fill-rule:nonzero;stroke:none"
         id="path200"
         inkscape:connector-curvature="0" /><path
         d="m 2089.56,1163.42 c 59.1,35.41 78.24,119.45 42.37,178.46 -33.31,54.82 -104.36,63.66 -155.69,35.12 -8.24,-3.68 -15.99,-8.28 -22.94,-13.81 -50,-39.78 -61.69,-111.64 -25.81,-164.59 36.06,-53.24 107.32,-67.98 162.07,-35.18"
         style="fill:#3e1223;fill-opacity:1;fill-rule:nonzero;stroke:none"
         id="path202"
         inkscape:connector-curvature="0" /><path
         d="m 2142.67,1283.86 c -5.27,33.46 -13.42,63.06 -38.61,80.01 -25.49,19.26 -67.2,22.1 -94.08,13.46 -6.5,-2.09 -8.21,-12.88 -2.1,-16.46 37.2,-21.87 57.13,-58.32 58.08,-101.1 0.55,-24.98 10.46,-67.76 45.83,-56.21 31.26,10.21 34.89,54.78 30.88,80.3"
         style="fill:#29141b;fill-opacity:1;fill-rule:nonzero;stroke:none"
         id="path204"
         inkscape:connector-curvature="0" /><path
         d="m 2128.45,1451.65 c -3.24,6.18 -7.17,10.95 -6.16,18.46 0.85,6.23 4.72,10.36 7.92,15.44 0.5,0.8 -0.48,1.69 -1.26,1.44 -14.5,-4.49 -15.8,-31.02 -2.64,-37.77 1.59,-0.81 2.85,1.06 2.14,2.43"
         style="fill:#e0aa82;fill-opacity:1;fill-rule:nonzero;stroke:none"
         id="path206"
         inkscape:connector-curvature="0" /><path
         d="m 1976.46,1486.15 c 1.28,6.97 -0.19,14.71 -1.63,21.57 -1.28,6.12 -2.74,13.31 -6.48,18.43 -0.76,1.05 -2.21,0.05 -2.05,-1 -0.01,0 -0.02,0 -0.03,0 0.39,-6.48 3.04,-13.03 4.15,-19.46 1.13,-6.52 1.08,-13.32 2.58,-19.74 0.47,-2.02 3.1,-1.69 3.46,0.2"
         style="fill:#e0aa82;fill-opacity:1;fill-rule:nonzero;stroke:none"
         id="path208"
         inkscape:connector-curvature="0" /><path
         d="m 1984.32,1490.6 c 1.36,5.49 1.29,11.2 0.92,16.83 -0.3,4.65 -0.07,12.23 -3.71,15.63 -0.26,0.23 -0.77,0.32 -0.97,-0.07 -2.13,-4.2 -0.29,-10.45 -0.13,-14.97 0.2,-5.73 -0.23,-11.46 0.2,-17.17 0.14,-1.89 3.24,-2.05 3.69,-0.25"
         style="fill:#e0aa82;fill-opacity:1;fill-rule:nonzero;stroke:none"
         id="path210"
         inkscape:connector-curvature="0" /><path
         d="m 3327.7962,1805.7199 c -11.03,-16.86 -20.41,-47.27 -9.7,-64.02 6.6,-10.33 7.27,-9.62 16.58,-17.37 10.94,-9.09 128.9,-89.06 178.18,-117.73 11.58,-6.75 39.49,-21.64 53.34,-20.84 13.08,0.75 25.67,13.23 34.45,24.13 3.44,4.27 213.78,305.23 267.83,400.06 5.86,10.28 1.1,27.25 -8.48,33.65 -38.73,25.87 -517.8,-247.42 -532.2,-237.88"
         style="fill:#191918;fill-opacity:1;fill-rule:nonzero;stroke:none"
         id="path212"
         inkscape:connector-curvature="0" /><path
         d="m 3724.7762,2139.2299 c -10.1,6.83 -101.87,61.59 -114.78,60.02 -5.41,-0.67 -12.27,-7.34 -20.34,-17.36 -2.2,-2.72 -9.73,-12.77 -13.54,-19.64 -2,-3.61 -233.82,-333.59 -235.93,-336.84 -11.03,-16.99 -30.39,-44.04 -18.2,-59.2 7.69,-9.55 15.91,-15.86 25.21,-23.59 10.95,-9.11 128.91,-89.08 178.19,-117.75 11.58,-6.75 24.7,-17.12 38.52,-18.18 9.97,-0.77 17.93,5.93 23.59,13.97 30.47,43.24 269.74,389.93 274.23,398.89 5.35,10.67 1.47,23.1 -7.36,30.34 -6.97,5.7 -53.22,37.68 -129.59,89.34"
         style="fill:#2b2d2d;fill-opacity:1;fill-rule:nonzero;stroke:none"
         id="path214"
         inkscape:connector-curvature="0" /><path
         d="m 3711.7762,2114.6799 c -8.42,5.69 -84.55,49.95 -95.31,48.63 -4.52,-0.55 -10.23,-6.12 -16.97,-14.47 -1.82,-2.27 -8.1,-10.65 -11.28,-16.38 -1.67,-3.01 -195.37,-276.75 -197.13,-279.45 -9.19,-14.17 -25.34,-36.72 -15.16,-49.37 6.4,-7.97 13.26,-13.22 21.01,-19.68 9.13,-7.59 107.49,-74.26 148.58,-98.17 9.66,-5.63 20.59,-14.28 32.13,-15.17 8.31,-0.64 14.94,4.95 19.67,11.66 25.4,36.05 225,325.09 228.74,332.56 4.46,8.9 1.23,19.27 -6.15,25.3 -5.8,4.75 -44.45,31.46 -108.13,74.54"
         style="fill:#ffffff;fill-opacity:0.94117647;fill-rule:nonzero;stroke:none"
         id="path216"
         inkscape:connector-curvature="0" /><path
         d="m 3702.9062,1908.2599 c 1.5,8.39 15.26,32.06 -1,75.3 -2.91,7.73 -9.78,17.81 -14.5,24.34 -7.26,10.06 -16.86,17.6 -28.71,24.1 -33.8,18.54 -73.2,8.78 -103.32,-12.22 -33.54,-23.39 -49.47,-59.39 -34.63,-98.61 4.82,-12.72 11.41,-25.69 19.76,-37.23 15.54,-23.44 41.36,-40.7 69.85,-38.33 39.24,0.64 85.12,21.23 92.55,62.65"
         style="fill:#3867fa;fill-opacity:1;fill-rule:nonzero;stroke:none"
         id="path218"
         inkscape:connector-curvature="0" /><path
         d="m 3477.1162,1703.5399 c 0.2,7.14 -2.99,14.11 -9.02,18.13 -2.94,1.95 -6.52,3.23 -10.04,3.45 -6.11,0.39 -13.11,-2.36 -16.32,-7.83 -0.04,-0.07 -0.08,-0.14 -0.12,-0.21 -2.72,-3.21 -4.48,-7.26 -4.81,-11.45 -0.56,-6.87 2.64,-14.34 8.61,-18.09 6.14,-3.86 13.64,-4.5 20.22,-1.37 6.59,3.13 11.27,10.05 11.48,17.37"
         style="fill:#191918;fill-opacity:1;fill-rule:nonzero;stroke:none"
         id="path220"
         inkscape:connector-curvature="0" /><path
         d="m 871.60092,2488.9729 c -9.54,8.18 -229.601,-459 -234.578,-463.07 6.262,-7.03 25.371,-57.63 41.422,-68.13 27.477,53.17 176.156,353.5 202.776,414.43 26.55,60.76 16.6,94.3 -9.62,116.77"
         style="fill:#3867fa;fill-opacity:0;fill-rule:nonzero;stroke:none"
         id="path234"
         inkscape:connector-curvature="0" /><path
         d="m 126.15592,2476.3529 c -6.855,-14.08 -70.199003,-145.39 -65.844003,-161.53 1.825,-6.76 11.571,-14.26 25.782,-22.73 3.867,-2.3 18.019003,-10.04 27.457003,-13.64 4.953,-1.9 477.375,-232.31 481.89,-234.4 23.629,-10.94 61.567,-30.66 78.649,-12.38 10.754,11.51 166.701,320.57 194.231,388.49 6.47,15.96 17.29,34.54 16.13,52.32 -0.83,12.83 -10.82,21.73 -22.08,27.48 -60.56,30.9 -526.844,252.61 -539.059,256.69 -14.546,4.88 -29.671,-2.32 -37.269,-14.89 -5.984,-9.89 -108.035,-158.83 -159.887,-265.41"
         style="fill:#567efb;fill-opacity:1;fill-rule:nonzero;stroke:none"
         id="path236"
         inkscape:connector-curvature="0" /><path
         d="m 686.87492,1952.1529 c 0.059,7.91 -17.344,16.99 -19.18,38.64 -1.273,15.02 4.489,28.04 10.75,37.46 6.074,9.14 2.762,21.51 -7.031,26.45 -97.469,49.21 -506.824,255.74 -589.281003,299.02 -8.035,4.22 -18.047,0.45 -21.145,-8.09 -24.832,-68.46 14.328,-100.5 47.719003,-117.88 3.988,-2.08 18.019,-10.05 27.453,-13.65 4.356,-1.67 423.68,-219.28 530.77,-267.96 7.703,-3.51 15.972,-0.3 19.945,6.01"
         style="fill:#1739f6;fill-opacity:1;fill-rule:nonzero;stroke:none"
         id="path238"
         inkscape:connector-curvature="0" /><path
         d="m 399.80492,2617.0429 c -21.5,11.96 -42.981,23.96 -64.539,35.82 -5.309,2.93 -11.883,1.23 -15.086,-3.95 -46.731,-75.58 -90.875,-153.83 -127.075,-235.05 -2.281,-5.11 -5.804,-15.02 7.274,-21.66 22.558,-11.44 39.597,-14.27 62.238,-24.33 5.395,-2.4 12.602,-0.77 15.203,3.98 41.965,76.67 84.039,153.27 125.985,229.94 2.839,5.2 1.39,12.25 -4,15.25"
         style="fill:#f7e4ef;fill-opacity:1;fill-rule:nonzero;stroke:none"
         id="path240"
         inkscape:connector-curvature="0" /><path
         d="m 251.75392,2437.9029 c -3.727,1.51 -7.778,2.36 -11.219,-0.28 -3.965,-3.05 -4.34,-7.1 -2.824,-10.71 -0.817,0.37 -1.633,0.76 -2.477,1.07 -2.015,0.75 -3.73,-2.35 -2.101,-3.7 3.965,-3.29 8.707,-5.58 13.164,-8.14 4.433,-2.55 8.773,-5.53 13.726,-6.93 1.719,-0.49 2.969,1.8 1.707,3.02 -3.679,3.59 -8.449,5.87 -12.871,8.43 -1.383,0.8 -2.761,1.63 -4.144,2.46 -1.258,1.78 -2.27,3.86 -2.383,5.96 -0.293,5.3 4.23,4.96 7.84,3.4 5.363,-2.32 10.304,-5.5 15.344,-8.44 3.117,-1.81 5.761,2.94 2.75,4.86 -5.262,3.35 -10.719,6.66 -16.512,9"
         style="fill:#2b2d2d;fill-opacity:1;fill-rule:nonzero;stroke:none"
         id="path242"
         inkscape:connector-curvature="0" /><path
         d="m 273.81192,2442.8129 c -3.597,-4.22 -10.222,-2.79 -14.226,-0.07 -4.371,2.96 -6.317,6.59 -5.293,11.06 4.129,2.44 8.109,3.42 12.859,1.02 4.215,-2.12 10.61,-7.38 6.66,-12.01 z m -21.164,15.32 c -5.855,-1.84 -3.273,-11.16 -0.257,-14.92 5.464,-6.8 15.418,-10.62 23.214,-5.29 15.086,10.3 -10.859,29.38 -22.957,20.21"
         style="fill:#2b2d2d;fill-opacity:1;fill-rule:nonzero;stroke:none"
         id="path244"
         inkscape:connector-curvature="0" /><path
         d="m 284.35092,2482.4129 c -1.476,0.57 -3.031,-1.53 -2.101,-2.79 1.625,-2.21 4.164,-3.72 5.539,-6.1 2.02,-3.49 0.852,-8.19 -4.023,-8.43 -1.372,-0.07 -2.825,0.41 -4.118,0.76 -1.257,0.35 -2.464,0.79 -3.675,1.24 0.757,1.48 1.421,3.03 1.789,4.61 0.605,2.61 -3.161,4.28 -4.465,1.79 -0.774,-1.46 -1.422,-2.99 -2.086,-4.52 -3.613,1.56 -7.172,3.23 -10.895,4.51 -1.496,0.51 -2.718,-1.69 -1.535,-2.71 3.016,-2.6 6.656,-4.57 10.438,-6.18 -0.344,-0.91 -0.528,-1.85 -0.321,-2.9 0.145,-0.7 0.918,-0.98 1.543,-0.87 1.282,0.23 2.235,1.11 3.024,2.14 1.019,-0.36 2.039,-0.71 3.043,-1.03 4.097,-1.32 9.058,-2.7 13.039,-0.29 8.879,5.4 2.273,17.89 -5.196,20.77"
         style="fill:#2b2d2d;fill-opacity:1;fill-rule:nonzero;stroke:none"
         id="path246"
         inkscape:connector-curvature="0" /><path
         d="m 279.82792,2499.1629 c 0.258,2.59 2.168,3.55 4.563,3.15 1.902,-1.42 2.046,-2.7 1.378,-4.35 -0.785,-1.94 -1.371,-3.96 -2.273,-5.9 -2.406,2.2 -4.027,3.49 -3.668,7.1 z m 20.043,6.69 c -2.23,0.49 -3.582,-2.62 -1.512,-3.79 5.121,-2.88 6.032,-9.34 0.801,-12.92 -3.851,-2.63 -8.707,-1.7 -12.516,0.55 4.379,6.35 9.305,16.93 -0.695,17.56 -10.066,0.62 -14.39,-7.41 -8.683,-15.45 1.257,-1.78 2.851,-3.4 4.632,-4.78 0.059,-0.81 0.821,-1.42 1.559,-1.11 6.062,-3.97 13.91,-5.11 19.879,-0.01 6.68,5.7 6.156,17.85 -3.465,19.95"
         style="fill:#2b2d2d;fill-opacity:1;fill-rule:nonzero;stroke:none"
         id="path248"
         inkscape:connector-curvature="0" /><path
         d="m 302.81592,2517.9629 c -0.035,4.29 4.254,8.05 8.461,6.76 1.039,-0.32 1.813,-0.86 2.473,-1.45 2.687,-2.46 2.664,-5.68 0.949,-8.48 -1.25,-2.04 -3.16,-5.22 -7.82,-3.37 -2.395,1.38 -3.774,3.54 -4.063,6.54 z m 2.262,10.99 c -6.148,-2.54 -7.883,-8.89 -6.223,-14.31 -4.316,1.76 -8.632,3.53 -13.199,4.53 -1.441,0.32 -2.16,-1.58 -0.945,-2.36 6.34,-4.11 14.203,-7.7 21.578,-10.29 0.316,-0.12 0.625,-0.26 0.961,-0.36 0.039,-0.01 0.066,-0.01 0.101,-0.02 0.622,-0.21 1.266,-0.46 1.875,-0.66 4.922,-1.56 7.653,0.66 9.782,5.16 4.453,9.41 -2.215,23.15 -13.93,18.31"
         style="fill:#2b2d2d;fill-opacity:1;fill-rule:nonzero;stroke:none"
         id="path250"
         inkscape:connector-curvature="0" /><path
         d="m 341.05892,2561.6029 c -3.598,-4.22 -10.223,-2.78 -14.227,-0.07 -4.371,2.96 -6.316,6.59 -5.293,11.07 4.129,2.43 8.102,3.41 12.859,1.01 4.215,-2.12 10.606,-7.38 6.661,-12.01 z m -21.168,15.32 c -5.852,-1.83 -3.27,-11.16 -0.254,-14.91 5.464,-6.81 15.41,-10.62 23.214,-5.3 15.083,10.31 -10.859,29.38 -22.96,20.21"
         style="fill:#2b2d2d;fill-opacity:1;fill-rule:nonzero;stroke:none"
         id="path252"
         inkscape:connector-curvature="0" /><path
         d="m 327.73392,2538.0629 c -3.597,-4.22 -10.226,-2.78 -14.23,-0.07 -4.367,2.96 -6.313,6.59 -5.293,11.07 4.133,2.43 8.105,3.41 12.863,1.01 4.215,-2.12 10.606,-7.38 6.66,-12.01 z m -21.168,15.32 c -5.855,-1.83 -3.269,-11.16 -0.254,-14.91 5.465,-6.81 15.411,-10.62 23.211,-5.3 15.086,10.31 -10.855,29.38 -22.957,20.21"
         style="fill:#2b2d2d;fill-opacity:1;fill-rule:nonzero;stroke:none"
         id="path254"
         inkscape:connector-curvature="0" /><path
         d="m 360.78892,2592.3729 c -5.363,-1.3 -10.656,-3.5 -14.953,-7.01 -2.274,3.73 -4.684,7.46 -8.531,9.69 -0.938,0.55 -1.907,-0.54 -1.438,-1.45 1.742,-3.33 4.192,-6.18 6.067,-9.42 -1.075,0.49 -2.145,0.97 -3.219,1.45 -4.063,1.84 -8.02,4.16 -12.504,4.48 -1.289,0.09 -1.867,-1.66 -1.016,-2.5 3.285,-3.22 8.035,-4.73 12.192,-6.59 4.804,-2.16 9.593,-4.35 14.449,-6.39 2.637,-1.11 4.93,2.67 2.246,3.96 -1.957,0.94 -3.934,1.84 -5.902,2.75 4.406,2.74 8.714,5.05 13.914,6.33 3.062,0.75 1.75,5.44 -1.305,4.7"
         style="fill:#2b2d2d;fill-opacity:1;fill-rule:nonzero;stroke:none"
         id="path256"
         inkscape:connector-curvature="0" /><path
         d="m 860.06139,1242.5295 c -3.562,5.55 -7.66,-3.41 -9.566,-8.25 -19.422,3.54 -38.629,11.49 -52.676,23.58 0.773,1.62 1.555,3.24 2.316,4.86 0.637,1.36 1.461,2.79 1.243,4.34 -0.411,2.89 -3.629,4.39 -6.282,4.38 -5.164,-0.01 -8.468,-3.82 -10.156,-8.24 -11.039,-19.3 -19.402,-34.03 -23.574,-41.62 -2.504,-4.54 -3.152,-9.87 -1.766,-14.87 6.977,-25.14 41.071,-40.04 62.961,-34.93 3.449,0.8 6.367,3.02 8.07,6.13 4.239,7.74 14.125,25.8 27.317,49.89 0.039,0.08 0.055,0.15 0.086,0.22 2.98,4.35 4.719,10.32 2.027,14.51"
         style="fill:#1b4053;fill-opacity:1;fill-rule:nonzero;stroke:none"
         id="path258"
         inkscape:connector-curvature="0" /><path
         d="m 968.65139,1461.6595 c -14.57,-1.42 -31.26,6.29 -39.46,20.5 -2.17,3.76 -7.56,3.82 -9.66,0.01 -18.8,-33.96 -84.153,-147.02 -125.747,-219.46 -1.645,-2.86 -1.578,-6.46 0.359,-9.13 5.91,-8.14 16.809,-13.1 25.598,-16.89 8.055,-3.47 16.137,-5.97 24.332,-6.93 3.445,-0.4 6.781,1.4 8.449,4.45 41.359,75.54 103.969,189.94 119.999,219.37 1.8,3.3 -0.12,8.44 -3.87,8.08"
         style="fill:#24597e;fill-opacity:1;fill-rule:nonzero;stroke:none"
         id="path260"
         inkscape:connector-curvature="0" /><path
         d="m 972.24139,1506.7395 c 0.19,2.09 0.17,4.19 0.09,6.28 -0.04,0.91 -0.95,1.31 -1.74,1.18 -0.02,0 -0.03,0.01 -0.04,0.01 -4.39,-0.47 -14.77,-7.03 -7.54,-11.24 1.94,-1.14 6.26,-3.65 8.1,-1.22 0.97,1.29 1,3.43 1.13,4.99"
         style="fill:#1b4053;fill-opacity:1;fill-rule:nonzero;stroke:none"
         id="path262"
         inkscape:connector-curvature="0" /><path
         d="m 610.98665,1637.9173 c 3.403,3.55 10.172,8.56 4.336,12.64 -3.644,2.56 -45.894,12.05 -51.668,5.77 -3.164,-3.44 -4.41,-7.51 -4.094,-11.64 -0.359,-3.28 -0.132,-6.7 0.254,-9.98 0.934,-7.91 3.004,-16.32 9.653,-21.23 6.375,-4.71 15.043,-3.25 41.519,24.44"
         style="fill:#94d894;fill-opacity:1;fill-rule:nonzero;stroke:none"
         id="path264"
         inkscape:connector-curvature="0" /><path
         d="m 351.49065,1535.3773 c 1.406,6.45 -7.82,3.01 -12.598,0.94 -11.23,16.23 -19.187,35.44 -20.574,53.92 1.696,0.59 3.395,1.19 5.082,1.8 1.407,0.51 2.996,0.93 3.938,2.18 1.762,2.34 0.547,5.68 -1.336,7.55 -3.672,3.63 -8.699,3.28 -13.012,1.35 -21.461,-5.84 -37.781,-10.35 -46.094,-12.76 -4.98,-1.44 -9.218,-4.75 -11.773,-9.26 -12.836,-22.72 0.734,-57.36 19.824,-69.23 3.004,-1.87 6.641,-2.37 10.035,-1.37 8.477,2.48 28.239,8.26 54.606,15.97 0.078,0.02 0.137,0.06 0.215,0.09 5.183,0.97 10.632,3.96 11.687,8.82"
         style="fill:#27853c;fill-opacity:1;fill-rule:nonzero;stroke:none"
         id="path266"
         inkscape:connector-curvature="0" /><path
         d="m 583.22565,1613.5473 c -11.297,9.3 -17.657,26.55 -13.411,42.39 1.129,4.2 -2.64,8.05 -6.82,6.84 -37.305,-10.72 -163.465,-44.45 -244.09,-66.26 -3.187,-0.86 -5.687,-3.45 -6.207,-6.71 -1.582,-9.94 0.895,-27.24 4.43,-36.13 3.242,-8.15 6.5,-10.89 12.816,-15.97 2.703,-2.18 6.996,-3.86 10.332,-2.88 82.657,24.18 207.825,60.8 239.973,70.27 3.609,1.06 5.887,6.05 2.977,8.45"
         style="fill:#40ba49;fill-opacity:1;fill-rule:nonzero;stroke:none"
         id="path268"
         inkscape:connector-curvature="0" /><path
         d="m 617.49065,1643.8673 c 1.469,1.5 2.777,3.14 4.035,4.82 0.543,0.73 0.082,1.61 -0.609,2.01 -0.012,0.01 -0.016,0.02 -0.031,0.03 -3.7,2.41 -15.887,3.86 -12.934,-3.97 0.797,-2.11 2.555,-6.78 5.52,-6.05 1.57,0.39 2.937,2.04 4.019,3.16"
         style="fill:#27853c;fill-opacity:1;fill-rule:nonzero;stroke:none"
         id="path270"
         inkscape:connector-curvature="0" /><path
         d="m 3654.6261,2530.4106 c -6.46,60.98 -42.76,100.72 -61.85,117.28 -6.15,9.29 -14.47,17.21 -24.61,23.47 -21.19,13.08 -46.57,15.7 -70.74,18.55 -50.96,6 -103.51,8.87 -149.87,-17.09 -90.79,-50.83 -89.08,-165.28 -52.86,-250.35 9.78,-22.98 22.51,-43.02 39.42,-61.41 8.63,-9.37 17.83,-17.66 28.2,-25.01 2.87,-2.04 5.68,-4.37 8.57,-6.55 53.7,-46.36 132.38,-29.71 180.39,-3.2 93.93,51.86 112.04,122.29 103.35,204.31"
         style="fill:#3867fa;fill-opacity:1;fill-rule:nonzero;stroke:none"
         id="path272"
         inkscape:connector-curvature="0" /><path
         d="m 3630.0161,2496.8306 c 2.96,75.45 -47.91,141.53 -118.28,162.13 -11.49,5.32 -23.53,9.59 -36.27,12.42 -41.76,9.27 -81.62,-0.66 -116.22,-25.42 -33.69,-24.12 -60.09,-56.97 -66.44,-98.78 -6.08,-40.02 2.51,-82.82 20.57,-118.77 33.73,-67.09 109.18,-111.68 184.73,-95.06 75.55,16.63 128.93,87.54 131.91,163.48"
         style="fill:#2b2d2d;fill-opacity:1;fill-rule:nonzero;stroke:none"
         id="path274"
         inkscape:connector-curvature="0" /><path
         d="m 3578.7161,2515.3906 c 19.22,42.41 13.72,112.6 9.8,136.21 -14.15,85.28 -72.17,191.4 -226.53,263.54 -15.24,7.13 -37.06,7.5 -48.99,-7.7 -5.27,-6.71 -7.47,-15.06 -9.47,-23.2 -2.62,-10.62 -4.61,-21.4 -6.07,-32.23 -2.65,-19.57 -3.58,-39.39 -3.19,-59.12 1.46,-74.67 18.78,-156.41 66.87,-215.55 27,-33.22 63.17,-59.45 105.17,-69.61 2.17,-0.52 21.43,-9.07 28.65,-12.83 11.55,-6 23.19,-13.59 35.62,-17.57 25.63,-8.21 39.36,18.66 48.14,38.06"
         style="fill:#94d894;fill-opacity:1;fill-rule:nonzero;stroke:none"
         id="path276"
         inkscape:connector-curvature="0" /><path
         d="m 3533.1261,2560.1906 c 2.64,26.94 -7.07,54.11 -15.78,79.39 -8.94,25.97 -20.07,51.24 -33.06,75.43 -12.92,24.09 -27.58,47.19 -45.08,68.2 -8.41,10.09 -16.95,20.29 -26.42,29.4 -8.7,8.36 -19.13,20.5 -31.47,22.93 -3.99,0.79 -6.77,-2.86 -5.91,-6.56 2.67,-11.53 13.84,-21.48 20.86,-30.67 7.95,-10.4 16.15,-20.57 23.62,-31.33 14.68,-21.17 28.85,-42.72 41.01,-65.44 12.07,-22.56 22.3,-46.04 30.65,-70.22 8.51,-24.64 12.31,-51.1 23.8,-74.47 3.63,-7.39 16.99,-4.79 17.78,3.34"
         style="fill:#40ba49;fill-opacity:1;fill-rule:nonzero;stroke:none"
         id="path278"
         inkscape:connector-curvature="0" /><path
         d="m 3391.1361,2747.8506 c 0.07,0.08 0.14,0.17 0.22,0.25 1.45,1.54 2.01,3.65 2,5.72 -0.02,2.55 -1.53,4.84 -3.57,6.21 -1.81,1.21 -3.74,1.62 -5.88,1.23 -2.67,-0.48 -4.38,-1.99 -5.77,-4.25 -0.06,-0.1 -0.12,-0.19 -0.18,-0.29 -0.94,-1.55 -1.08,-4.33 -0.46,-6.01 0.64,-1.72 1.66,-3.11 3.2,-4.14 3.33,-2.25 7.68,-1.67 10.44,1.28"
         style="fill:#40ba49;fill-opacity:1;fill-rule:nonzero;stroke:none"
         id="path280"
         inkscape:connector-curvature="0" /><path
         d="m 3457.7061,2655.6206 c -0.15,2.94 -2.47,5.92 -5.47,6.41 -0.08,0.01 -0.17,0.02 -0.24,0.03 -3.67,0.6 -6.94,-1.52 -7.87,-5.14 -0.01,-0.07 -0.03,-0.15 -0.05,-0.23 -0.29,-1.1 -0.12,-2.43 0.17,-3.52 0.4,-1.47 1.52,-2.74 2.75,-3.57 2.17,-1.46 5.38,-1.7 7.59,-0.1 1.96,1.41 3.25,3.67 3.12,6.12"
         style="fill:#40ba49;fill-opacity:1;fill-rule:nonzero;stroke:none"
         id="path282"
         inkscape:connector-curvature="0" /><path
         d="m 3501.8561,2743.5406 c 1.63,1.96 2.08,5.1 0.52,7.27 -1.59,2.2 -4.24,3.21 -6.87,2.44 -1.52,-0.44 -2.67,-1.35 -3.47,-2.55 -0.12,-0.13 -0.24,-0.25 -0.36,-0.38 -1.62,-1.73 -1.89,-4.86 -0.48,-6.81 1.42,-1.98 4.04,-3.14 6.44,-2.29 0.16,0.05 0.31,0.11 0.48,0.17 1.42,0.24 2.71,0.93 3.74,2.15"
         style="fill:#40ba49;fill-opacity:1;fill-rule:nonzero;stroke:none"
         id="path284"
         inkscape:connector-curvature="0" /><path
         d="m 3528.3961,2502.9106 c -71.67,103.64 -196.58,104.82 -234.97,98.76 -43.38,-6.86 -85.77,-19.19 -126.28,-36.14 -19.82,-8.3 -39.16,-17.77 -57.85,-28.38 -8.91,-5.05 -17.66,-10.36 -26.25,-15.92 -7.48,-4.83 -17.1,-9.85 -20.18,-18.85 -2.94,-8.63 1.05,-16.87 7.18,-22.9 7.85,-7.74 17.12,-14.49 25.71,-21.39 16.19,-13.03 32.71,-25.68 49.93,-37.33 64.41,-43.6 143.78,-73.93 222.18,-55.22 4.84,1.15 10.17,2.64 15.84,4.46 1.91,0.62 3.86,1.07 5.83,1.41 18.28,3.14 36.41,11.34 51.06,19.9 14.26,8.33 27.42,18.37 40.31,28.64 3.23,2.57 6.57,5.1 9.94,7.61 6.97,5.19 15.38,8.03 24.06,8.23 5.03,0.11 9.97,0.7 14.62,2.89 25.4,11.96 9.73,48.54 -1.13,64.23"
         style="fill:#27853c;fill-opacity:1;fill-rule:nonzero;stroke:none"
         id="path286"
         inkscape:connector-curvature="0" /><path
         d="m 3523.3461,2475.2506 c -9.53,7.3 -23.36,11.87 -34.61,15.95 -11.38,4.13 -22.8,8.24 -34.75,10.34 -25.8,4.52 -51.74,5.49 -77.89,4.9 -53.94,-1.2 -107.69,-5.36 -161.6,-2.32 -8.78,0.49 -10.27,-12.22 -2.28,-14.82 50.91,-16.57 104.92,-11.4 157.58,-10.09 24.96,0.62 49.97,0.42 74.88,-1.36 12.08,-0.86 24.43,-1.31 36.41,-3.12 6.41,-0.98 12.92,-2.33 19.23,-3.86 6.32,-1.53 12.27,-4.52 18.63,-5.79 6.42,-1.29 9.45,6.31 4.4,10.17"
         style="fill:#1f6330;fill-opacity:1;fill-rule:nonzero;stroke:none"
         id="path288"
         inkscape:connector-curvature="0" /><path
         d="m 3324.9861,2430.7606 c 0.02,0.04 0.05,0.08 0.07,0.12 1.02,1.85 1.42,3.72 1.19,5.79 -0.21,2.08 -1.05,4.07 -2.54,5.59 -1.43,1.46 -3.3,2.33 -5.3,2.64 -1.98,0.3 -4.2,0.08 -5.95,-0.99 -3.24,-1.98 -5.13,-5.39 -4.73,-9.2 0.5,-4.73 4.31,-8.13 9.03,-8.41 0.05,0 0.1,-0.01 0.15,-0.01 3.14,-0.19 6.57,1.7 8.08,4.47"
         style="fill:#1f6330;fill-opacity:1;fill-rule:nonzero;stroke:none"
         id="path290"
         inkscape:connector-curvature="0" /><path
         d="m 3282.8661,2531.6406 c 1.13,1.11 1.92,2.44 2.37,3.97 0.01,0.1 0.03,0.2 0.05,0.29 0.25,1.53 0.47,3.02 0.1,4.55 -0.47,1.96 -1.64,3.64 -3.2,4.87 -1.25,0.98 -2.56,1.55 -4.13,1.79 -2.04,0.32 -3.76,-0.05 -5.65,-0.93 -0.09,-0.04 -0.18,-0.08 -0.27,-0.12 -2.83,-1.33 -4.6,-4.69 -4.68,-7.72 -0.07,-2.91 1.25,-5.51 3.5,-7.28 2.2,-1.72 4.92,-2.42 7.68,-1.75 1.62,0.39 3.02,1.17 4.23,2.33"
         style="fill:#1f6330;fill-opacity:1;fill-rule:nonzero;stroke:none"
         id="path292"
         inkscape:connector-curvature="0" /><path
         d="m 3413.8461,2534.5206 c 1.94,1.9 2.77,4.46 2.5,7.12 -0.29,2.73 -1.72,5.13 -4.12,6.55 -2.49,1.48 -6.12,1.78 -8.64,0.14 -1.35,-0.86 -2.68,-1.82 -3.62,-3.07 -0.49,-0.59 -0.93,-1.24 -1.26,-1.99 -0.9,-2.1 -0.85,-4.21 0.13,-6.3 0.78,-1.64 2.1,-2.77 3.74,-3.47 0.01,-0.01 0.02,-0.01 0.03,-0.02 0.29,-0.17 0.59,-0.34 0.93,-0.49 0.69,-0.3 1.14,-0.46 1.83,-0.6 3.1,-0.66 6.14,-0.16 8.48,2.13"
         style="fill:#1f6330;fill-opacity:1;fill-rule:nonzero;stroke:none"
         id="path294"
         inkscape:connector-curvature="0" /><path
         d="m 3651.8142,1921.7128 -17.0773,9.7321 -28.0774,5.0572 -35.1199,-41.854 -5.0377,-6.0252 c 0.1804,-0.1837 0.5462,-0.5319 1.1201,-0.9723 1.9991,-1.3892 6.5124,-3.501 12.7634,-0.297 l 0.01,-0.01 -0.013,0.01 v 0 c 9.6144,5.2094 19.697,8.9746 30.1939,13.2323 12.9159,5.3109 26.0477,8.1313 39.5112,10.0042 l 1.7237,11.1299"
         style="fill:#6e6e72;fill-opacity:1;fill-rule:nonzero;stroke:none;stroke-width:0.10503788"
         id="path424"
         inkscape:connector-curvature="0" /><path
         d="m 3584.2925,1978.3675 12.5495,-15.1278 9.8548,-26.7745 -34.7496,-41.413 v 0 l -0.3705,-0.4416 -5.0574,-6.006 c -0.2133,0.1448 -0.6191,0.444 -1.1517,0.9351 -1.7173,1.7249 -4.5791,5.8016 -2.51,12.5147 v 0.012 l -0.01,-0.013 v 0.012 c 3.4599,10.3719 5.4179,20.956 7.7885,32.035 2.9858,13.6391 3.4847,27.0611 2.9902,40.646 l 10.6638,3.6313"
         style="fill:#7d7c81;fill-opacity:1;fill-rule:nonzero;stroke:none;stroke-width:0.10503788"
         id="path426"
         inkscape:connector-curvature="0" /><path
         d="m 3582.8004,1908.4489 c -1.6935,1.7775 -4.5018,3.07 -6.4051,5.0195 0.034,-0.3824 0.2766,-0.9369 -0.28,-1.1801 0.4938,-3.4986 2.427,-4.8845 4.3093,-7.0907 l 2.5827,3.0778 -0.2069,0.1735"
         style="fill:#373d44;fill-opacity:1;fill-rule:nonzero;stroke:none;stroke-width:0.10503788"
         id="path428"
         inkscape:connector-curvature="0" /><path
         d="m 3589.2711,1902.6643 c -2.2519,1.5372 -4.0116,4.0775 -6.0563,5.4369 l -0.2075,0.1742 -2.5827,-3.0778 c 2.4997,-1.4706 4.2018,-3.1351 7.7337,-3.0147 0.142,0.5911 0.7307,0.4495 1.1128,0.4814"
         style="fill:#2f353b;fill-opacity:1;fill-rule:nonzero;stroke:none;stroke-width:0.10503788"
         id="path430"
         inkscape:connector-curvature="0" /><path
         d="m 3664.2255,1925.0294 0.328,4.8667 22.9108,44.3459 c 0,0 -14.933,-0.792 -34.9341,16.6996 l -0.098,0.074 -68.5149,-81.6531 0.101,-0.07 c 0,0 0.7076,-0.7189 2.0419,-1.9328 0,0 4.7272,-5.7724 11.5531,-4.2997 0,0 5.4705,0.4862 11.845,9.1746 0,0 8.9868,14.047 18.208,11.2608 l 8.9342,3.4754 c 0,0 3.0192,0.3446 7.3062,-6.3446 l 0.018,-0.024 c 0.1245,-0.136 0.7609,-0.9167 0.8577,-2.4389 0.5513,-2.3712 0.552,-5.9147 -3.2646,-8.1394 -1.2091,-0.7022 -2.7875,-1.3234 -4.8688,-1.6339 -9.5621,-1.421 -32.6419,-8.8694 -58.6378,-22.0418 0,0 -1.3074,-0.7622 -5.2785,-0.692 0,0 40.5351,-0.1203 58.6031,-8.5379 0,0 29.442,14.8674 32.8829,47.9048"
         style="fill:#dcddde;fill-opacity:1;fill-rule:nonzero;stroke:none;stroke-width:0.10503788"
         id="path432"
         inkscape:connector-curvature="0" /><path
         d="m 3585.4138,1991.1604 4.7358,1.168 39.6937,30.2633 c 0,0 1.8123,-14.8429 22.5131,-31.5042 l 0.087,-0.081 -68.5149,-81.6529 -0.086,0.083 c 0,0 -0.8293,0.5752 -2.2588,1.6774 0,0 -6.5033,3.6541 -6.2392,10.6327 0,0 -0.4716,5.4692 6.978,13.2559 0,0 12.2736,11.2889 7.9285,19.8891 l 1.872,9.4013 c 0,0 -0.1849,3.0332 -7.517,6.0934 l -0.027,0.014 c -0.1555,0.099 -1.0337,0.5918 -2.5486,0.4222 -2.4325,0.1323 -5.9245,-0.4845 -7.449,-4.6286 -0.4832,-1.3112 -0.8209,-2.9735 -0.7641,-5.0777 0.2607,-9.6636 -3.0687,-33.6868 -11.527,-61.5755 0,0 -0.5222,-1.4181 0.2352,-5.3182 0,0 -7.1583,39.899 -18.5831,56.2315 0,0 9.5282,31.5741 41.4677,40.7013"
         style="fill:#ffffff;fill-opacity:1;fill-rule:nonzero;stroke:none;stroke-width:0.10503788"
         id="path434"
         inkscape:connector-curvature="0" /><path
         d="m 3620.9712,2029.4082 c 13.6869,0.4363 11.9956,-24.0759 8.9955,-33.4 l -0.061,-0.1918 -0.1721,-0.083 c -6.31,-2.9885 -14.3849,-2.475 -22.098,-2.0541 l -18.3888,-1.7109 c 1.2344,5.6885 4.0349,8.6584 7.3127,12.9862 4.6698,5.9871 16.3598,24.1361 24.4116,24.4537"
         style="fill:#7d7c81;fill-opacity:1;fill-rule:nonzero;stroke:none;stroke-width:0.10503788"
         id="path436"
         inkscape:connector-curvature="0" /><path
         d="m 3622.8822,2025.9223 c 10.4299,-2.4911 6.2063,-18.156 2.7214,-26.6083 -9.4001,-6.3217 -24.2315,0.067 -34.109,-5.5101 1.7417,2.0757 4.4999,5.3628 6.2419,7.4388 4.6709,5.99 15.5034,27.1074 25.1457,24.6796"
         style="fill:#454b53;fill-opacity:1;fill-rule:nonzero;stroke:none;stroke-width:0.10503788"
         id="path438"
         inkscape:connector-curvature="0" /><path
         d="m 3664.255,1929.0291 c 5.3879,2.2032 7.8258,5.4777 11.5185,9.4571 5.0858,5.6379 20.9278,20.3031 19.843,28.2872 -1.9478,13.5555 -25.7933,7.6327 -34.4546,3.0589 l -0.1776,-0.094 -0.052,-0.1835 c -1.8466,-6.7337 0.06,-14.5959 1.8145,-22.1188 l 1.5089,-18.4072"
         style="fill:#727276;fill-opacity:1;fill-rule:nonzero;stroke:none;stroke-width:0.10503788"
         id="path440"
         inkscape:connector-curvature="0" /><path
         d="m 3665.6724,1931.5611 c 1.742,2.076 4.5,5.3629 6.242,7.4389 5.0869,5.641 24.0012,19.9771 19.9381,29.0495 -4.2652,9.8394 -18.958,2.9591 -26.6776,-1.9397 -4.5917,-10.3566 4.2742,-23.8526 0.4975,-34.5487"
         style="fill:#373d44;fill-opacity:1;fill-rule:nonzero;stroke:none;stroke-width:0.10503788"
         id="path442"
         inkscape:connector-curvature="0" /><path
         d="m 3596.7584,1924.9281 c -3.1701,4.4137 -9.4707,5.4857 -13.774,2.0093 l -0.2485,-0.1095 c -0.2042,-1.0862 -0.7626,-2.0327 -1.1434,-3.0486 -1.7609,-5.2867 -0.1773,-8.7381 4.0805,-11.4455 l 0.4015,-0.4023 10.8363,12.9143 -0.1529,0.083"
         style="fill:#1c1b1b;fill-opacity:1;fill-rule:nonzero;stroke:none;stroke-width:0.10503788"
         id="path444"
         inkscape:connector-curvature="0" /><path
         d="m 3600.9422,1911.8002 c 2.6131,4.7287 0.6243,10.5797 -4.0313,13.0452 l -10.8363,-12.9144 0.015,-0.022 c 3.4048,-3.7224 7.0801,-4.6838 11.9805,-2.0303 0.9352,0.5522 1.7712,1.2658 2.8054,1.6567 l 0.062,0.2616"
         style="fill:#1c1b1b;fill-opacity:1;fill-rule:nonzero;stroke:none;stroke-width:0.10503788"
         id="path446"
         inkscape:connector-curvature="0" /><path
         d="m 3589.278,1920.0039 0.069,0.6427 c -1.0012,1.0895 -2.49,1.7369 -3.9335,1.4989 -0.04,-0.047 0.029,-0.3399 -0.095,-0.3924 -5.2168,-3.408 4.7064,-8.8249 3.9592,-1.7492"
         style="fill:#000000;fill-opacity:1;fill-rule:nonzero;stroke:none;stroke-width:0.10503788"
         id="path448"
         inkscape:connector-curvature="0" /><path
         d="m 3593.0212,1916.7943 0.621,0.1799 c 1.246,-0.796 2.1463,-2.1482 2.1599,-3.6142 -0.037,-0.044 -0.3404,-0.029 -0.3708,-0.1606 -2.4481,-5.73 -9.5075,3.1035 -2.4102,3.5953"
         style="fill:#000000;fill-opacity:1;fill-rule:nonzero;stroke:none;stroke-width:0.10503788"
         id="path450"
         inkscape:connector-curvature="0" /><path
         d="m 3597.0205,1924.7079 c 4.8974,-2.3556 7.0454,-8.3728 4.3708,-13.2158 l -0.064,-0.2637 c -1.0344,-0.3898 -1.8696,-1.1038 -2.8031,-1.6559 -4.9004,-2.6523 -8.5769,-1.69 -11.981,2.0317 l -0.4675,0.3267 10.8365,12.9145 0.1094,-0.1376"
         style="fill:#131313;fill-opacity:1;fill-rule:nonzero;stroke:none;stroke-width:0.10503788"
         id="path452"
         inkscape:connector-curvature="0" /><path
         d="m 3593.471,1916.4855 0.6193,0.1808 c 1.2479,-0.7975 2.1439,-2.1514 2.16,-3.6142 -0.04,-0.047 -0.3396,-0.029 -0.3698,-0.1618 -2.4495,-5.7299 -9.5083,3.1027 -2.4093,3.5947"
         style="fill:#000000;fill-opacity:1;fill-rule:nonzero;stroke:none;stroke-width:0.10503788"
         id="path454"
         inkscape:connector-curvature="0" /><path
         d="m 3604.0486,1955.0263 c -6.288,-11.7113 -16.1415,-0.2581 -23.6307,1.7796 2.7942,5.4395 13.4495,15.6087 20.3917,15.4465 7.4965,0.077 13.7928,-5.9132 8.7734,-12.3186 0,0 -1.0918,-1.0281 -2.2694,-1.5868 l -1.9666,-1.2374 -0.6055,-0.9961 -0.6929,-1.0872"
         style="fill:#dcddde;fill-opacity:1;fill-rule:nonzero;stroke:none;stroke-width:0.10503788"
         id="path456"
         inkscape:connector-curvature="0" /><path
         d="m 3642.9226,1936.9154 c -1.2256,7.3961 -8.2195,12.5574 -13.6551,6.5011 0,0 -0.8236,-1.253 -1.1701,-2.5091 l -0.8756,-2.1529 -0.8766,-0.7686 -0.9497,-0.872 c -10.4414,-8.2261 2.5489,-15.9407 5.8563,-22.9624 4.8717,3.6961 13.0359,15.9555 11.6708,22.7639"
         style="fill:#ffffff;fill-opacity:1;fill-rule:nonzero;stroke:none;stroke-width:0.10503788"
         id="path458"
         inkscape:connector-curvature="0" /><path
         d="m 3598.8562,1969.3379 c 8.283,-0.8156 14.0878,-8.5164 6.0096,-15.8953 l -0.2304,0.1931 c 0.6017,2.405 -1.4596,3.9781 -2.7263,5.7498 -1.9808,2.6055 -1.4684,4.0609 -1.9971,7.1811 -0.1129,0.802 -0.3028,1.5115 -0.6161,2.1679 l -0.4397,0.6034"
         style="fill:#171717;fill-opacity:1;fill-rule:nonzero;stroke:none;stroke-width:0.10503788"
         id="path460"
         inkscape:connector-curvature="0" /><path
         d="m 3640.3899,1934.4871 c -2.2391,8.0134 -10.8326,12.3941 -16.6966,3.1571 l 0.2309,-0.1938 c 2.2647,1.0095 4.1704,-0.7459 6.1352,-1.6858 2.9105,-1.4989 4.255,-0.7419 7.4187,-0.7197 0.8103,0.027 1.5413,-0.036 2.2436,-0.2317 l 0.6682,-0.3261"
         style="fill:#000000;fill-opacity:1;fill-rule:nonzero;stroke:none;stroke-width:0.10503788"
         id="path462"
         inkscape:connector-curvature="0" /><path
         d="m 3630.31,1936.8118 c 1.5296,-1.2835 3.8107,-1.0832 5.0927,0.4455 1.0006,1.1926 1.0948,2.8358 0.3679,4.1119 -1.4373,1.0046 -3.0677,1.5404 -4.7419,1.4505 -0.4345,-0.2151 -0.8335,-0.521 -1.1642,-0.9151 -1.2823,-1.528 -1.0834,-3.8093 0.4454,-5.092"
         style="fill:#3867fa;fill-opacity:1;fill-rule:nonzero;stroke:none;stroke-width:0.10503788"
         id="path464"
         inkscape:connector-curvature="0" /><path
         d="m 3602.4521,1964.9055 c -1.2822,-1.528 -1.0841,-3.8086 0.4456,-5.092 1.5288,-1.2828 3.8097,-1.0826 5.092,0.4455 0.3307,0.3942 0.5625,0.8402 0.6992,1.3055 -0.2023,1.6643 -1.0123,3.1762 -2.2513,4.4173 -1.3845,0.4955 -2.9848,0.1163 -3.9855,-1.0763"
         style="fill:#3867fa;fill-opacity:1;fill-rule:nonzero;stroke:none;stroke-width:0.10503788"
         id="path466"
         inkscape:connector-curvature="0" /></g></g></svg>