<?xml version="1.0" encoding="iso-8859-1"?>
<!-- Generator: Adobe Illustrator 19.0.0, SVG Export Plug-In . SVG Version: 6.00 Build 0)  -->
<svg xmlns="http://www.w3.org/2000/svg" xmlns:xlink="http://www.w3.org/1999/xlink" version="1.1" id="Capa_1" x="0px" y="0px" viewBox="0 0 511.998 511.998" style="enable-background:new 0 0 511.998 511.998;" xml:space="preserve" width="512px" height="512px">
<g>
	<g>
		<path d="M375.999,180.998h-30c-41.355,0-75,33.645-75,75c0,8.284,6.716,15,15,15h30c41.355,0,75-33.645,75-75    C390.999,187.714,384.283,180.998,375.999,180.998z M315.999,240.998h-12.43c6.191-17.461,22.874-30.1,42.43-30.1h12.43    C352.239,228.359,335.556,240.998,315.999,240.998z" fill="#FFFFFF"/>
	</g>
</g>
<g>
	<g>
		<path d="M165.999,180.998h-30c-8.284,0-15,6.716-15,15c0,41.355,33.645,75,75,75h30c8.284,0,15-6.716,15-15    C240.999,214.643,207.354,180.998,165.999,180.998z M195.999,240.998c-19.557,0-36.239-12.539-42.43-30h12.43    c19.557,0,36.239,12.539,42.43,30H195.999z" fill="#FFFFFF"/>
	</g>
</g>
<g>
	<g>
		<path d="M455.826,27.044l-5.596-16.788c-1.258-3.774-3.964-6.894-7.522-8.673c-7.415-3.706-13.476,0.206-16.069,0.726    c-41.405,13.802-74.264,47.242-88.293,88.922c-2.431-0.147-4.878-0.231-7.345-0.231c-27.648,0-53.799,9.25-75,26.3    c-21.201-17.049-47.352-26.3-75-26.3c-2.467,0-4.915,0.084-7.345,0.231c-14.03-41.68-46.888-75.121-88.292-88.922    c-2.615-0.524-8.647-4.439-16.073-0.727c-3.559,1.779-6.265,4.899-7.522,8.673l-5.596,16.787    c-14.325,42.975-6.881,90.653,19.233,126.988c-9.186,16.958-14.407,36.364-14.407,56.968v75c0,5.015,2.507,9.699,6.68,12.481    l69.514,46.342l31.95,112.781c9.15,32.027,38.805,54.396,72.114,54.396h29.484c33.31,0,62.964-22.368,72.123-54.428    l31.941-112.749l69.514-46.341c4.173-2.782,6.68-7.466,6.68-12.481v-75c0-20.604-5.221-40.01-14.407-56.968    C462.706,117.696,470.151,70.018,455.826,27.044z M84.634,36.529l0.697-2.092c26.771,11.896,47.982,34.63,58.494,62.463    c-19.039,6.218-36,17.071-49.537,31.23C78.24,100.824,74.422,67.167,84.634,36.529z M255.999,402.457l-12.574-25.148    c3.334-3.107,7.732-4.852,12.574-4.852c4.842,0,9.24,1.745,12.574,4.852L255.999,402.457z M420.999,277.971l-67.438,44.958    c-2.972,1.981-5.139,4.957-6.111,8.393l-33.44,118.04c-5.467,19.133-23.131,32.517-43.011,32.632v-42.455l28.416-56.832    c2.112-4.223,2.112-9.193,0-13.416c-8.275-16.551-24.911-26.833-43.416-26.833c-18.505,0-35.141,10.282-43.416,26.833    c-2.112,4.223-2.112,9.193,0,13.416l28.416,56.832v42.455c-19.88-0.115-37.544-13.498-43.002-32.6l-33.449-118.072    c-0.973-3.436-3.14-6.412-6.111-8.392l-67.438-44.96v-66.972c0-49.626,40.374-90,90-90c24.386,0,47.216,9.594,64.286,27.014    c2.821,2.879,6.683,4.501,10.714,4.501s7.893-1.623,10.714-4.501c17.07-17.42,39.9-27.014,64.286-27.014c49.626,0,90,40.374,90,90    V277.971z M417.71,128.129c-13.537-14.158-30.498-25.011-49.537-31.229c10.513-27.833,31.723-50.567,58.494-62.463    C426.766,35.36,445.633,80.617,417.71,128.129z" fill="#FFFFFF"/>
	</g>
</g>
<g>
</g>
<g>
</g>
<g>
</g>
<g>
</g>
<g>
</g>
<g>
</g>
<g>
</g>
<g>
</g>
<g>
</g>
<g>
</g>
<g>
</g>
<g>
</g>
<g>
</g>
<g>
</g>
<g>
</g>
</svg>
