<?xml version="1.0"?>
<svg xmlns="http://www.w3.org/2000/svg" height="512px" viewBox="0 0 512 512" width="512px"><path d="m256 90c8.289062 0 15-6.710938 15-15v-60c0-8.289062-6.710938-15-15-15s-15 6.710938-15 15v60c0 8.289062 6.710938 15 15 15zm0 0" fill="#FFFFFF"/><path d="m75 241h-60c-8.289062 0-15 6.710938-15 15s6.710938 15 15 15h60c8.289062 0 15-6.710938 15-15s-6.710938-15-15-15zm0 0" fill="#FFFFFF"/><path d="m497 241h-60c-8.289062 0-15 6.710938-15 15s6.710938 15 15 15h60c8.289062 0 15-6.710938 15-15s-6.710938-15-15-15zm0 0" fill="#FFFFFF"/><path d="m419.390625 178.992188 51.957031-30c7.175782-4.144532 9.636719-13.3125 5.492188-20.492188-4.160156-7.191406-13.34375-9.652344-20.492188-5.492188l-51.957031 30c-7.179687 4.144532-9.640625 13.3125-5.496094 20.492188 4.191407 7.253906 13.425781 9.578125 20.496094 5.492188zm0 0" fill="#FFFFFF"/><path d="m338.5 113.105469c7.070312 4.082031 16.304688 1.757812 20.492188-5.496094l30-51.957031c4.148437-7.175782 1.6875-16.347656-5.492188-20.492188-7.164062-4.144531-16.363281-1.714844-20.492188 5.492188l-30 51.957031c-4.148437 7.179687-1.6875 16.351563 5.492188 20.496094zm0 0" fill="#FFFFFF"/><path d="m153.007812 107.609375c4.1875 7.253906 13.421876 9.578125 20.492188 5.496094 7.179688-4.148438 9.640625-13.316407 5.492188-20.496094l-30-51.957031c-4.144532-7.207032-13.359376-9.636719-20.492188-5.492188-7.179688 4.144532-9.640625 13.316406-5.492188 20.492188zm0 0" fill="#FFFFFF"/><path d="m40.652344 148.992188 51.957031 30c7.070313 4.085937 16.304687 1.761718 20.496094-5.492188 4.144531-7.179688 1.683593-16.347656-5.496094-20.492188l-51.957031-30c-7.191406-4.160156-16.332032-1.699218-20.492188 5.492188-4.144531 7.179688-1.683594 16.347656 5.492188 20.492188zm0 0" fill="#FFFFFF"/><path d="m148.128906 191.035156-25.558594 229.964844h266.859376l-25.558594-229.964844c-2.53125-22.792968-21.800782-40.035156-44.730469-40.035156h-126.28125c-22.929687 0-42.199219 17.242188-44.730469 40.035156zm0 0" fill="#FFFFFF"/><path d="m406 451h-300c-8.285156 0-15 6.714844-15 15v31c0 8.285156 6.714844 15 15 15h300c8.285156 0 15-6.714844 15-15v-31c0-8.285156-6.714844-15-15-15zm0 0" fill="#FFFFFF"/></svg>
