<?xml version="1.0" encoding="UTF-8" standalone="no"?>
<!-- Created with Inkscape (http://www.inkscape.org/) -->

<svg
   xmlns:dc="http://purl.org/dc/elements/1.1/"
   xmlns:cc="http://creativecommons.org/ns#"
   xmlns:rdf="http://www.w3.org/1999/02/22-rdf-syntax-ns#"
   xmlns:svg="http://www.w3.org/2000/svg"
   xmlns="http://www.w3.org/2000/svg"
   xmlns:sodipodi="http://sodipodi.sourceforge.net/DTD/sodipodi-0.dtd"
   xmlns:inkscape="http://www.inkscape.org/namespaces/inkscape"
   version="1.1"
   id="svg2"
   xml:space="preserve"
   width="206.62534"
   height="142.26866"
   viewBox="0 0 206.62533 142.26866"
   sodipodi:docname="medium-effort.svg"
   inkscape:version="0.92.3 (2405546, 2018-03-11)"><metadata
     id="metadata8"><rdf:RDF><cc:Work
         rdf:about=""><dc:format>image/svg+xml</dc:format><dc:type
           rdf:resource="http://purl.org/dc/dcmitype/StillImage" /><dc:title></dc:title></cc:Work></rdf:RDF></metadata><defs
     id="defs6" /><sodipodi:namedview
     pagecolor="#ffffff"
     bordercolor="#666666"
     borderopacity="1"
     objecttolerance="10"
     gridtolerance="10"
     guidetolerance="10"
     inkscape:pageopacity="0"
     inkscape:pageshadow="2"
     inkscape:window-width="1920"
     inkscape:window-height="1020"
     id="namedview4"
     showgrid="false"
     inkscape:zoom="0.88387311"
     inkscape:cx="-62.103623"
     inkscape:cy="79.477897"
     inkscape:window-x="0"
     inkscape:window-y="0"
     inkscape:window-maximized="1"
     inkscape:current-layer="g12" /><g
     id="g10"
     inkscape:groupmode="layer"
     inkscape:label="ink_ext_XXXXXX"
     transform="matrix(1.3333333,0,0,-1.3333333,-279.42133,438.87866)"><g
       id="g12"
       transform="scale(0.1)"><path
         d="m 2870.64,1647.49 c 353.2,0 655.09,-220.81 774.71,-532.06 L 3258.14,966.613 c -60.09,155.627 -210.89,265.887 -387.5,265.887 -176.6,0 -327.68,-110.26 -387.5,-265.887 l -387.48,148.817 c 119.9,311.25 421.51,532.06 774.98,532.06 v 0"
         style="fill:#757575;fill-opacity:1;fill-rule:evenodd;stroke:none"
         id="path16"
         inkscape:connector-curvature="0" /><path
         d="m 3810.9,1228.54 v 0 L 2915.43,718.02 c -18.43,-10.489 -42.23,-2.278 -51.88,16.718 v 0 c -9.92,18.707 -2.55,42.801 16.45,51.875 l 930.9,441.927"
         style="fill:#100f0d;fill-opacity:1;fill-rule:evenodd;stroke:none"
         id="path18"
         inkscape:connector-curvature="0" /><path
         d="m 969.164,1647.49 c 353.196,0 655.086,-220.81 774.706,-532.06 L 1356.38,966.613 C 1296.57,1122.24 1145.76,1232.5 969.164,1232.5 792.281,1232.5 641.48,1122.24 581.668,966.613 l -387.5,148.817 c 119.91,311.25 421.516,532.06 774.996,532.06 v 0"
         style="fill:#e9e8e7;fill-opacity:1;fill-rule:evenodd;stroke:none"
         id="path20"
         inkscape:connector-curvature="0" /><path
         d="m 969.164,1647.49 c 163.566,0 316.346,-47.33 444.756,-129.26 l -228.47,-346.68 c -62.93,38.84 -137.2,60.95 -216.286,60.95 -176.883,0 -327.684,-110.26 -387.496,-265.887 l -387.5,148.817 c 119.91,311.25 421.516,532.06 774.996,532.06 v 0"
         style="fill:#757575;fill-opacity:1;fill-rule:evenodd;stroke:none"
         id="path22"
         inkscape:connector-curvature="0" /><path
         d="m 1493.57,1637.86 v 0 L 976.25,746.359 c -10.77,-18.418 -35.434,-23.242 -53.293,-11.621 v 0 c -17.855,11.336 -23.805,35.723 -11.621,53.289 l 582.234,849.833"
         style="fill:#100f0d;fill-opacity:1;fill-rule:evenodd;stroke:none"
         id="path24"
         inkscape:connector-curvature="0" /><path
         d="m 969.164,3137.67 c 353.196,0 655.086,-220.82 774.706,-532.06 L 1356.38,2456.5 c -59.81,155.63 -210.62,266.18 -387.216,266.18 -176.883,0 -327.684,-110.55 -387.496,-266.18 l -387.5,149.11 c 119.91,311.24 421.516,532.06 774.996,532.06 v 0"
         style="fill:#e9e8e7;fill-opacity:1;fill-rule:evenodd;stroke:none"
         id="path26"
         inkscape:connector-curvature="0" /><path
         d="m 2870.64,3137.67 c 353.2,0 655.09,-220.82 774.71,-532.06 L 3258.14,2456.5 c -60.09,155.63 -210.89,266.18 -387.5,266.18 -176.6,0 -327.68,-110.55 -387.5,-266.18 l -387.48,149.11 c 119.9,311.24 421.51,532.06 774.98,532.06 v 0"
         style="fill:#e9e8e7;fill-opacity:1;fill-rule:evenodd;stroke:none"
         id="path28"
         inkscape:connector-curvature="0" /><path
         d="m 2869.23,2722.68 c -176.03,-0.57 -326.27,-110.84 -386.09,-266.18 l -387.48,149.11 c 119.61,310.68 420.94,531.49 773.57,532.06 v -414.99"
         style="fill:#757575;fill-opacity:1;fill-rule:evenodd;stroke:none"
         id="path30"
         inkscape:connector-curvature="0" /><path
         d="m 2873.76,3291.59 v 0 L 2861,2260.91 c -0.28,-20.97 -19.55,-37.41 -40.81,-36.28 v 0 c -21.26,1.13 -38.27,19.56 -36.28,40.82 l 89.85,1026.14"
         style="fill:#100f0d;fill-opacity:1;fill-rule:evenodd;stroke:none"
         id="path32"
         inkscape:connector-curvature="0" /><path
         d="M 748.91,2659.18 C 673.227,2611.84 613.984,2540.98 581.668,2456.5 l -387.5,149.11 c 63.785,165.82 179.437,306.14 326.836,400.82 L 748.91,2659.18"
         style="fill:#757575;fill-opacity:1;fill-rule:evenodd;stroke:none"
         id="path34"
         inkscape:connector-curvature="0" /><path
         d="m 450.141,3177.07 v 0 L 951.59,2276.5 c 10.203,-18.71 1.699,-42.23 -17.293,-51.87 v 0 c -18.988,-9.36 -42.801,-1.98 -51.59,17.29 l -432.566,935.15"
         style="fill:#100f0d;fill-opacity:1;fill-rule:evenodd;stroke:none"
         id="path36"
         inkscape:connector-curvature="0" /></g></g></svg>