<?xml version="1.0" encoding="UTF-8" standalone="no"?>
<!-- Created with Inkscape (http://www.inkscape.org/) -->

<svg
   xmlns:dc="http://purl.org/dc/elements/1.1/"
   xmlns:cc="http://creativecommons.org/ns#"
   xmlns:rdf="http://www.w3.org/1999/02/22-rdf-syntax-ns#"
   xmlns:svg="http://www.w3.org/2000/svg"
   xmlns="http://www.w3.org/2000/svg"
   xmlns:sodipodi="http://sodipodi.sourceforge.net/DTD/sodipodi-0.dtd"
   xmlns:inkscape="http://www.inkscape.org/namespaces/inkscape"
   version="1.1"
   id="svg2"
   xml:space="preserve"
   width="252.77333"
   height="252.77333"
   viewBox="0 0 252.77333 252.77333"
   sodipodi:docname="wolf-background-boilerplate.svg"
   inkscape:version="0.92.3 (2405546, 2018-03-11)"><metadata
     id="metadata8"><rdf:RDF><cc:Work
         rdf:about=""><dc:format>image/svg+xml</dc:format><dc:type
           rdf:resource="http://purl.org/dc/dcmitype/StillImage" /><dc:title></dc:title></cc:Work></rdf:RDF></metadata><defs
     id="defs6"><clipPath
       clipPathUnits="userSpaceOnUse"
       id="clipPath20"><path
         d="M 0,500 H 500 V 0 H 0 Z"
         id="path18"
         inkscape:connector-curvature="0" /></clipPath><clipPath
       clipPathUnits="userSpaceOnUse"
       id="clipPath212"><path
         d="M 0,500 H 500 V 0 H 0 Z"
         id="path210"
         inkscape:connector-curvature="0" /></clipPath></defs><sodipodi:namedview
     pagecolor="#ffffff"
     bordercolor="#666666"
     borderopacity="1"
     objecttolerance="10"
     gridtolerance="10"
     guidetolerance="10"
     inkscape:pageopacity="0"
     inkscape:pageshadow="2"
     inkscape:window-width="1920"
     inkscape:window-height="1020"
     id="namedview4"
     showgrid="false"
     inkscape:zoom="0.70799998"
     inkscape:cx="-256.14193"
     inkscape:cy="303.97956"
     inkscape:window-x="0"
     inkscape:window-y="0"
     inkscape:window-maximized="1"
     inkscape:current-layer="g66" /><g
     id="g10"
     inkscape:groupmode="layer"
     inkscape:label="132794-OSKLQL-466"
     transform="matrix(1.3333333,0,0,-1.3333333,-349.22666,333.19773)"><g
       id="g14"><g
         id="g16"
         clip-path="url(#clipPath20)"><g
           id="g38"
           transform="translate(436.43,314.07)" /><g
           id="g66"
           transform="translate(451.5,155.1083)"><path
             d="m 0,0 c 0,-25.05 -9.71,-47.81 -25.58,-64.76 -14.2,-15.18 -33.35,-25.69 -54.88,-28.95 -4.67,-0.71 -9.46,-1.08 -14.33,-1.08 -52.35,0 -94.79,42.44 -94.79,94.79 0,52.36 42.44,94.79 94.79,94.79 C -42.44,94.79 0,52.36 0,0"
             style="fill:#3867fa;fill-opacity:1;fill-rule:nonzero;stroke:none"
             id="path68"
             inkscape:connector-curvature="0" /></g><g
           id="g70"
           transform="translate(365.5133,152.9283)"><path
             d="m 0,0 c -16.937,-1.837 -35.509,5.804 -44.957,20.267 -12.712,19.456 -4.164,45.077 15.541,55.839 12.356,6.747 27.874,6.712 40.831,1.659 C 35.511,68.366 45.174,34.208 28.431,13.864 21.742,5.736 10.811,1.173 0,0"
             style="fill:#ffffd4;fill-opacity:1;fill-rule:nonzero;stroke:none"
             id="path72"
             inkscape:connector-curvature="0" /></g><g
           id="g74"
           transform="translate(371.6646,159.0796)"><path
             d="m 0,0 c -16.937,-1.837 -35.509,5.804 -44.957,20.267 -9.583,14.667 -7.08,32.835 3.174,45.502 C -56.921,53.485 -62.387,31.379 -51.109,14.116 -41.66,-0.347 -23.088,-7.988 -6.151,-6.151 4.66,-4.979 15.591,-0.416 22.28,7.712 22.552,8.043 22.798,8.387 23.056,8.724 16.599,3.784 8.268,0.897 0,0"
             style="fill:#e0c3a2;fill-opacity:1;fill-rule:nonzero;stroke:none"
             id="path76"
             inkscape:connector-curvature="0" /></g><g
           id="g78"
           transform="translate(406.8246,197.0443)"><path
             d="M 0,0 0.71,-1.278 1.988,-1.988 0.71,-2.699 0,-3.977 l -0.71,1.278 -1.278,0.711 1.278,0.71 z"
             style="fill:#ffffff;fill-opacity:1;fill-rule:nonzero;stroke:none"
             id="path80"
             inkscape:connector-curvature="0" /></g><g
           id="g82"
           transform="translate(422.7387,206.0501)"><path
             d="M 0,0 0.355,-0.639 0.994,-0.994 0.355,-1.349 0,-1.988 l -0.355,0.639 -0.639,0.355 0.639,0.355 z"
             style="fill:#ffffff;fill-opacity:1;fill-rule:nonzero;stroke:none"
             id="path84"
             inkscape:connector-curvature="0" /></g><g
           id="g86"
           transform="translate(312.4496,156.1026)"><path
             d="M 0,0 0.355,-0.639 0.994,-0.994 0.355,-1.349 0,-1.989 l -0.355,0.64 -0.639,0.355 0.639,0.355 z"
             style="fill:#ffffff;fill-opacity:1;fill-rule:nonzero;stroke:none"
             id="path88"
             inkscape:connector-curvature="0" /></g><g
           id="g90"
           transform="translate(299.3551,103.5902)"><path
             d="M 0,0 0.355,-0.639 0.994,-0.994 0.355,-1.349 0,-1.989 l -0.355,0.64 -0.639,0.355 0.639,0.355 z"
             style="fill:#ffffff;fill-opacity:1;fill-rule:nonzero;stroke:none"
             id="path92"
             inkscape:connector-curvature="0" /></g><g
           id="g94"
           transform="translate(433.6522,128.9842)"><path
             d="M 0,0 0.355,-0.639 0.994,-0.994 0.355,-1.349 0,-1.988 l -0.355,0.639 -0.639,0.355 0.639,0.355 z"
             style="fill:#ffffff;fill-opacity:1;fill-rule:nonzero;stroke:none"
             id="path96"
             inkscape:connector-curvature="0" /></g><g
           id="g98"
           transform="translate(282.2997,170.0284)"><path
             d="M 0,0 0.55,-0.99 1.541,-1.541 0.55,-2.091 0,-3.081 l -0.55,0.99 -0.991,0.55 0.991,0.551 z"
             style="fill:#ffffff;fill-opacity:1;fill-rule:nonzero;stroke:none"
             id="path100"
             inkscape:connector-curvature="0" /></g><g
           id="g102"
           transform="translate(283.8404,132.3613)"><path
             d="M 0,0 0.781,-1.405 2.186,-2.186 0.781,-2.966 0,-4.371 l -0.781,1.405 -1.405,0.78 1.405,0.781 z"
             style="fill:#ffffff;fill-opacity:1;fill-rule:nonzero;stroke:none"
             id="path104"
             inkscape:connector-curvature="0" /></g><g
           id="g106"
           transform="translate(430.4723,166.4139)"><path
             d="M 0,0 0.781,-1.405 2.186,-2.186 0.781,-2.966 0,-4.371 l -0.781,1.405 -1.405,0.78 1.405,0.781 z"
             style="fill:#ffffff;fill-opacity:1;fill-rule:nonzero;stroke:none"
             id="path108"
             inkscape:connector-curvature="0" /></g><g
           id="g110"
           transform="translate(418.3123,115.2784)"><path
             d="m 0,0 c -2.201,3.174 -4.187,6.655 -5.211,10.406 -0.491,1.802 -0.79,3.659 -1.407,5.422 -3.681,10.52 -18.259,16.131 -28.178,17.669 -2.449,0.38 -4.84,1.147 -6.947,2.471 -0.546,0.343 -3.933,4.029 -3.782,4.008 0.441,-0.061 0.882,-0.121 1.322,-0.182 -1.444,1.578 -2.888,3.157 -4.332,4.735 0.963,-0.158 1.926,-0.317 2.889,-0.476 -1.315,1.408 -2.63,2.816 -3.946,4.224 -1.319,1.414 -2.639,2.827 -3.959,4.241 -1.254,1.342 -1.762,3.959 -2.06,6.029 0.79,0.056 1.531,0.157 2.023,0.186 -0.27,0.385 -0.757,1.044 -1.341,1.699 0.65,0.057 1.243,0.132 1.658,0.157 -0.571,0.816 -2.114,2.86 -3.496,3.488 -0.851,2.57 -2.226,5.066 -4.322,6.327 -2.642,1.59 -5.316,2.902 -4.913,6.617 0.067,0.623 -0.298,1.267 -0.865,1.527 -0.568,0.26 -1.295,0.117 -1.721,-0.339 -0.141,-0.15 -0.255,-0.333 -0.431,-0.442 -0.298,-0.183 -0.678,-0.102 -1.027,-0.103 -3.638,-0.014 -2.627,-4.827 -2.719,-6.866 0.047,1.037 -0.655,3.352 -1.864,3.226 -1.278,-0.133 -1.227,-2.505 -1.227,-3.458 -0.003,-3.135 1.37,-6.091 2.076,-9.095 1.658,-7.066 -2.018,-13.95 -3.667,-20.825 0.103,0.428 1.271,1.032 1.638,1.216 -0.259,-3.852 1.24,-8.146 1.887,-11.986 0.49,-2.906 2.199,-5.378 2.817,-8.185 0.549,-2.494 0.093,-5.129 0.053,-7.721 -0.105,-6.879 -0.303,-13.781 -1.506,-20.571 -1.403,0.241 -2.917,-0.586 -3.473,-1.895 1.568,-0.302 3.136,-0.604 4.704,-0.905 0.293,-0.057 0.621,-0.107 0.872,0.056 0.212,0.138 0.31,0.393 0.396,0.632 0.812,2.267 1.902,4.498 2.55,6.812 0.898,3.204 1.048,6.03 2.888,9.003 -0.159,-0.257 0.558,-2.965 0.607,-3.457 0.104,-1.041 0.335,-1.997 0.475,-3.021 0.398,-2.913 -0.449,-5.861 -0.31,-8.788 -0.698,0.228 -1.476,0.298 -2.157,0.024 -0.68,-0.274 -1.228,-0.949 -1.198,-1.682 1.493,-0.565 3.294,-0.976 4.877,-1.176 1.119,-0.14 5.432,16.162 6.025,17.96 1.314,3.978 1.619,3.536 5.915,3.723 3.619,0.157 7.238,0.317 10.856,0.475 0.204,0.009 0.421,0.015 0.598,-0.085 0.251,-0.142 0.348,-0.449 0.427,-0.726 1.483,-5.224 3.878,-10.187 7.045,-14.598 0.37,-0.516 0.76,-1.045 0.893,-1.666 0.119,-0.554 0.021,-1.129 -0.077,-1.687 -0.084,-0.479 -1.015,-6.993 -0.955,-7.011 -0.693,0.208 -1.396,0.143 -2.065,-0.107 -0.063,-0.024 -1.638,-0.96 -1.117,-1.087 1.192,-0.29 2.384,-0.58 3.576,-0.87 0.293,-0.071 0.616,-0.14 0.887,-0.005 0.25,0.124 0.391,0.391 0.516,0.641 0.536,1.077 1.072,2.153 1.608,3.23 1.548,3.109 3.386,6.882 2.157,10.418 -1.154,3.319 -2.09,6.225 -2.133,9.883 0.919,-0.629 1.592,-1.547 2.247,-2.448 2.313,-3.181 4.618,-6.368 6.939,-9.543 1.565,-2.141 4.183,-3.878 3.611,-6.872 -0.193,-1.014 -0.618,-2.016 -0.998,-2.97 -0.277,-0.696 -0.747,-3.058 -1.578,-3.274 -0.315,-0.081 -0.635,0.094 -0.959,0.113 -0.425,0.027 -0.83,-0.222 -1.1,-0.551 -0.269,-0.33 -0.428,-0.734 -0.582,-1.131 1.151,-0.253 2.803,-0.85 4.001,-0.585 1.177,0.26 1.681,1.361 2.34,2.259 1.333,2.059 2.721,5.17 3.461,7.531 1.261,4.025 0.098,9.337 -1.604,13.903 0.996,-1.906 2.11,-3.758 3.222,-5.599 0.965,-1.595 1.946,-3.212 3.299,-4.494 1.986,-1.881 6.035,-3.16 8.773,-3.465 1.886,-0.21 3.578,1.117 4.895,2.483 C 7.023,-7.955 0.691,-0.997 0,0"
             style="fill:#020821;fill-opacity:1;fill-rule:nonzero;stroke:none"
             id="path112"
             inkscape:connector-curvature="0" /></g><g
           id="g114"
           transform="translate(425.92,90.3483)"><path
             d="m 0,0 c -14.2,-15.18 -33.35,-25.69 -54.88,-28.95 -8.52,5.8 -28.25,20.35 -28.25,20.35 1.12,0.64 2.23,1.27 3.34,1.9 -6.65,8.82 -17.86,12.37 -27.46,16.95 -2.64,1.27 -5.41,2.67 -7.78,4.44 -2.58,1.93 -4.68,4.29 -5.59,7.36 -0.25,0.85 -0.38,1.84 0.15,2.56 0.62,0.83 1.83,0.89 2.86,0.87 17.04,-0.3 33.63,-6.86 50.92,-7.77 5.7,-0.29 11.5,-0.33 16.97,-1.97 5.09,-1.53 9.74,-4.4 14.93,-5.54 4.19,-0.92 8.56,-0.68 12.77,-1.51 C -14.28,7.16 -7.5,2.06 0,0"
             style="fill:#020821;fill-opacity:1;fill-rule:nonzero;stroke:none"
             id="path116"
             inkscape:connector-curvature="0" /></g></g></g></g></svg>