<?xml version="1.0" encoding="UTF-8" standalone="no"?>
<!-- Created with Inkscape (http://www.inkscape.org/) -->

<svg
   xmlns:dc="http://purl.org/dc/elements/1.1/"
   xmlns:cc="http://creativecommons.org/ns#"
   xmlns:rdf="http://www.w3.org/1999/02/22-rdf-syntax-ns#"
   xmlns:svg="http://www.w3.org/2000/svg"
   xmlns="http://www.w3.org/2000/svg"
   xmlns:sodipodi="http://sodipodi.sourceforge.net/DTD/sodipodi-0.dtd"
   xmlns:inkscape="http://www.inkscape.org/namespaces/inkscape"
   version="1.1"
   id="svg2"
   xml:space="preserve"
   width="1168.988"
   height="616.05554"
   viewBox="0 0 1168.9881 616.05555"
   sodipodi:docname="wolf-howling-background.svg"
   inkscape:version="0.92.3 (2405546, 2018-03-11)"><metadata
     id="metadata8"><rdf:RDF><cc:Work
         rdf:about=""><dc:format>image/svg+xml</dc:format><dc:type
           rdf:resource="http://purl.org/dc/dcmitype/StillImage" /></cc:Work></rdf:RDF></metadata><defs
     id="defs6"><clipPath
       clipPathUnits="userSpaceOnUse"
       id="clipPath20"><path
         d="M 178.307,500 C 82.164,471.542 10.094,387.006 0,284.286 v 0 -49.647 C 6.145,172.104 35.265,116.321 78.796,75.814 v 0 l 72.845,73.096 c -0.015,0.163 -0.024,0.315 -0.017,0.442 v 0 c 0.091,1.495 5.299,12.117 6.069,15.718 v 0 c 1.382,6.455 1.355,16.076 2.261,17.616 v 0 c 0.907,1.539 6.164,4.851 7.795,6.799 v 0 c 1.631,1.948 3.443,7.565 3.171,8.153 v 0 c -0.272,0.589 -4.937,-4.53 -5.526,-5.073 v 0 c -0.311,-0.286 -0.432,0.055 -0.57,0.396 v 0 c -0.124,0.307 -0.262,0.615 -0.562,0.464 v 0 c -0.635,-0.317 -4.439,-4.348 -4.439,-4.348 v 0 c 0,0 -0.046,2.039 -0.59,1.676 v 0 c -0.543,-0.362 -4.121,-5.164 -4.121,-5.164 v 0 c 0,0 -0.861,2.99 -1.45,2.99 v 0 c -0.588,0 -4.892,-3.624 -4.892,-3.624 v 0 c 0,0 0.997,3.216 0.679,3.397 v 0 c -0.316,0.182 -3.759,-2.989 -5.706,-3.352 v 0 c 0,0 0.407,1.722 0,2.673 v 0 c -0.408,0.951 -5.662,-2.808 -5.662,-2.808 v 0 l 0.633,1.675 -3.623,-0.86 -1.087,2.219 -2.581,0.136 c 0,0 0.724,0.861 0.86,1.994 v 0 c 0,0 -3.669,-0.59 -6.297,0.951 v 0 c 0,0 0.997,0.634 1.405,1.177 v 0 c 0,0 -3.669,1.178 -4.077,1.722 v 0 c 0,0 1.449,0.814 1.449,1.313 v 0 c 0,0 -2.038,0.408 -2.627,1.404 v 0 c 0,0 0.453,0.815 0,2.084 v 0 c -0.452,1.269 -2.99,3.125 -2.491,5.209 v 0 c 0,0 3.126,-1.903 5.798,-1.767 v 0 l 0.045,1.631 c 0,0 3.352,-2.174 6.206,-2.763 v 0 c 1.517,-0.313 3.534,0.231 5.409,0.776 v 0 c 1.653,0.48 3.196,0.961 4.193,0.855 v 0 c 2.13,-0.227 11.37,2.491 12.366,5.3 v 0 c 0,0 -1.63,0.226 -2.038,1.765 v 0 c 0,0 5.028,1.813 6.251,3.761 v 0 c 1.223,1.947 11.369,20.201 15.718,23.1 v 0 c 4.348,2.899 14.313,6.341 16.034,7.61 v 0 c 1.722,1.268 4.983,5.3 6.976,6.885 v 0 c 1.993,1.585 17.79,3.815 19.704,4.348 v 0 c 4.801,1.337 7.707,5.388 10.554,9.422 v 0 c 2.06,2.922 7.474,4.711 7.61,5.255 v 0 c 0.136,0.543 -1.994,1.087 -1.994,1.087 v 0 c 0,0 3.307,0.497 5.481,0.588 v 0 c 2.175,0.091 2.99,0.363 3.805,0.952 v 0 c 0.816,0.588 2.129,0.497 2.492,0.815 v 0 c 0.361,0.317 2.536,4.439 2.4,4.666 v 0 c -0.127,0.211 -1.687,-0.173 -2.031,-0.595 v 0 c 0.224,0.364 1.129,1.786 1.759,2.18 v 0 c 0.726,0.452 6.161,2.582 5.934,2.898 v 0 c -0.226,0.318 -0.498,0.68 -0.498,0.68 v 0 c 0,0 3.216,1.45 3.216,1.812 v 0 c 0,0.362 -0.363,0.679 -0.363,0.679 v 0 c 0,0 2.99,0.68 4.077,1.631 v 0 c 1.087,0.951 2.627,1.812 3.262,2.763 v 0 c 0.633,0.951 0.316,1.722 0.724,2.446 v 0 c 0.408,0.725 0.136,2.944 0.136,2.944 v 0 c 0,0 -4.167,-0.905 -5.164,-0.045 v 0 c -0.996,0.86 3.533,5.707 6.07,7.926 v 0 c 2.537,2.221 3.125,2.809 3.352,3.036 v 0 c 0.226,0.226 3.307,5.208 4.439,8.561 v 0 c 1.132,3.352 5.073,5.888 6.115,6.431 v 0 c 1.042,0.544 5.662,3.941 7.111,7.747 v 0 c 1.45,3.804 5.617,10.055 6.704,10.327 v 0 c 1.087,0.272 5.164,-3.126 5.753,-5.028 v 0 c 0.589,-1.903 0.498,-4.485 0.498,-4.485 v 0 c 0,0 0.906,0.906 1.54,0.815 v 0 c 0.634,-0.089 2.265,-0.815 3.08,-2.988 v 0 c 0.816,-2.175 -2.174,-6.025 -2.31,-7.112 v 0 c -0.136,-1.087 0.458,-12.23 0.07,-13.318 v 0 c -0.387,-1.087 -2.198,-4.755 -2.38,-6.386 v 0 c -0.181,-1.631 -0.272,-3.352 0,-3.669 v 0 c 0.272,-0.317 2.295,-3.125 2.295,-3.125 v 0 c 0,0 -1.978,-0.182 -2.023,-1.223 v 0 c -0.045,-1.042 2.083,-3.624 2.763,-4.258 v 0 c 0.679,-0.635 2.219,-4.982 2.219,-4.982 v 0 c 0,0 -1.903,1.449 -2.174,0.724 v 0 c -0.272,-0.724 0.453,-3.126 0.136,-3.714 v 0 c -0.317,-0.589 -1.766,-2.854 -1.902,-3.986 v 0 c -0.136,-1.133 1.359,-4.303 2.672,-5.435 v 0 c 0,0 -1.54,-0.227 -2.536,0.181 v 0 c 0,0 0.271,-4.032 1.675,-6.161 v 0 c 0,0 -1.223,-0.181 -1.857,0 v 0 c 0,0 1.178,-3.714 1.722,-4.756 v 0 c 0,0 -1.948,-0.271 -2.854,-0.226 v 0 c -0.906,0.045 -0.272,-9.014 -0.861,-10.328 v 0 c 0,0 -2.129,1.132 -2.718,1.042 v 0 c -0.588,-0.091 0.816,-3.17 0.816,-3.17 v 0 c 0,0 -3.08,-0.046 -2.944,-0.726 v 0 c 0.136,-0.679 1.359,-1.494 1.359,-1.494 v 0 c 0,0 0.272,-2.673 -0.046,-5.028 v 0 c -0.317,-2.355 -1.676,-4.847 -1.676,-4.847 v 0 c 0,0 -1.223,2.808 -1.812,2.492 v 0 c -0.588,-0.317 -0.316,-5.436 -0.316,-5.436 v 0 c 0,0 -0.862,2.898 -1.314,3.125 v 0 c -0.453,0.227 -1.404,-4.031 -1.404,-4.031 v 0 c 0,0 -1.404,3.895 -1.994,3.579 v 0 c -0.588,-0.318 -1.041,-5.21 -1.041,-5.21 v 0 c 0,0 -2.039,0.544 -1.948,0 v 0 c 0.09,-0.543 1.631,-2.899 1.631,-2.899 v 0 c 0,0 -3.353,1.404 -3.714,1.088 v 0 c -0.363,-0.317 -0.046,-9.286 -0.998,-11.188 v 0 c 0,0 -1.404,1.54 -2.355,0.452 v 0 c -0.951,-1.087 -1.041,-7.609 -2.355,-9.874 v 0 c 0,0 0.045,1.63 -0.86,1.675 v 0 c -0.907,0.046 -2.13,-3.759 -2.402,-5.797 v 0 c -0.272,-2.039 -0.95,-9.512 -0.678,-13.408 v 0 c 0.271,-3.895 1.313,-9.693 2.717,-11.323 v 0 c 0,0 1.811,1.223 3.578,0 v 0 c 0.415,-0.288 0.712,-0.58 0.93,-0.864 v 0 c 4.643,1.472 7.308,3.361 12.233,4.844 v 0 c 7.519,2.265 26.181,8.516 29.261,8.697 v 0 c 3.08,0.182 20.384,4.167 23.916,2.809 v 0 c 3.533,-1.359 8.154,-5.436 6.795,-7.611 v 0 c -1.359,-2.173 -8.425,-8.968 -8.697,-10.599 v 0 c -0.271,-1.631 0,-5.903 0,-5.903 v 0 c 0,0 0.272,-3.201 -5.571,-6.802 v 0 c -5.843,-3.601 -8.289,-8.561 -8.289,-9.987 v 0 c 0,-1.428 -6.115,-19.433 -7.202,-21.743 v 0 c -0.553,-1.174 -0.372,-4.454 -0.806,-7.735 v 0 L 336.154,23.977 C 427.643,57.613 494.107,143.046 500,244.725 v 0 29.47 C 493.788,381.442 420.181,470.615 320.905,500 v 0 z"
         id="path18"
         inkscape:connector-curvature="0" /></clipPath><clipPath
       clipPathUnits="userSpaceOnUse"
       id="clipPath28"><path
         d="M -32768,32767 H 32767 V -32768 H -32768 Z"
         id="path26"
         inkscape:connector-curvature="0" /></clipPath><radialGradient
       fx="0"
       fy="0"
       cx="0"
       cy="0"
       r="1"
       gradientUnits="userSpaceOnUse"
       gradientTransform="matrix(247.01521,0,0,-247.01521,249.60611,267.12842)"
       spreadMethod="pad"
       id="radialGradient42"><stop
         style="stop-opacity:0.95001144;stop-color:#ffffff"
         offset="0"
         id="stop30" /><stop
         style="stop-opacity:0.95001144;stop-color:#ffffff"
         offset="0.04951959"
         id="stop32" /><stop
         style="stop-opacity:0.6512398;stop-color:#ffffff"
         offset="0.110889"
         id="stop34" /><stop
         style="stop-opacity:0;stop-color:#ffffff"
         offset="0.71834806"
         id="stop36" /><stop
         style="stop-opacity:0;stop-color:#ffffff"
         offset="0.83871"
         id="stop38" /><stop
         style="stop-opacity:0;stop-color:#ffffff"
         offset="1"
         id="stop40" /></radialGradient><mask
       maskUnits="userSpaceOnUse"
       x="0"
       y="0"
       width="1"
       height="1"
       id="mask44"><g
         id="g54"><g
           clip-path="url(#clipPath28)"
           id="g52"><g
             id="g50"><g
               id="g48"><path
                 d="M -32768,32767 H 32767 V -32768 H -32768 Z"
                 style="fill:url(#radialGradient42);stroke:none"
                 id="path46"
                 inkscape:connector-curvature="0" /></g></g></g></g></mask><radialGradient
       fx="0"
       fy="0"
       cx="0"
       cy="0"
       r="1"
       gradientUnits="userSpaceOnUse"
       gradientTransform="matrix(247.01521,0,0,-247.01521,249.60611,267.12842)"
       spreadMethod="pad"
       id="radialGradient72"><stop
         style="stop-opacity:1;stop-color:#ffffff"
         offset="0"
         id="stop60" /><stop
         style="stop-opacity:1;stop-color:#ffffff"
         offset="0.04951959"
         id="stop62" /><stop
         style="stop-opacity:1;stop-color:#ffffff"
         offset="0.110889"
         id="stop64" /><stop
         style="stop-opacity:1;stop-color:#ffffff"
         offset="0.71834806"
         id="stop66" /><stop
         style="stop-opacity:1;stop-color:#ffffff"
         offset="0.83871"
         id="stop68" /><stop
         style="stop-opacity:1;stop-color:#ffffff"
         offset="1"
         id="stop70" /></radialGradient><clipPath
       clipPathUnits="userSpaceOnUse"
       id="clipPath82"><path
         d="M 0,500 H 500 V 0 H 0 Z"
         id="path80"
         inkscape:connector-curvature="0" /></clipPath><clipPath
       clipPathUnits="userSpaceOnUse"
       id="clipPath298"><path
         d="M 0,500 H 500 V 0 H 0 Z"
         id="path296"
         inkscape:connector-curvature="0" /></clipPath></defs><sodipodi:namedview
     pagecolor="#ffffff"
     bordercolor="#666666"
     borderopacity="1"
     objecttolerance="10"
     gridtolerance="10"
     guidetolerance="10"
     inkscape:pageopacity="0"
     inkscape:pageshadow="2"
     inkscape:window-width="1920"
     inkscape:window-height="1020"
     id="namedview4"
     showgrid="false"
     inkscape:zoom="0.50063159"
     inkscape:cx="805.21865"
     inkscape:cy="108.06054"
     inkscape:window-x="0"
     inkscape:window-y="0"
     inkscape:window-maximized="1"
     inkscape:current-layer="g10" /><g
     id="g10"
     inkscape:groupmode="layer"
     inkscape:label="131885-OS5PIM-491"
     transform="matrix(1.3333333,0,0,-1.3333333,293.46279,687.95852)"><path
       d="M -220.0971,53.927234 H 656.64393 V 515.9689 H -220.0971 Z"
       style="fill:#3d3d3d;fill-opacity:1;fill-rule:nonzero;stroke:none;stroke-width:1.27293503"
       id="path12"
       inkscape:connector-curvature="0" /><g
       id="g14"
       transform="matrix(0.92710541,0,0,0.92710541,-4.4228413,45.450896)"><g
         id="g16"
         clip-path="url(#clipPath20)"><g
           id="g22"><g
             id="g24" /><g
             id="g56"
             mask="url(#mask44)"><g
               id="g58"><path
                 d="M 178.307,500 C 82.164,471.542 10.094,387.006 0,284.286 v 0 -49.647 C 6.145,172.104 35.265,116.321 78.796,75.814 v 0 l 72.845,73.096 c -0.015,0.163 -0.024,0.315 -0.017,0.442 v 0 c 0.091,1.495 5.299,12.117 6.069,15.718 v 0 c 1.382,6.455 1.355,16.076 2.261,17.616 v 0 c 0.907,1.539 6.164,4.851 7.795,6.799 v 0 c 1.631,1.948 3.443,7.565 3.171,8.153 v 0 c -0.272,0.589 -4.937,-4.53 -5.526,-5.073 v 0 c -0.311,-0.286 -0.432,0.055 -0.57,0.396 v 0 c -0.124,0.307 -0.262,0.615 -0.562,0.464 v 0 c -0.635,-0.317 -4.439,-4.348 -4.439,-4.348 v 0 c 0,0 -0.046,2.039 -0.59,1.676 v 0 c -0.543,-0.362 -4.121,-5.164 -4.121,-5.164 v 0 c 0,0 -0.861,2.99 -1.45,2.99 v 0 c -0.588,0 -4.892,-3.624 -4.892,-3.624 v 0 c 0,0 0.997,3.216 0.679,3.397 v 0 c -0.316,0.182 -3.759,-2.989 -5.706,-3.352 v 0 c 0,0 0.407,1.722 0,2.673 v 0 c -0.408,0.951 -5.662,-2.808 -5.662,-2.808 v 0 l 0.633,1.675 -3.623,-0.86 -1.087,2.219 -2.581,0.136 c 0,0 0.724,0.861 0.86,1.994 v 0 c 0,0 -3.669,-0.59 -6.297,0.951 v 0 c 0,0 0.997,0.634 1.405,1.177 v 0 c 0,0 -3.669,1.178 -4.077,1.722 v 0 c 0,0 1.449,0.814 1.449,1.313 v 0 c 0,0 -2.038,0.408 -2.627,1.404 v 0 c 0,0 0.453,0.815 0,2.084 v 0 c -0.452,1.269 -2.99,3.125 -2.491,5.209 v 0 c 0,0 3.126,-1.903 5.798,-1.767 v 0 l 0.045,1.631 c 0,0 3.352,-2.174 6.206,-2.763 v 0 c 1.517,-0.313 3.534,0.231 5.409,0.776 v 0 c 1.653,0.48 3.196,0.961 4.193,0.855 v 0 c 2.13,-0.227 11.37,2.491 12.366,5.3 v 0 c 0,0 -1.63,0.226 -2.038,1.765 v 0 c 0,0 5.028,1.813 6.251,3.761 v 0 c 1.223,1.947 11.369,20.201 15.718,23.1 v 0 c 4.348,2.899 14.313,6.341 16.034,7.61 v 0 c 1.722,1.268 4.983,5.3 6.976,6.885 v 0 c 1.993,1.585 17.79,3.815 19.704,4.348 v 0 c 4.801,1.337 7.707,5.388 10.554,9.422 v 0 c 2.06,2.922 7.474,4.711 7.61,5.255 v 0 c 0.136,0.543 -1.994,1.087 -1.994,1.087 v 0 c 0,0 3.307,0.497 5.481,0.588 v 0 c 2.175,0.091 2.99,0.363 3.805,0.952 v 0 c 0.816,0.588 2.129,0.497 2.492,0.815 v 0 c 0.361,0.317 2.536,4.439 2.4,4.666 v 0 c -0.127,0.211 -1.687,-0.173 -2.031,-0.595 v 0 c 0.224,0.364 1.129,1.786 1.759,2.18 v 0 c 0.726,0.452 6.161,2.582 5.934,2.898 v 0 c -0.226,0.318 -0.498,0.68 -0.498,0.68 v 0 c 0,0 3.216,1.45 3.216,1.812 v 0 c 0,0.362 -0.363,0.679 -0.363,0.679 v 0 c 0,0 2.99,0.68 4.077,1.631 v 0 c 1.087,0.951 2.627,1.812 3.262,2.763 v 0 c 0.633,0.951 0.316,1.722 0.724,2.446 v 0 c 0.408,0.725 0.136,2.944 0.136,2.944 v 0 c 0,0 -4.167,-0.905 -5.164,-0.045 v 0 c -0.996,0.86 3.533,5.707 6.07,7.926 v 0 c 2.537,2.221 3.125,2.809 3.352,3.036 v 0 c 0.226,0.226 3.307,5.208 4.439,8.561 v 0 c 1.132,3.352 5.073,5.888 6.115,6.431 v 0 c 1.042,0.544 5.662,3.941 7.111,7.747 v 0 c 1.45,3.804 5.617,10.055 6.704,10.327 v 0 c 1.087,0.272 5.164,-3.126 5.753,-5.028 v 0 c 0.589,-1.903 0.498,-4.485 0.498,-4.485 v 0 c 0,0 0.906,0.906 1.54,0.815 v 0 c 0.634,-0.089 2.265,-0.815 3.08,-2.988 v 0 c 0.816,-2.175 -2.174,-6.025 -2.31,-7.112 v 0 c -0.136,-1.087 0.458,-12.23 0.07,-13.318 v 0 c -0.387,-1.087 -2.198,-4.755 -2.38,-6.386 v 0 c -0.181,-1.631 -0.272,-3.352 0,-3.669 v 0 c 0.272,-0.317 2.295,-3.125 2.295,-3.125 v 0 c 0,0 -1.978,-0.182 -2.023,-1.223 v 0 c -0.045,-1.042 2.083,-3.624 2.763,-4.258 v 0 c 0.679,-0.635 2.219,-4.982 2.219,-4.982 v 0 c 0,0 -1.903,1.449 -2.174,0.724 v 0 c -0.272,-0.724 0.453,-3.126 0.136,-3.714 v 0 c -0.317,-0.589 -1.766,-2.854 -1.902,-3.986 v 0 c -0.136,-1.133 1.359,-4.303 2.672,-5.435 v 0 c 0,0 -1.54,-0.227 -2.536,0.181 v 0 c 0,0 0.271,-4.032 1.675,-6.161 v 0 c 0,0 -1.223,-0.181 -1.857,0 v 0 c 0,0 1.178,-3.714 1.722,-4.756 v 0 c 0,0 -1.948,-0.271 -2.854,-0.226 v 0 c -0.906,0.045 -0.272,-9.014 -0.861,-10.328 v 0 c 0,0 -2.129,1.132 -2.718,1.042 v 0 c -0.588,-0.091 0.816,-3.17 0.816,-3.17 v 0 c 0,0 -3.08,-0.046 -2.944,-0.726 v 0 c 0.136,-0.679 1.359,-1.494 1.359,-1.494 v 0 c 0,0 0.272,-2.673 -0.046,-5.028 v 0 c -0.317,-2.355 -1.676,-4.847 -1.676,-4.847 v 0 c 0,0 -1.223,2.808 -1.812,2.492 v 0 c -0.588,-0.317 -0.316,-5.436 -0.316,-5.436 v 0 c 0,0 -0.862,2.898 -1.314,3.125 v 0 c -0.453,0.227 -1.404,-4.031 -1.404,-4.031 v 0 c 0,0 -1.404,3.895 -1.994,3.579 v 0 c -0.588,-0.318 -1.041,-5.21 -1.041,-5.21 v 0 c 0,0 -2.039,0.544 -1.948,0 v 0 c 0.09,-0.543 1.631,-2.899 1.631,-2.899 v 0 c 0,0 -3.353,1.404 -3.714,1.088 v 0 c -0.363,-0.317 -0.046,-9.286 -0.998,-11.188 v 0 c 0,0 -1.404,1.54 -2.355,0.452 v 0 c -0.951,-1.087 -1.041,-7.609 -2.355,-9.874 v 0 c 0,0 0.045,1.63 -0.86,1.675 v 0 c -0.907,0.046 -2.13,-3.759 -2.402,-5.797 v 0 c -0.272,-2.039 -0.95,-9.512 -0.678,-13.408 v 0 c 0.271,-3.895 1.313,-9.693 2.717,-11.323 v 0 c 0,0 1.811,1.223 3.578,0 v 0 c 0.415,-0.288 0.712,-0.58 0.93,-0.864 v 0 c 4.643,1.472 7.308,3.361 12.233,4.844 v 0 c 7.519,2.265 26.181,8.516 29.261,8.697 v 0 c 3.08,0.182 20.384,4.167 23.916,2.809 v 0 c 3.533,-1.359 8.154,-5.436 6.795,-7.611 v 0 c -1.359,-2.173 -8.425,-8.968 -8.697,-10.599 v 0 c -0.271,-1.631 0,-5.903 0,-5.903 v 0 c 0,0 0.272,-3.201 -5.571,-6.802 v 0 c -5.843,-3.601 -8.289,-8.561 -8.289,-9.987 v 0 c 0,-1.428 -6.115,-19.433 -7.202,-21.743 v 0 c -0.553,-1.174 -0.372,-4.454 -0.806,-7.735 v 0 L 336.154,23.977 C 427.643,57.613 494.107,143.046 500,244.725 v 0 29.47 C 493.788,381.442 420.181,470.615 320.905,500 v 0 z"
                 style="fill:url(#radialGradient72);stroke:none"
                 id="path74"
                 inkscape:connector-curvature="0" /></g></g></g></g></g><g
       id="g76"
       transform="matrix(0.92710541,0,0,0.92710541,-4.4228413,45.450896)"><g
         id="g78"
         clip-path="url(#clipPath82)"><g
           id="g84"
           transform="translate(190.3069,176.1225)"><path
             d="m 0,0 c 0.272,1.178 0.861,9.784 0.181,10.463 -0.679,0.68 -15.763,-9.331 -16.941,-10.825 -1.177,-1.495 -3.261,-8.697 -3.759,-9.513 -0.498,-0.815 -7.157,-13.769 -6.794,-15.581 1.002,-5.015 1.494,-6.976 2.853,-7.384 0.467,-0.139 1.201,-0.296 1.966,-0.494 3.12,0.83 5.972,1.808 7.935,2.935 7.338,4.213 7.474,4.213 8.833,4.213 0.3,0 1.685,0.271 3.703,0.694 -0.271,0.943 -0.514,2.181 -0.514,3.161 0,1.585 -0.045,10.871 -2.264,13.725 l -1.676,-1.495 c 0,0 1.812,4.756 1.404,5.526 -0.408,0.77 -1.721,0.861 -1.721,0.861 0,0 4.257,1.54 5.027,1.812 C -0.997,-1.631 -0.272,-1.178 0,0"
             style="fill:#ffffff;fill-opacity:1;fill-rule:nonzero;stroke:none"
             id="path86"
             inkscape:connector-curvature="0" /></g><g
           id="g88"
           transform="translate(226.6796,210.4116)"><path
             d="m 0,0 c -0.045,1.268 -5.39,-3.261 -6.387,-7.111 -0.996,-3.851 -2.944,-14.948 -4.303,-16.805 -1.359,-1.857 -4.575,-6.296 -9.557,-9.739 -4.983,-3.442 -8.063,-6.296 -8.561,-8.334 -0.498,-2.039 -0.68,-8.29 0.453,-10.101 1.132,-1.812 5.299,-0.906 6.296,-2.084 0.425,-0.502 0.783,-1.228 1.005,-1.975 3.709,0.723 6.789,1.245 8.036,1.245 4.076,0 11.55,6.93 16.442,7.746 3.494,0.582 8.167,4.074 13.028,6.001 -1.2,2.028 -4.187,8.256 -4.358,8.997 -0.204,0.883 0.272,6.59 0.544,8.765 0.271,2.174 -0.952,22.965 -0.952,22.965 0,0 -5.17,-1.671 -6.121,-3.845 0,0 -0.356,0.878 -0.039,1.829 l -4.201,-1.891 0.668,2.253 c 0,0 -1.348,-0.724 -3.386,-0.351 0,0 1.438,1.167 1.393,2.435"
             style="fill:#ffffff;fill-opacity:1;fill-rule:nonzero;stroke:none"
             id="path90"
             inkscape:connector-curvature="0" /></g><g
           id="g92"
           transform="translate(254.8051,426.9608)"><path
             d="m 0,0 c -87.352,0 -158.165,-70.813 -158.165,-158.165 0,-47.932 21.325,-90.88 55.001,-119.886 -0.016,0.163 -0.025,0.316 -0.017,0.443 0.091,1.495 5.299,12.116 6.07,15.717 1.381,6.455 1.354,16.076 2.26,17.616 0.906,1.54 6.165,4.851 7.795,6.799 1.631,1.948 3.443,7.564 3.171,8.153 -0.272,0.589 -4.937,-4.529 -5.526,-5.073 -0.589,-0.543 -0.498,1.178 -1.132,0.861 -0.635,-0.317 -4.439,-4.349 -4.439,-4.349 0,0 -0.046,2.039 -0.589,1.676 -0.544,-0.362 -4.122,-5.163 -4.122,-5.163 0,0 -0.861,2.989 -1.45,2.989 -0.589,0 -4.892,-3.624 -4.892,-3.624 0,0 0.997,3.216 0.68,3.398 -0.317,0.181 -3.76,-2.99 -5.708,-3.352 0,0 0.408,1.721 0,2.672 -0.407,0.951 -5.661,-2.808 -5.661,-2.808 l 0.634,1.676 -3.624,-0.861 -1.087,2.22 -2.582,0.136 c 0,0 0.725,0.86 0.861,1.993 0,0 -3.669,-0.589 -6.297,0.951 0,0 0.997,0.634 1.405,1.177 0,0 -3.669,1.178 -4.077,1.722 0,0 1.449,0.815 1.449,1.313 0,0 -2.038,0.408 -2.627,1.404 0,0 0.453,0.816 0,2.084 -0.453,1.268 -2.989,3.126 -2.491,5.209 0,0 3.126,-1.902 5.798,-1.766 l 0.045,1.63 c 0,0 3.352,-2.174 6.206,-2.763 2.853,-0.589 7.474,1.857 9.603,1.631 2.128,-0.227 11.369,2.491 12.365,5.299 0,0 -1.63,0.227 -2.038,1.767 0,0 5.028,1.812 6.251,3.76 1.223,1.947 11.369,20.202 15.718,23.1 4.348,2.899 14.313,6.342 16.034,7.61 1.722,1.269 4.983,5.3 6.976,6.885 1.993,1.586 17.79,3.816 19.704,4.349 4.801,1.336 7.708,5.387 10.554,9.421 2.061,2.922 7.473,4.711 7.609,5.255 0.136,0.543 -1.993,1.087 -1.993,1.087 0,0 3.307,0.498 5.481,0.588 2.174,0.091 2.99,0.363 3.805,0.952 0.815,0.589 2.129,0.498 2.491,0.815 0.363,0.317 2.537,4.439 2.401,4.666 -0.136,0.226 -1.902,-0.227 -2.084,-0.68 0,0 1.087,1.812 1.812,2.265 0.725,0.453 6.16,2.582 5.934,2.899 -0.227,0.317 -0.498,0.679 -0.498,0.679 0,0 3.216,1.45 3.216,1.812 0,0.363 -0.363,0.68 -0.363,0.68 0,0 2.99,0.679 4.077,1.63 1.087,0.951 2.627,1.812 3.261,2.763 0.634,0.952 0.317,1.722 0.725,2.446 0.408,0.725 0.136,2.945 0.136,2.945 0,0 -4.167,-0.906 -5.164,-0.046 -0.996,0.861 3.533,5.708 6.07,7.927 2.536,2.22 3.125,2.808 3.352,3.035 0.226,0.226 3.306,5.209 4.439,8.561 1.132,3.352 5.073,5.888 6.115,6.432 1.041,0.543 5.662,3.941 7.111,7.745 1.45,3.805 5.617,10.056 6.704,10.328 1.087,0.272 5.164,-3.126 5.753,-5.028 0.588,-1.902 0.498,-4.484 0.498,-4.484 0,0 0.906,0.906 1.54,0.815 0.634,-0.091 2.265,-0.815 3.08,-2.989 0.815,-2.175 -2.174,-6.025 -2.31,-7.112 -0.136,-1.087 0.458,-12.23 0.07,-13.317 -0.387,-1.087 -2.199,-4.756 -2.38,-6.387 -0.181,-1.63 -0.272,-3.352 0,-3.669 0.272,-0.317 2.294,-3.125 2.294,-3.125 0,0 -1.977,-0.181 -2.022,-1.223 -0.046,-1.042 2.083,-3.624 2.763,-4.258 0.679,-0.634 2.219,-4.983 2.219,-4.983 0,0 -1.902,1.45 -2.174,0.725 -0.272,-0.725 0.453,-3.125 0.136,-3.714 -0.317,-0.589 -1.767,-2.854 -1.903,-3.986 -0.135,-1.132 1.359,-4.303 2.673,-5.436 0,0 -1.54,-0.226 -2.537,0.182 0,0 0.272,-4.032 1.676,-6.161 0,0 -1.223,-0.181 -1.857,0 0,0 1.178,-3.714 1.721,-4.756 0,0 -1.947,-0.271 -2.853,-0.226 -0.906,0.045 -0.272,-9.014 -0.861,-10.328 0,0 -2.129,1.133 -2.718,1.042 -0.588,-0.09 0.816,-3.171 0.816,-3.171 0,0 -3.08,-0.045 -2.945,-0.724 0.136,-0.68 1.359,-1.495 1.359,-1.495 0,0 0.272,-2.673 -0.045,-5.028 -0.317,-2.355 -1.676,-4.847 -1.676,-4.847 0,0 -1.223,2.809 -1.812,2.492 -0.589,-0.317 -0.317,-5.436 -0.317,-5.436 0,0 -0.86,2.899 -1.313,3.126 -0.453,0.226 -1.405,-4.032 -1.405,-4.032 0,0 -1.404,3.896 -1.993,3.579 -0.589,-0.317 -1.041,-5.209 -1.041,-5.209 0,0 -2.039,0.543 -1.948,0 0.09,-0.544 1.63,-2.899 1.63,-2.899 0,0 -3.351,1.404 -3.714,1.087 -0.362,-0.317 -0.045,-9.286 -0.996,-11.188 0,0 -1.404,1.54 -2.356,0.453 -0.951,-1.087 -1.041,-7.61 -2.355,-9.875 0,0 0.045,1.631 -0.861,1.676 -0.906,0.045 -2.129,-3.76 -2.4,-5.798 -0.272,-2.038 -0.952,-9.512 -0.68,-13.407 0.272,-3.896 1.314,-9.694 2.718,-11.324 0,0 1.812,1.223 3.578,0 0.415,-0.288 0.712,-0.579 0.93,-0.864 4.642,1.472 7.307,3.361 12.233,4.844 7.519,2.265 26.181,8.516 29.261,8.697 3.08,0.182 20.383,4.168 23.916,2.809 3.533,-1.359 8.154,-5.436 6.795,-7.61 -1.359,-2.174 -8.425,-8.969 -8.697,-10.599 -0.272,-1.631 0,-5.904 0,-5.904 0,0 0.272,-3.201 -5.571,-6.802 -5.844,-3.601 -8.29,-8.561 -8.29,-9.988 0,-1.426 -6.115,-19.432 -7.202,-21.742 -0.552,-1.174 -0.371,-4.454 -0.805,-7.735 55.298,24.644 93.85,80.083 93.85,144.532 C 158.165,-70.813 87.352,0 0,0"
             style="fill:#ffffff;fill-opacity:1;fill-rule:nonzero;stroke:none"
             id="path94"
             inkscape:connector-curvature="0" /></g><g
           id="g96"
           transform="translate(259.8815,213.7181)"><path
             d="m 0,0 c -0.136,0.544 -1.778,-1.189 -2.729,-6.217 0,0 -1.257,2.203 -2.027,2.91 -0.264,0.243 -1.209,-0.755 -1.982,-2.196 0,0 -0.826,0.747 -0.962,2.196 -0.136,1.45 -0.861,-0.77 -1.042,-2.4 -0.181,-1.631 -1.223,-23.713 -1.495,-26.906 -0.272,-3.193 0.951,-4.145 1.903,-5.436 0.951,-1.291 1.834,-2.242 3.261,-2.785 0.284,-0.108 0.605,-0.199 0.931,-0.293 1.947,1.115 4.211,2.43 8.317,3.271 -0.989,1.164 -2.388,3.375 -2.454,4.065 -0.09,0.951 -0.136,11.505 -0.226,14.042 -0.091,2.537 -1.767,10.373 -1.948,12.366 C -0.634,-5.39 0.136,-0.544 0,0"
             style="fill:#ffffff;fill-opacity:1;fill-rule:nonzero;stroke:none"
             id="path98"
             inkscape:connector-curvature="0" /></g><g
           id="g100"
           transform="translate(200,413.25)"><path
             d="m 0,0 c 6.992,0.499 15.73,6.736 20.275,9.919 -45.41,-10.113 -83.46,-39.743 -104.891,-79.637 0.937,0.542 2.135,1.541 3.616,3.468 5.62,7.312 10.241,17.985 14.495,18.252 4.253,0.268 0.914,6.113 6.005,9.498 5.091,3.385 6.974,2.25 8.25,8.249 1.276,5.999 2.294,0.111 8.521,0.348 6.227,0.236 3.979,3.903 9.196,9.497 5.217,5.594 2.153,1.362 7.783,3.291 5.63,1.93 3,-0.135 8,0 5,0.136 -0.75,6.865 4.883,12.115 5.633,5.25 1.867,2 5.117,3 C -5.5,-1 -7,-0.5 0,0"
             style="fill:#efeeda;fill-opacity:1;fill-rule:nonzero;stroke:none"
             id="path102"
             inkscape:connector-curvature="0" /></g><g
           id="g104"
           transform="translate(404.5,312.5)"><path
             d="m 0,0 c 0,-1.5 -0.75,-4.75 -1,-6.5 -0.25,-1.75 0,-2.25 0.25,-4.71 0.25,-2.46 4.5,-4.04 5.5,-7.79 C 5.75,-22.75 5.5,-34.5 5,-36.888 4.5,-39.275 4.5,-38 4.75,-39.5 5,-41 6.5,-52.25 6.5,-56.25 c 0,-4 -1.25,-2.5 -1.25,-2.5 0,0 -3.75,-3.25 -7.75,-6.5 -4,-3.25 1.75,-6.5 3.756,-8.75 C 3.262,-76.25 1,-79.75 1.25,-85.75 c 0.25,-6 -7.25,-15.5 -7.689,-16.121 -0.439,-0.621 -1.311,-7.629 -1.311,-7.629 0,0 -3.75,-3.25 -7.939,-8 -4.189,-4.75 -0.811,-5.25 -0.061,-6.25 0.75,-1 -5.595,-12.391 -8.25,-13.597 -2.655,-1.206 -8.25,-2.403 -9.165,-2.885 -0.914,-0.482 -7.585,-9.518 -8.835,-12.018 -1.25,-2.5 -5.75,-7 -9.75,-10 -4,-3 -4.25,-5.25 -8.25,-6.5 -4,-1.25 -4.5,-2 -7.5,-4.5 -3,-2.5 -6,-3.75 -10.25,-4 -2.029,-0.119 -4.341,-1.211 -6.532,-2.56 -0.118,-0.295 -0.218,-0.533 -0.293,-0.691 -0.552,-1.174 -0.371,-4.454 -0.805,-7.735 55.298,24.644 93.85,80.083 93.85,144.532 0,18.157 -3.069,35.595 -8.7,51.835 C 0.947,4.733 0,1.483 0,0"
             style="fill:#efeeda;fill-opacity:1;fill-rule:nonzero;stroke:none"
             id="path106"
             inkscape:connector-curvature="0" /></g><g
           id="g108"
           transform="translate(285.25,420.25)"><path
             d="m 0,0 c 0,0 5,0.25 9.5,0 4.5,-0.25 1.25,-0.75 7.5,-4 6.25,-3.25 0.25,-1.75 1.75,-4.75 1.486,-2.972 10.442,3.631 11.275,3.479 -18.63,7.715 -39.051,11.982 -60.47,11.982 -10.738,0 -21.224,-1.076 -31.362,-3.115 0.708,-0.803 0.985,-2.556 3.307,-2.846 4,-0.5 5,-0.5 9.75,-1.75 4.75,-1.25 2.25,1.5 9.682,5.5 7.432,4 5.818,-0.75 13.318,-1.5 7.5,-0.75 14.25,-2.5 16,-4.25 C -8,-3 0,0 0,0"
             style="fill:#efeeda;fill-opacity:1;fill-rule:nonzero;stroke:none"
             id="path110"
             inkscape:connector-curvature="0" /></g><g
           id="g112"
           transform="translate(404.187,320.8656)"><path
             d="m 0,0 c -14.848,42.601 -47.398,76.899 -88.844,94.085 0.719,-0.389 2.685,-3.735 4.17,-5.588 1.513,-1.888 0.237,-1.863 0,-2.863 -0.237,-1 1.737,-2.25 5.13,-5 3.393,-2.75 2.857,1.516 2.857,1.516 0,0 10.25,-2.016 12.25,-3.766 2,-1.75 3,-3.25 3.5,-5.882 0.5,-2.633 1.75,-3.368 3,-5.118 1.25,-1.75 7.5,-2.5 12.75,-3.857 5.25,-1.356 3.25,-2.643 6.75,-6.618 3.5,-3.976 7.5,-8.525 7.5,-10.284 0,-1.759 6,-6.991 11.335,-10.741 5.334,-3.75 1.165,-3.25 4.499,-6.5 3.334,-3.25 3.975,-4.578 3.27,-8.75 C -12.529,16.508 -1.439,3.607 0,0"
             style="fill:#efeeda;fill-opacity:1;fill-rule:nonzero;stroke:none"
             id="path114"
             inkscape:connector-curvature="0" /></g><g
           id="g116"
           transform="translate(152.5103,156)"><path
             d="m 0,0 c -3.49,3 -6.76,1.75 -8.76,3.75 -2,2 -3,3.75 -6.296,8.204 -3.296,4.454 -3.454,10.546 -4.923,13.546 -1.469,3 -6.031,3.5 -10.212,5.119 -4.18,1.619 -5.069,8.881 -5.01,11.066 0.059,2.185 -1.809,4.565 -5.309,11.815 -3.5,7.25 -2.25,1.5 -4.209,6.75 -1.958,5.25 -0.791,2.75 -2.041,7.25 -1.25,4.5 0.5,2.25 3.25,5.49 2.75,3.24 -5.25,14.26 -8.25,18.76 -3,4.5 -2.25,6 -1.842,10.75 0.408,4.75 -0.908,3.75 0,7.379 0.908,3.629 1.342,-0.379 2.092,5.972 0.75,6.351 -0.5,11.399 -1.363,14.87 -0.863,3.471 -1.566,3.418 1.613,14.409 3.178,10.991 -0.26,4.658 5.945,4.62 6.201,-0.038 7.763,27.909 6.188,33.923 -10.707,-21.321 -16.743,-45.392 -16.743,-70.877 0,-47.932 21.325,-90.881 55.001,-119.886 -0.016,0.163 -0.025,0.316 -0.017,0.443 0.038,0.63 0.989,2.888 2.13,5.553 C 0.876,-0.76 0.466,-0.401 0,0"
             style="fill:#efeeda;fill-opacity:1;fill-rule:nonzero;stroke:none"
             id="path118"
             inkscape:connector-curvature="0" /></g><g
           id="g120"
           transform="translate(184.576,183.5021)"><path
             d="m 0,0 c 3.843,-0.181 1.953,-6.524 1.953,-7.43 0,-0.586 0.855,-1.188 2.428,-1.677 0.603,0.291 1.128,0.766 1.35,1.727 0.272,1.178 0.86,9.784 0.181,10.464 C 5.641,3.355 3.066,1.918 0,0"
             style="fill:#d8d6d2;fill-opacity:1;fill-rule:nonzero;stroke:none"
             id="path122"
             inkscape:connector-curvature="0" /></g><g
           id="g124"
           transform="translate(212.8004,173.1501)"><path
             d="m 0,0 c 3.261,-2.922 2.537,2.197 2.174,4.009 -0.362,1.812 1.015,9.336 6.885,8.697 5.87,-0.639 5.528,0.822 6.885,-6.16 1.357,-6.982 2.537,-7.61 9.422,-5.436 0.94,0.297 1.532,0.67 1.869,1.091 -0.674,1.429 -1.194,2.604 -1.262,2.9 -0.034,0.147 -0.047,0.435 -0.048,0.81 -2.075,2.008 -5.425,3.879 -5.995,4.258 -1.087,0.725 -10.508,5.798 -10.508,9.06 0,3.261 -0.363,5.073 0.724,6.522 1.087,1.45 3.624,-3.261 6.523,-4.348 2.899,-1.087 2.899,-3.986 6.885,-4.711 1.536,-0.279 2.288,0.727 2.914,2.09 -0.242,6.815 -0.903,18.049 -0.903,18.049 0,0 -5.17,-1.67 -6.121,-3.844 0,0 -0.356,0.877 -0.039,1.828 l -4.201,-1.891 0.668,2.254 c 0,0 -1.347,-0.725 -3.386,-0.351 0,0 1.438,1.166 1.393,2.434 C 13.834,38.53 8.489,34 7.492,30.15 6.496,26.3 4.548,15.202 3.189,13.345 1.835,11.494 -1.367,7.076 -6.324,3.638 -4.357,2.935 -1.927,1.727 0,0"
             style="fill:#d8d6d2;fill-opacity:1;fill-rule:nonzero;stroke:none"
             id="path126"
             inkscape:connector-curvature="0" /></g><g
           id="g128"
           transform="translate(258.6674,212.3976)"><path
             d="m 0,0 c -0.511,-1.02 -1.083,-2.616 -1.515,-4.896 0,0 -1.257,2.202 -2.027,2.91 -0.264,0.242 -1.209,-0.755 -1.982,-2.197 0,0 -0.826,0.747 -0.962,2.197 -0.136,1.449 -0.861,-0.77 -1.042,-2.401 -0.065,-0.586 -0.242,-3.822 -0.454,-7.868 1.248,0.699 2.512,1.267 4.12,1.295 C -0.58,-10.902 -0.543,-4.889 0,0"
             style="fill:#d8d6d2;fill-opacity:1;fill-rule:nonzero;stroke:none"
             id="path130"
             inkscape:connector-curvature="0" /></g><g
           id="g132"
           transform="translate(166.1119,193.2984)"><path
             d="M 0,0 C 0.617,-0.935 1.436,-1.848 2.372,-2.719 3.762,-0.295 5.039,3.839 4.808,4.34 4.588,4.817 1.483,1.547 0,0"
             style="fill:#d8d6d2;fill-opacity:1;fill-rule:nonzero;stroke:none"
             id="path134"
             inkscape:connector-curvature="0" /></g><g
           id="g136"
           transform="translate(107.974,301.8422)"><path
             d="M 0,0 C -0.224,0.094 -0.262,-0.11 0,0"
             style="fill:#d8d6d2;fill-opacity:1;fill-rule:nonzero;stroke:none"
             id="path138"
             inkscape:connector-curvature="0" /></g><g
           id="g140"
           transform="translate(126.0133,229.8837)"><path
             d="m 0,0 c 0.725,-1.812 3.986,-3.442 3.986,-3.442 0,0 3.443,-3.081 5.798,-4.711 2.355,-1.631 2.355,-4.53 3.986,-6.704 1.631,-2.174 1.087,-4.53 1.855,-6.885 0.768,-2.355 3.762,-1.631 6.298,-1.45 2.537,0.182 0.363,2.718 -0.181,4.349 -0.543,1.631 -4.348,5.979 -5.798,8.334 -1.449,2.356 2.356,1.631 5.073,1.631 2.718,0 3.262,-4.348 4.892,-7.066 0.958,-1.597 1.191,-2.582 1.646,-3.445 1.554,0.71 3.587,1.806 4.307,2.952 1.223,1.947 11.369,20.202 15.717,23.101 4.349,2.899 14.314,6.341 16.035,7.609 1.721,1.269 4.983,5.3 6.976,6.885 1.291,1.028 8.376,2.325 13.727,3.257 -1.91,4.218 0.962,9.34 0.962,9.34 0,0 4.045,2.663 9.118,0 1.125,-0.59 2.84,-0.894 4.919,-0.959 0.519,0.701 1.027,1.417 1.531,2.132 2.061,2.922 7.474,4.711 7.61,5.255 0.136,0.543 -1.993,1.087 -1.993,1.087 0,0 3.307,0.498 5.481,0.589 2.174,0.09 2.99,0.362 3.805,0.951 0.815,0.589 2.129,0.498 2.491,0.815 0.362,0.317 2.537,4.439 2.401,4.666 -0.136,0.226 -1.903,-0.227 -2.084,-0.68 0,0 1.087,1.812 1.812,2.265 0.725,0.453 6.16,2.582 5.934,2.899 -0.227,0.317 -0.498,0.679 -0.498,0.679 0,0 3.215,1.45 3.215,1.812 0,0.363 -0.362,0.68 -0.362,0.68 0,0 2.99,0.679 4.077,1.63 1.087,0.952 2.627,1.812 3.261,2.763 0.634,0.952 0.317,1.722 0.725,2.446 0.408,0.725 0.136,2.945 0.136,2.945 0,0 -4.168,-0.906 -5.164,-0.046 -0.996,0.861 3.533,5.708 6.07,7.927 2.536,2.22 3.125,2.808 3.352,3.035 0.226,0.226 3.306,5.209 4.439,8.561 0.212,0.628 0.523,1.228 0.895,1.792 0.896,1.791 -1.684,3.05 -11.468,9.572 -9.784,6.523 -7.61,0 -9.77,0 -2.161,0 -8.348,-2.899 -6.846,-7.972 1.503,-5.073 -18.715,-3.443 -15.816,-1.631 2.899,1.812 6.16,12.683 9.059,19.134 2.899,6.451 -1.449,1.884 -8.878,0.253 -7.428,-1.631 -10.327,5.073 -12.683,7.429 -2.355,2.355 1.812,3.442 6.523,7.428 4.711,3.986 1.812,6.523 1.087,6.885 -0.725,0.362 -3.986,0.181 -4.167,2.899 -0.181,2.718 1.993,1.812 3.624,1.449 1.63,-0.362 8.153,2.537 12.682,4.711 4.53,2.174 5.798,-8.153 6.885,-7.609 1.088,0.543 2.356,9.059 1.269,11.233 -1.087,2.174 -7.248,8.334 -11.234,11.233 -3.986,2.899 -3.805,0.544 -5.798,-0.724 -1.993,-1.269 -9.24,2.536 -7.428,3.261 1.812,0.725 0,4.167 0,4.167 0,0 -2.899,-2.355 -3.986,-2.355 -1.087,0 -1.087,5.435 -2.899,7.121 -1.812,1.687 -3.624,0.307 -5.798,-0.78 -2.174,-1.087 -2.899,-8.153 -5.617,-7.972 -2.717,0.181 -1.449,4.167 -3.805,5.254 -2.355,1.088 -13.407,-10.871 -14.313,-12.139 -0.906,-1.268 1.993,-4.167 0,-5.617 -1.993,-1.449 -10.146,-0.543 -13.045,0.544 -2.899,1.087 -2.574,-2.537 -2.574,-2.537 0,0 -2.499,-1.268 -5.036,-4.71 -2.537,-3.443 0.362,-4.53 3.442,-4.892 3.081,-0.363 0.906,-3.805 0,-4.168 -0.905,-0.362 -5.254,0 -5.254,0 -1.993,-2.174 1.993,-7.791 0,-11.958 -1.993,-4.167 -5.617,-0.181 -9.965,-0.181 -4.348,0 -2.355,-3.08 -4.53,-4.6 -2.174,-1.519 -3.08,5.506 -5.435,10.217 -2.355,4.711 1.449,1.993 3.08,6.704 1.631,4.71 -1.449,5.073 1.993,9.602 3.443,4.53 1.631,4.711 4.711,10.328 3.08,5.617 6.704,5.617 9.603,4.348 2.899,-1.268 3.442,-1.63 7.428,-1.087 3.986,0.544 -0.543,7.61 3.08,13.644 3.624,6.035 -2.355,0.851 -8.878,-2.773 -6.522,-3.624 -2.717,-5.617 -5.435,-7.247 -2.718,-1.631 -0.181,2.536 -3.262,1.812 -3.08,-0.725 -3.261,-2.537 -3.986,-5.255 -0.724,-2.717 -7.791,-5.798 -10.871,-9.059 -3.08,-3.261 -5.435,-5.617 -5.435,-8.334 0,-2.718 -7.429,-13.408 -13.137,-17.575 -5.708,-4.167 -2.445,-5.979 -4.619,-11.234 -2.174,-5.254 -0.725,-5.797 -6.523,-12.864 -5.798,-7.066 -1.993,-4.167 -1.449,-8.696 0.543,-4.53 1.63,-0.182 3.623,-0.182 1.993,0 1.631,-4.892 -0.906,-8.334 -0.938,-1.273 -1.477,-1.677 -1.732,-1.784 0.147,-0.062 0.373,-0.254 0.645,-0.753 1.087,-1.993 2.175,-2.174 3.443,-7.609 1.268,-5.436 0.362,-12.502 -5.254,-15.22 -5.617,-2.718 -2.356,-2.718 -5.798,-5.254 -3.443,-2.537 0.181,-2.899 4.348,-5.436 4.167,-2.536 5.254,-6.341 6.16,-9.965 0.906,-3.624 4.711,-5.435 7.066,-9.24 2.356,-3.805 -0.362,-1.993 -1.087,-4.892 C -9.24,10.69 -8.334,3.986 -7.247,6.16 -6.16,8.334 -0.725,1.812 0,0"
             style="fill:#d8d6d2;fill-opacity:1;fill-rule:nonzero;stroke:none"
             id="path142"
             inkscape:connector-curvature="0" /></g><g
           id="g144"
           transform="translate(369.1169,363.4163)"><path
             d="m 0,0 c 0,0 3.533,-2.174 5.3,-2.854 1.766,-0.679 3.804,-6.25 5.299,-7.066 1.495,-0.815 7.202,-9.784 6.387,-12.094 -0.815,-2.31 -2.446,-0.815 -2.446,1.359 0,2.174 -4.077,7.882 -4.62,7.882 -0.544,0 -0.136,-0.272 0.136,-2.039 0.271,-1.766 1.902,-1.495 1.902,-3.941 0,-2.446 -1.087,-4.805 -2.174,-5.052 -1.087,-0.247 -1.902,3.15 -3.261,1.927 -1.359,-1.223 -2.175,-5.979 -3.805,-4.62 -1.631,1.359 -7.61,5.435 -8.154,7.474 -0.543,2.038 0.136,5.028 -0.679,8.153 -0.815,3.125 -6.251,2.718 -7.202,3.941 -0.951,1.223 0.679,4.348 0,6.115 -0.679,1.766 1.087,2.038 1.631,1.902 C -11.143,0.951 -6.251,8.561 0,0"
             style="fill:#d8d6d2;fill-opacity:1;fill-rule:nonzero;stroke:none"
             id="path146"
             inkscape:connector-curvature="0" /></g><g
           id="g148"
           transform="translate(246.41,386.085)"><path
             d="M 0,0 C 0.032,0.134 2.446,-0.217 1.359,-0.776 0.272,-1.334 -0.679,-2.878 0,0"
             style="fill:#d8d6d2;fill-opacity:1;fill-rule:nonzero;stroke:none"
             id="path150"
             inkscape:connector-curvature="0" /></g><g
           id="g152"
           transform="translate(361.3712,266.9359)"><path
             d="m 0,0 c 1.463,1.869 2.854,-0.951 2.854,-0.951 0,0 1.087,-2.854 2.582,-3.669 C 6.93,-5.436 11.143,-4.756 9.648,-6.251 8.153,-7.746 7.066,-7.746 6.387,-6.93 5.707,-6.115 4.348,-1.495 2.31,-4.892 0.272,-8.289 1.449,-2.718 0.725,-2.084 0,-1.449 -1.631,-2.084 0,0"
             style="fill:#d8d6d2;fill-opacity:1;fill-rule:nonzero;stroke:none"
             id="path154"
             inkscape:connector-curvature="0" /></g><g
           id="g156"
           transform="translate(323.9568,283.0612)"><path
             d="M 0,0 C -1.49,1.49 0.467,2.808 0.686,2.446 0.906,2.084 3.08,0.272 3.805,0.815 4.53,1.359 6.341,0.634 6.16,0 5.979,-0.634 4.983,-1.631 3.624,-2.084 2.265,-2.537 3.08,-1.812 2.265,-1.087 1.449,-0.362 1.449,-1.449 0,0"
             style="fill:#d8d6d2;fill-opacity:1;fill-rule:nonzero;stroke:none"
             id="path158"
             inkscape:connector-curvature="0" /></g><g
           id="g160"
           transform="translate(217.6018,172.7202)"><path
             d="M 0,0 C 0,0 0.634,3.533 1.449,2.084 2.265,0.634 0.906,0.725 2.537,0 4.167,-0.725 6.704,-1.721 5.526,-2.084 4.348,-2.446 2.355,-1.812 1.631,-1.178 0.906,-0.544 0.725,-1.721 0,0"
             style="fill:#d8d6d2;fill-opacity:1;fill-rule:nonzero;stroke:none"
             id="path162"
             inkscape:connector-curvature="0" /></g><g
           id="g164"
           transform="translate(234.3613,166.9223)"><path
             d="M 0,0 C 0.491,1.201 4.439,1.54 3.533,0 2.627,-1.54 0.815,-1.902 0.453,-1.812 0.091,-1.721 -0.815,-1.993 0,0"
             style="fill:#d8d6d2;fill-opacity:1;fill-rule:nonzero;stroke:none"
             id="path166"
             inkscape:connector-curvature="0" /></g><g
           id="g168"
           transform="translate(298.0475,387.4684)"><path
             d="m 0,0 c 0.143,1.222 0.408,2.718 1.223,2.582 0.815,-0.136 1.902,1.359 3.397,1.495 1.495,0.136 4.349,2.853 5.572,0 1.223,-2.854 5.571,-6.523 6.794,-6.523 1.223,0 8.153,-4.892 1.902,-3.669 -6.25,1.223 -4.348,0.679 -6.522,2.99 -2.174,2.31 -0.816,3.533 -2.99,3.533 -2.174,0 -4.076,-0.68 -2.582,-2.039 1.495,-1.359 4.892,-2.974 4.892,-4.68 0,-1.706 2.013,-4.288 -0.964,-3.065 C 7.746,-8.153 7.066,-6.794 5.3,-5.436 3.533,-4.077 -0.192,-1.639 0,0"
             style="fill:#aaa7a2;fill-opacity:1;fill-rule:nonzero;stroke:none"
             id="path170"
             inkscape:connector-curvature="0" /></g><g
           id="g172"
           transform="translate(209.1768,401.7367)"><path
             d="m 0,0 c -0.465,0.155 0.815,2.446 1.767,2.718 0.951,0.272 5.299,0.543 7.881,1.766 2.582,1.223 2.038,5.436 6.523,1.495 4.484,-3.941 7.474,-6.387 5.571,-7.881 -1.902,-1.495 -5.435,-5.164 -5.435,-1.767 0,3.397 2.038,6.251 -0.544,6.93 C 13.181,3.941 12.502,2.014 9.376,1.279 6.251,0.544 3.669,-1.223 0,0"
             style="fill:#aaa7a2;fill-opacity:1;fill-rule:nonzero;stroke:none"
             id="path174"
             inkscape:connector-curvature="0" /></g><g
           id="g176"
           transform="translate(182.8145,384.4789)"><path
             d="M 0,0 C 0.108,1.355 1.631,5.979 2.718,4.348 3.805,2.718 4.599,-0.136 3.319,0 2.038,0.136 -0.272,-3.397 0,0"
             style="fill:#aaa7a2;fill-opacity:1;fill-rule:nonzero;stroke:none"
             id="path178"
             inkscape:connector-curvature="0" /></g><g
           id="g180"
           transform="translate(383.521,336.6763)"><path
             d="M 0,0 C 0.471,0.246 2.876,2.204 2.661,0 2.446,-2.204 -2.087,-1.089 0,0"
             style="fill:#aaa7a2;fill-opacity:1;fill-rule:nonzero;stroke:none"
             id="path182"
             inkscape:connector-curvature="0" /></g><g
           id="g184"
           transform="translate(117.7695,223.9953)"><path
             d="m 0,0 c -0.402,1.107 -1.178,3.171 0,3.171 1.178,0 2.537,0.362 2.265,-0.816 C 1.993,1.178 0.634,-0.997 2.899,-2.084 5.164,-3.171 8.516,-7.519 7.247,-8.425 5.979,-9.331 4.439,-11.324 4.167,-9.331 3.895,-7.338 1.902,-7.066 0.815,-6.613 -0.272,-6.16 1.087,-2.99 0,0"
             style="fill:#aaa7a2;fill-opacity:1;fill-rule:nonzero;stroke:none"
             id="path186"
             inkscape:connector-curvature="0" /></g><g
           id="g188"
           transform="translate(134.7102,307.8381)"><path
             d="m 0,0 c 0.77,0.95 -0.272,2.174 0.815,2.174 1.087,0 3.533,1.631 4.213,0 0.679,-1.63 2.989,-5.843 0,-5.299 -2.99,0.543 -1.767,2.989 -4.484,0.679 C -2.174,-4.756 -6.387,-7.882 0,0"
             style="fill:#aaa7a2;fill-opacity:1;fill-rule:nonzero;stroke:none"
             id="path190"
             inkscape:connector-curvature="0" /></g><g
           id="g192"
           transform="translate(136.2937,313.5454)"><path
             d="M 0,0 C -1.312,0.544 -0.862,3.261 0,3.125 0.862,2.99 1.95,1.369 2.493,3.13 3.037,4.892 5.887,0.544 4.937,0 3.988,-0.544 0,0 0,0"
             style="fill:#aaa7a2;fill-opacity:1;fill-rule:nonzero;stroke:none"
             id="path194"
             inkscape:connector-curvature="0" /></g><g
           id="g196"
           transform="translate(193.8214,317.8938)"><path
             d="M 0,0 C -1.359,0 -4.484,1.087 -2.174,2.446 0.136,3.805 1.767,1.223 2.446,3.261 3.125,5.3 4.213,0.544 4.213,0 4.213,-0.544 0,0 0,0"
             style="fill:#aaa7a2;fill-opacity:1;fill-rule:nonzero;stroke:none"
             id="path198"
             inkscape:connector-curvature="0" /></g><g
           id="g200"
           transform="translate(168.818,283.3783)"><path
             d="m 0,0 c -0.828,1.507 0.544,2.038 -1.359,5.571 -1.902,3.533 -7.338,-1.087 -8.153,0 -0.815,1.088 0.815,2.718 -1.903,3.126 -2.717,0.407 -5.843,-0.272 -4.62,-2.718 1.223,-2.446 3.397,-2.31 5.164,-2.174 C -9.104,3.941 -6.66,3.261 -8.154,2.446 -9.648,1.631 -11.822,0.498 -10.645,0 c 1.178,-0.498 1.631,-0.136 1.631,-0.951 0,-0.816 -1.631,-3.171 -3.352,-5.436 -1.721,-2.265 -2.355,-3.533 -2.083,-4.892 0.271,-1.359 0.634,-5.254 1.902,-6.432 1.268,-1.177 1.449,-2.989 1.54,-5.073 0.091,-2.083 -2.355,-6.885 -0.815,-8.787 1.54,-1.903 4.711,-3.805 4.62,-1.993 -0.091,1.812 -0.634,2.355 -1.359,3.714 -0.725,1.359 0.272,4.167 1.631,4.077 1.359,-0.091 4.076,1.268 3.17,1.993 -0.905,0.724 -1.268,2.646 -1.63,4.041 -0.363,1.394 3.442,3.931 3.442,3.931 l 6.795,3.533 c 0,0 0.362,5.164 -1.54,5.979 -1.903,0.815 -4.892,-4.711 -4.802,-1.359 C -1.404,-4.303 1.767,-3.216 0,0"
             style="fill:#aaa7a2;fill-opacity:1;fill-rule:nonzero;stroke:none"
             id="path202"
             inkscape:connector-curvature="0" /></g><g
           id="g204"
           transform="translate(175.0689,280.5246)"><path
             d="m 0,0 c -1.73,1.153 -1.767,3.957 0.679,3.677 2.446,-0.28 2.446,-1.503 3.398,-0.552 0.951,0.952 2.038,1.631 2.989,1.631 0.951,0 5.843,2.582 6.523,2.038 0.679,-0.543 0,-3.381 -1.903,-3.117 C 9.784,3.941 7.937,5.18 6.551,3.677 5.164,2.174 4.756,-5.028 2.854,-4.348 0.951,-3.669 2.446,-1.631 0,0"
             style="fill:#aaa7a2;fill-opacity:1;fill-rule:nonzero;stroke:none"
             id="path206"
             inkscape:connector-curvature="0" /></g><g
           id="g208"
           transform="translate(179.5326,273.0508)"><path
             d="m 0,0 c -0.906,0.906 2.31,3.618 3.125,1.877 0.816,-1.741 1.088,-4.323 0,-3.644 C 2.038,-1.087 1.767,-1.767 0,0"
             style="fill:#aaa7a2;fill-opacity:1;fill-rule:nonzero;stroke:none"
             id="path210"
             inkscape:connector-curvature="0" /></g><g
           id="g212"
           transform="translate(210.8074,266.3923)"><path
             d="M 0,0 C 0.988,0.161 1.54,-0.544 2.084,0 2.627,0.544 5.707,1.909 3.624,2.404 1.54,2.899 1.54,1.456 0,2.404 c -1.54,0.948 -2.627,1.31 -3.714,3.756 -1.087,2.446 -2.084,4.439 -4.168,4.892 -2.083,0.453 -2.174,-1.264 -1.358,-1.945 0.815,-0.682 1.177,0.862 2.264,0 C -5.888,8.244 -4.801,6.209 -4.892,4.781 -4.983,3.352 -2.695,-0.438 0,0"
             style="fill:#aaa7a2;fill-opacity:1;fill-rule:nonzero;stroke:none"
             id="path214"
             inkscape:connector-curvature="0" /></g><g
           id="g216"
           transform="translate(206.1217,264.3885)"><path
             d="M 0,0 C 0.5,-0.244 -0.421,2.548 0.46,1.595 1.339,0.642 1.532,-1.6 1.376,-1.822 1.219,-2.044 -5.372,-2.274 -4.049,-1.655 -2.726,-1.036 -1.349,0.659 0,0"
             style="fill:#aaa7a2;fill-opacity:1;fill-rule:nonzero;stroke:none"
             id="path218"
             inkscape:connector-curvature="0" /></g><g
           id="g220"
           transform="translate(395.2753,293.0263)"><path
             d="m 0,0 c -0.041,1.466 0.611,2.446 -1.155,2.786 -1.767,0.339 -2.446,-0.748 -2.242,-1.393 0.204,-0.646 2.886,-1.325 1.681,-2.072 -1.206,-0.748 -5.214,-1.223 -4.263,-3.669 0.951,-2.446 2.106,-3.262 2.106,-3.262 0,0 0.883,-3.261 1.155,-3.805 0.272,-0.543 2.106,2.718 2.242,3.941 C -0.34,-6.251 -0.612,-5.571 0,-3.737 0.611,-1.902 0.043,-1.553 0,0"
             style="fill:#aaa7a2;fill-opacity:1;fill-rule:nonzero;stroke:none"
             id="path222"
             inkscape:connector-curvature="0" /></g><g
           id="g224"
           transform="translate(389.1516,299.1413)"><path
             d="M 0,0 C 0.263,1.178 1.571,2.65 1.911,1.155 2.251,-0.34 1.155,-0.272 0.956,-1.427 0.756,-2.582 -0.348,-1.563 0,0"
             style="fill:#aaa7a2;fill-opacity:1;fill-rule:nonzero;stroke:none"
             id="path226"
             inkscape:connector-curvature="0" /></g><g
           id="g228"
           transform="translate(357.3625,324.8241)"><path
             d="M 0,0 C 0,1.563 1.767,2.65 2.65,1.155 3.533,-0.34 4.213,-0.272 5.639,-0.544 7.066,-0.815 9.92,-1.767 9.784,-2.582 9.648,-3.397 7.678,-3.465 6.659,-5.775 5.639,-8.085 4.484,-6.862 4.009,-5.3 3.533,-3.737 2.582,-2.148 1.631,-1.889 0.679,-1.631 0,-1.359 0,0"
             style="fill:#aaa7a2;fill-opacity:1;fill-rule:nonzero;stroke:none"
             id="path230"
             inkscape:connector-curvature="0" /></g><g
           id="g232"
           transform="translate(352.5385,323.6691)"><path
             d="M 0,0 C 1.211,0.997 -0.544,1.155 0.815,2.718 2.174,4.28 3.261,3.601 2.106,5.911 0.951,8.221 0.507,11.686 -0.052,10.192 -0.612,8.697 -0.679,6.659 -0.408,5.775 -0.136,4.892 -3.465,-2.854 0,0"
             style="fill:#aaa7a2;fill-opacity:1;fill-rule:nonzero;stroke:none"
             id="path234"
             inkscape:connector-curvature="0" /></g><g
           id="g236"
           transform="translate(391.5384,267.0718)"><path
             d="m 0,0 c 0.544,1.359 6.523,18.617 6.523,20.519 0,1.903 -0.136,9.92 -0.68,14.132 -0.543,4.213 -7.745,9.784 -8.153,10.056 -0.408,0.272 -5.028,3.941 -5.028,5.028 0,1.087 3.941,1.767 2.854,2.854 -1.087,1.087 -2.718,-0.272 -3.941,-2.99 -1.223,-2.718 -7.202,5.436 -8.289,5.843 -1.087,0.408 -16.986,8.833 -18.345,11.687 -1.359,2.853 -7.066,3.125 -7.066,3.125 0,0 -6.659,0.408 -9.241,2.285 -2.582,1.878 -0.271,4.781 -2.174,6.004 -1.902,1.223 -5.028,0.816 -6.658,3.397 -1.631,2.582 -2.852,4.432 -2.039,7.067 0.814,2.634 -4.076,2.717 -1.63,-0.952 2.446,-3.669 -0.816,-4.076 -1.346,-3.043 -0.531,1.033 -2.867,-1.441 -2.867,-1.441 0,0 5.028,-7.881 1.767,-7.881 -3.262,0 -11.007,10.599 -13.046,12.501 -2.038,1.903 -0.815,3.669 -2.038,6.251 -1.223,2.582 4.62,-0.136 5.028,0 0.408,0.136 -0.408,2.99 -2.038,2.99 -1.631,0 -15.356,5.979 -18.889,9.24 -3.533,3.261 1.903,7.882 0,9.512 -1.902,1.631 -5.435,-0.272 -7.881,0 -2.446,0.272 -5.979,1.631 -4.62,6.251 1.358,4.62 -10.872,3.805 -10.872,3.805 0,0 4.349,-5.707 5.164,-8.153 0.816,-2.446 8.153,-2.718 8.697,-3.805 0.544,-1.087 -1.06,-2.51 -3.533,-3.533 -3.941,-1.631 -8.017,0.407 -8.697,2.853 -0.679,2.446 -9.24,0.408 -12.773,0.408 -3.533,0 -3.941,-4.213 -7.202,-4.62 -3.262,-0.408 0.543,-7.338 1.359,-11.958 0.815,-4.621 -0.408,-4.756 -1.631,-6.115 -1.223,-1.359 0.407,-3.533 0.815,-9.241 0.408,-5.707 5.028,-5.843 10.328,-8.425 5.299,-2.582 11.142,-4.484 15.219,-4.756 4.077,-0.272 3.669,-0.815 8.799,-1.586 0,0 10e-4,0 10e-4,0 1.632,2.684 3.423,5.05 4.083,5.215 1.087,0.272 5.163,-3.126 5.752,-5.028 0.589,-1.902 0.499,-4.484 0.499,-4.484 0,0 0.905,0.906 1.54,0.815 0.634,-0.09 2.264,-0.815 3.08,-2.989 0.815,-2.175 -2.174,-6.025 -2.31,-7.112 -0.087,-0.695 0.124,-5.503 0.186,-9.164 0.003,-0.01 1.065,-3.935 2.758,-7.057 1.694,-3.125 11.622,-6.93 15.291,-7.61 3.669,-0.679 2.854,-1.766 5.844,-4.62 2.989,-2.853 0.271,-1.087 2.581,-2.853 2.311,-1.767 5.708,-0.136 8.561,1.087 2.854,1.223 3.262,4.62 3.126,6.794 -0.136,2.174 -0.136,4.62 -0.408,7.882 -0.272,3.261 0.68,2.989 3.669,3.261 2.99,0.272 2.446,-4.62 2.446,-4.62 0,0 1.325,-1.699 3.669,1.902 0.579,0.889 7.882,0.272 9.784,-1.767 1.902,-2.038 2.582,-5.571 2.582,-5.571 0,0 0,-3.669 0.543,-5.707 0.544,-2.039 11.687,-7.338 12.638,-7.882 0.951,-0.543 0.679,-0.951 1.087,-3.669 0.408,-2.717 6.523,-7.473 8.833,-8.968 2.31,-1.495 0.407,-3.533 1.223,-8.597 0.815,-5.063 -4.756,-1.731 -4.756,-1.731 0,0 -2.31,-1.359 -0.68,-2.31 1.631,-0.951 3.262,-6.658 4.756,-7.066 1.495,-0.408 4.349,3.533 6.523,6.794 C 0.951,-4.484 -0.544,-1.359 0,0"
             style="fill:#d8d6d2;fill-opacity:1;fill-rule:nonzero;stroke:none"
             id="path238"
             inkscape:connector-curvature="0" /></g><g
           id="g240"
           transform="translate(167.5607,302.2205)"><path
             d="M 0,0 C 0.668,0.834 1.528,2.116 1.7,1.66 1.872,1.203 1.429,0.497 1.291,0.479 1.152,0.46 0.683,-1.031 0.276,-1.088 -0.132,-1.145 -0.284,-0.355 0,0"
             style="fill:#ffffff;fill-opacity:1;fill-rule:nonzero;stroke:none"
             id="path242"
             inkscape:connector-curvature="0" /></g><g
           id="g244"
           transform="translate(202.4928,286.9085)"><path
             d="M 0,0 C 0.206,0.646 0.504,1.325 1.126,1.594 1.749,1.863 1.715,1.257 2.265,2.081 2.815,2.905 2.199,3.162 3.243,3.374 4.286,3.585 4.832,4.013 4.63,3.686 4.429,3.359 4.085,3.258 3.555,3.001 3.024,2.744 2.814,2.773 2.674,2.116 2.534,1.458 1.689,0.164 1.271,0.485 0.853,0.807 -0.223,-0.7 0,0"
             style="fill:#ffffff;fill-opacity:1;fill-rule:nonzero;stroke:none"
             id="path246"
             inkscape:connector-curvature="0" /></g><g
           id="g248"
           transform="translate(190.6667,288.9583)"><path
             d="m 0,0 c 0.164,1.109 1.208,1.042 1.458,1.042 0.25,0 1.063,-0.763 0.25,-0.521 C 0.896,0.763 -0.167,-1.125 0,0"
             style="fill:#ffffff;fill-opacity:1;fill-rule:nonzero;stroke:none"
             id="path250"
             inkscape:connector-curvature="0" /></g><g
           id="g252"
           transform="translate(139.0833,223.6667)"><path
             d="M 0,0 C -0.333,0.25 -1.917,1.25 -1.583,2.5 -1.25,3.75 -0.25,2.083 0,1.833 0.25,1.583 1.167,1.543 2.417,1.48 3.667,1.417 4.583,5.167 5.833,4.083 7.083,3 6.917,1.333 6.417,1.083 5.917,0.833 5.5,1.583 4.583,1.583 3.667,1.583 1.75,-1.5 1.5,-1.25 1.25,-1 0,0 0,0"
             style="fill:#aaa7a2;fill-opacity:1;fill-rule:nonzero;stroke:none"
             id="path254"
             inkscape:connector-curvature="0" /></g><g
           id="g256"
           transform="translate(130.9167,228.75)"><path
             d="M 0,0 C -0.285,1.313 0.25,2 0.5,1.75 0.75,1.5 1.083,0.167 1.75,0 2.417,-0.167 3.75,-0.273 3.167,-0.803 2.583,-1.333 0.417,-1.917 0,0"
             style="fill:#aaa7a2;fill-opacity:1;fill-rule:nonzero;stroke:none"
             id="path258"
             inkscape:connector-curvature="0" /></g><g
           id="g260"
           transform="translate(117.6165,261.75)"><path
             d="M 0,0 C 0.306,0.952 1.083,3 1.583,1.5 2.083,0 2.667,0.25 4,0 c 1.333,-0.25 1.833,-1.5 0.833,-1.5 -1,0 -0.555,0.583 -2.152,0.75 C 1.083,-0.583 -1.125,-3.5 0,0"
             style="fill:#aaa7a2;fill-opacity:1;fill-rule:nonzero;stroke:none"
             id="path262"
             inkscape:connector-curvature="0" /></g><g
           id="g264"
           transform="translate(114.5681,273.0486)"><path
             d="m 0,0 c -0.19,0.664 1.312,2.25 1.5,1.062 0.187,-1.187 1.438,-1.374 1.438,-1.374 0,0 0.875,-1.625 0,-1.375 C 2.063,-1.437 2.25,-1 1.937,-0.75 1.625,-0.5 0.375,-1.312 0,0"
             style="fill:#aaa7a2;fill-opacity:1;fill-rule:nonzero;stroke:none"
             id="path266"
             inkscape:connector-curvature="0" /></g><g
           id="g268"
           transform="translate(107.2135,272.1079)"><path
             d="M 0,0 C -0.103,0.553 0.25,1.625 0.75,1.062 1.25,0.5 2.25,0.108 3.375,0.46 4.5,0.812 3.5,0.875 5.937,2.188 8.375,3.5 9.063,4.062 9.813,3.75 10.563,3.438 10.25,1.917 10.25,1.917 c 0,0 -0.75,0.771 -1.187,0.771 C 8.625,2.688 7.75,3.563 7,2.375 6.25,1.187 2.625,2.063 5.75,0 c 3.125,-2.063 2.5,-1.437 3.5,-2.063 1,-0.625 5.25,-4.062 3.063,-4.187 C 10.125,-6.375 6.312,-8.625 5.375,-7 4.437,-5.375 7.875,-4.125 7.312,-3.313 6.75,-2.5 7,-1.753 5.937,-1.876 4.875,-2 4.062,-3.25 3.813,-2.438 3.563,-1.625 3.563,-2 3.563,-1.625 3.563,-1.25 0.687,-3.688 0,0"
             style="fill:#aaa7a2;fill-opacity:1;fill-rule:nonzero;stroke:none"
             id="path270"
             inkscape:connector-curvature="0" /></g><g
           id="g272"
           transform="translate(121.1875,266.5625)"><path
             d="M 0,0 C 0,0 -0.25,0.687 0,0.75 0.25,0.812 0.875,0.062 1.062,0 1.25,-0.062 2.375,0 2.375,0 2.375,0 2.333,-1.538 0,0"
             style="fill:#aaa7a2;fill-opacity:1;fill-rule:nonzero;stroke:none"
             id="path274"
             inkscape:connector-curvature="0" /></g><g
           id="g276"
           transform="translate(123.5625,267.4687)"><path
             d="M 0,0 C -0.411,0.274 0.312,0.875 0.531,0.812 0.75,0.75 1,0.687 1,0.687 1,0.687 1.906,0.569 1.375,0.409 0.844,0.25 0.281,-0.187 0,0"
             style="fill:#aaa7a2;fill-opacity:1;fill-rule:nonzero;stroke:none"
             id="path278"
             inkscape:connector-curvature="0" /></g><g
           id="g280"
           transform="translate(126.4375,268.7187)"><path
             d="M 0,0 C 0.14,0.14 1.125,-0.406 0.687,-0.562 0.25,-0.719 -0.156,-0.156 0,0"
             style="fill:#aaa7a2;fill-opacity:1;fill-rule:nonzero;stroke:none"
             id="path282"
             inkscape:connector-curvature="0" /></g><g
           id="g284"
           transform="translate(125.6707,267.3009)"><path
             d="M 0,0 C -0.187,0.41 0.827,0.49 0.757,0.292 0.687,0.094 0.156,-0.344 0,0"
             style="fill:#aaa7a2;fill-opacity:1;fill-rule:nonzero;stroke:none"
             id="path286"
             inkscape:connector-curvature="0" /></g><g
           id="g288"
           transform="translate(125.8281,268.7414)"><path
             d="M 0,0 C -0.055,0.241 0.157,0.29 0.211,0.29 0.266,0.29 0.312,0.085 0.391,0 0.469,-0.085 0.266,-0.04 0.195,0 0.125,0.04 0.062,-0.274 0,0"
             style="fill:#aaa7a2;fill-opacity:1;fill-rule:nonzero;stroke:none"
             id="path290"
             inkscape:connector-curvature="0" /></g></g></g></g></svg>